Sitara_Bd.ufo
<glyph name="quotedbl" format="1">
  <advance width="1040"/>
  <unicode hex="0022"/>
  <outline>
    <contour>
      <point x="584" y="1462" type="line"/>
      <point x="903" y="1462" type="line"/>
      <point x="831" y="899" type="line"/>
      <point x="696" y="899" type="line"/>
    </contour>
    <contour>
      <point x="137" y="1462" type="line"/>
      <point x="457" y="1462" type="line"/>
      <point x="365" y="899" type="line"/>
      <point x="229" y="899" type="line"/>
    </contour>
  </outline>
</glyph>
<glyph name="plus" format="1">
  <advance width="1145"/>
  <unicode hex="002B"/>
  <outline>
    <contour>
      <point x="645" y="659" type="line"/>
      <point x="645" y="293" type="line"/>
      <point x="498" y="293" type="line"/>
      <point x="498" y="659" type="line"/>
      <point x="133" y="659" type="line"/>
      <point x="133" y="805" type="line"/>
      <point x="498" y="805" type="line"/>
      <point x="498" y="1171" type="line"/>
      <point x="645" y="1171" type="line"/>
      <point x="645" y="805" type="line"/>
      <point x="1012" y="805" type="line"/>
      <point x="1012" y="659" type="line"/>
    </contour>
  </outline>
</glyph>
<glyph name="period" format="1">
  <advance width="623"/>
  <unicode hex="002E"/>
  <outline>
    <contour>
      <point x="143" y="210"/>
      <point x="162" y="251"/>
      <point x="192" y="276" type="curve" smooth="yes"/>
      <point x="222" y="301"/>
      <point x="264" y="311"/>
      <point x="311" y="311" type="curve" smooth="yes"/>
      <point x="356" y="311"/>
      <point x="398" y="301"/>
      <point x="429" y="276" type="curve" smooth="yes"/>
      <point x="460" y="251"/>
      <point x="479" y="210"/>
      <point x="479" y="147" type="curve" smooth="yes"/>
      <point x="479" y="86"/>
      <point x="460" y="45"/>
      <point x="429" y="20" type="curve" smooth="yes"/>
      <point x="398" y="-5"/>
      <point x="356" y="-16"/>
      <point x="311" y="-16" type="curve" smooth="yes"/>
      <point x="264" y="-16"/>
      <point x="222" y="-5"/>
      <point x="192" y="20" type="curve" smooth="yes"/>
      <point x="162" y="45"/>
      <point x="143" y="86"/>
      <point x="143" y="147" type="curve" smooth="yes"/>
    </contour>
  </outline>
</glyph>
<glyph name="zero" format="1">
  <advance width="1145"/>
  <unicode hex="0030"/>
  <outline>
    <contour>
      <point x="1075" y="508"/>
      <point x="1039" y="319"/>
      <point x="958" y="187" type="curve" smooth="yes"/>
      <point x="877" y="55"/>
      <point x="752" y="-20"/>
      <point x="573" y="-20" type="curve" smooth="yes"/>
      <point x="386" y="-20"/>
      <point x="261" y="55"/>
      <point x="182" y="187" type="curve" smooth="yes"/>
      <point x="102" y="319"/>
      <point x="70" y="508"/>
      <point x="70" y="735" type="curve" smooth="yes"/>
      <point x="70" y="962"/>
      <point x="102" y="1148"/>
      <point x="182" y="1279" type="curve" smooth="yes"/>
      <point x="261" y="1410"/>
      <point x="387" y="1483"/>
      <point x="575" y="1483" type="curve" smooth="yes"/>
      <point x="752" y="1483"/>
      <point x="878" y="1410"/>
      <point x="959" y="1279" type="curve" smooth="yes"/>
      <point x="1039" y="1148"/>
      <point x="1075" y="961"/>
      <point x="1075" y="733" type="curve" smooth="yes"/>
    </contour>
    <contour>
      <point x="387" y="537"/>
      <point x="396" y="383"/>
      <point x="424" y="277" type="curve" smooth="yes"/>
      <point x="451" y="171"/>
      <point x="497" y="113"/>
      <point x="573" y="113" type="curve" smooth="yes"/>
      <point x="649" y="113"/>
      <point x="695" y="171"/>
      <point x="723" y="277" type="curve" smooth="yes"/>
      <point x="750" y="383"/>
      <point x="758" y="537"/>
      <point x="758" y="733" type="curve" smooth="yes"/>
      <point x="758" y="929"/>
      <point x="750" y="1083"/>
      <point x="723" y="1188" type="curve" smooth="yes"/>
      <point x="696" y="1293"/>
      <point x="650" y="1350"/>
      <point x="575" y="1350" type="curve" smooth="yes"/>
      <point x="499" y="1350"/>
      <point x="452" y="1293"/>
      <point x="424" y="1188" type="curve" smooth="yes"/>
      <point x="396" y="1083"/>
      <point x="387" y="929"/>
      <point x="387" y="733" type="curve" smooth="yes"/>
    </contour>
  </outline>
</glyph>
<glyph name="two" format="1">
  <advance width="1145"/>
  <unicode hex="0032"/>
  <outline>
    <contour>
      <point x="999" y="1079"/>
      <point x="986" y="1021"/>
      <point x="954" y="957" type="curve" smooth="yes"/>
      <point x="921" y="893"/>
      <point x="869" y="824"/>
      <point x="790" y="738" type="curve" smooth="yes"/>
      <point x="711" y="652"/>
      <point x="608" y="549"/>
      <point x="471" y="420" type="curve" smooth="yes"/>
      <point x="266" y="225" type="line"/>
      <point x="743" y="225" type="line" smooth="yes"/>
      <point x="827" y="225"/>
      <point x="889" y="275"/>
      <point x="913" y="367" type="curve" smooth="yes"/>
      <point x="930" y="430" type="line"/>
      <point x="1051" y="430" type="line"/>
      <point x="1040" y="0" type="line"/>
      <point x="72" y="0" type="line"/>
      <point x="72" y="211" type="line"/>
      <point x="375" y="520" type="line" smooth="yes"/>
      <point x="502" y="649"/>
      <point x="580" y="749"/>
      <point x="627" y="844" type="curve" smooth="yes"/>
      <point x="674" y="939"/>
      <point x="690" y="1028"/>
      <point x="690" y="1133" type="curve" smooth="yes"/>
      <point x="690" y="1289"/>
      <point x="630" y="1358"/>
      <point x="530" y="1358" type="curve" smooth="yes"/>
      <point x="391" y="1358"/>
      <point x="342" y="1237"/>
      <point x="342" y="1004" type="curve"/>
      <point x="265" y="1004"/>
      <point x="199" y="1018"/>
      <point x="153" y="1050" type="curve" smooth="yes"/>
      <point x="107" y="1082"/>
      <point x="80" y="1133"/>
      <point x="80" y="1206" type="curve" smooth="yes"/>
      <point x="80" y="1281"/>
      <point x="118" y="1349"/>
      <point x="193" y="1400" type="curve" smooth="yes"/>
      <point x="268" y="1451"/>
      <point x="381" y="1483"/>
      <point x="530" y="1483" type="curve" smooth="yes"/>
      <point x="683" y="1483"/>
      <point x="800" y="1451"/>
      <point x="880" y="1392" type="curve" smooth="yes"/>
      <point x="959" y="1333"/>
      <point x="999" y="1248"/>
      <point x="999" y="1143" type="curve" smooth="yes"/>
    </contour>
  </outline>
</glyph>
<glyph name="three" format="1">
  <advance width="1145"/>
  <unicode hex="0033"/>
  <outline>
    <contour>
      <point x="343" y="-20"/>
      <point x="233" y="9"/>
      <point x="162" y="54" type="curve" smooth="yes"/>
      <point x="90" y="99"/>
      <point x="57" y="161"/>
      <point x="57" y="225" type="curve" smooth="yes"/>
      <point x="57" y="277"/>
      <point x="77" y="317"/>
      <point x="109" y="345" type="curve" smooth="yes"/>
      <point x="141" y="372"/>
      <point x="184" y="385"/>
      <point x="231" y="385" type="curve"/>
      <point x="231" y="298"/>
      <point x="257" y="233"/>
      <point x="301" y="189" type="curve" smooth="yes"/>
      <point x="345" y="145"/>
      <point x="408" y="123"/>
      <point x="483" y="123" type="curve" smooth="yes"/>
      <point x="550" y="123"/>
      <point x="612" y="140"/>
      <point x="659" y="185" type="curve" smooth="yes"/>
      <point x="706" y="230"/>
      <point x="735" y="307"/>
      <point x="735" y="424" type="curve" smooth="yes"/>
      <point x="735" y="503"/>
      <point x="708" y="569"/>
      <point x="654" y="617" type="curve" smooth="yes"/>
      <point x="600" y="664"/>
      <point x="521" y="692"/>
      <point x="418" y="692" type="curve" smooth="yes"/>
      <point x="291" y="692" type="line"/>
      <point x="291" y="819" type="line"/>
      <point x="426" y="819" type="line" smooth="yes"/>
      <point x="514" y="819"/>
      <point x="579" y="849"/>
      <point x="622" y="902" type="curve" smooth="yes"/>
      <point x="665" y="955"/>
      <point x="686" y="1031"/>
      <point x="686" y="1120" type="curve" smooth="yes"/>
      <point x="686" y="1269"/>
      <point x="628" y="1358"/>
      <point x="516" y="1358" type="curve" smooth="yes"/>
      <point x="443" y="1358"/>
      <point x="398" y="1319"/>
      <point x="373" y="1259" type="curve" smooth="yes"/>
      <point x="348" y="1199"/>
      <point x="340" y="1120"/>
      <point x="340" y="1040" type="curve"/>
      <point x="169" y="1040"/>
      <point x="74" y="1098"/>
      <point x="74" y="1223" type="curve" smooth="yes"/>
      <point x="74" y="1295"/>
      <point x="112" y="1360"/>
      <point x="188" y="1408" type="curve" smooth="yes"/>
      <point x="264" y="1455"/>
      <point x="377" y="1483"/>
      <point x="526" y="1483" type="curve" smooth="yes"/>
      <point x="671" y="1483"/>
      <point x="790" y="1453"/>
      <point x="872" y="1396" type="curve" smooth="yes"/>
      <point x="954" y="1339"/>
      <point x="999" y="1256"/>
      <point x="999" y="1149" type="curve" smooth="yes"/>
      <point x="999" y="1057"/>
      <point x="965" y="979"/>
      <point x="909" y="918" type="curve" smooth="yes"/>
      <point x="853" y="857"/>
      <point x="775" y="811"/>
      <point x="686" y="780" type="curve"/>
      <point x="769" y="765"/>
      <point x="859" y="734"/>
      <point x="930" y="678" type="curve" smooth="yes"/>
      <point x="1001" y="622"/>
      <point x="1051" y="539"/>
      <point x="1051" y="422" type="curve" smooth="yes"/>
      <point x="1051" y="255"/>
      <point x="984" y="144"/>
      <point x="881" y="76" type="curve" smooth="yes"/>
      <point x="777" y="7"/>
      <point x="639" y="-20"/>
      <point x="498" y="-20" type="curve" smooth="yes"/>
    </contour>
  </outline>
</glyph>
<glyph name="less" format="1">
  <advance width="1145"/>
  <unicode hex="003C"/>
  <outline>
    <contour>
      <point x="133" y="690" type="line"/>
      <point x="133" y="774" type="line"/>
      <point x="1012" y="1253" type="line"/>
      <point x="1012" y="1092" type="line"/>
      <point x="352" y="731" type="line"/>
      <point x="1012" y="375" type="line"/>
      <point x="1012" y="213" type="line"/>
    </contour>
  </outline>
</glyph>
<glyph name="equal" format="1">
  <advance width="1145"/>
  <unicode hex="003D"/>
  <outline>
    <contour>
      <point x="1016" y="604" type="line"/>
      <point x="1016" y="461" type="line"/>
      <point x="129" y="461" type="line"/>
      <point x="129" y="604" type="line"/>
    </contour>
    <contour>
      <point x="1016" y="1001" type="line"/>
      <point x="1016" y="858" type="line"/>
      <point x="129" y="858" type="line"/>
      <point x="129" y="1001" type="line"/>
    </contour>
  </outline>
</glyph>
<glyph name="backslash" format="1">
  <advance width="590"/>
  <unicode hex="005C"/>
  <outline>
    <contour>
      <point x="0" y="1556" type="line"/>
      <point x="145" y="1556" type="line"/>
      <point x="590" y="-248" type="line"/>
      <point x="442" y="-248" type="line"/>
    </contour>
  </outline>
</glyph>
<glyph name="asciicircum" format="1">
  <advance width="1145"/>
  <unicode hex="005E"/>
  <outline>
    <contour>
      <point x="526" y="1462" type="line"/>
      <point x="614" y="1462" type="line"/>
      <point x="1049" y="537" type="line"/>
      <point x="889" y="537" type="line"/>
      <point x="569" y="1239" type="line"/>
      <point x="254" y="537" type="line"/>
      <point x="94" y="537" type="line"/>
    </contour>
  </outline>
</glyph>
<glyph name="multiply" format="1">
  <advance width="1145"/>
  <unicode hex="00D7"/>
  <outline>
    <contour>
      <point x="571" y="631" type="line"/>
      <point x="270" y="328" type="line"/>
      <point x="166" y="432" type="line"/>
      <point x="467" y="735" type="line"/>
      <point x="166" y="1036" type="line"/>
      <point x="270" y="1139" type="line"/>
      <point x="571" y="838" type="line"/>
      <point x="872" y="1141" type="line"/>
      <point x="977" y="1036" type="line"/>
      <point x="674" y="733" type="line"/>
      <point x="977" y="430" type="line"/>
      <point x="874" y="328" type="line"/>
    </contour>
  </outline>
</glyph>
<glyph name="divide" format="1">
  <advance width="1145"/>
  <unicode hex="00F7"/>
  <outline>
    <contour>
      <point x="459" y="1167"/>
      <point x="471" y="1198"/>
      <point x="492" y="1218" type="curve" smooth="yes"/>
      <point x="512" y="1237"/>
      <point x="541" y="1245"/>
      <point x="573" y="1245" type="curve" smooth="yes"/>
      <point x="605" y="1245"/>
      <point x="634" y="1237"/>
      <point x="655" y="1218" type="curve"/>
      <point x="675" y="1198"/>
      <point x="688" y="1167"/>
      <point x="688" y="1120" type="curve" smooth="yes"/>
      <point x="688" y="1075"/>
      <point x="675" y="1043"/>
      <point x="655" y="1023" type="curve" smooth="yes"/>
      <point x="634" y="1003"/>
      <point x="605" y="995"/>
      <point x="573" y="995" type="curve" smooth="yes"/>
      <point x="508" y="995"/>
      <point x="459" y="1028"/>
      <point x="459" y="1120" type="curve" smooth="yes"/>
    </contour>
    <contour>
      <point x="459" y="391"/>
      <point x="471" y="422"/>
      <point x="492" y="442" type="curve" smooth="yes"/>
      <point x="512" y="461"/>
      <point x="541" y="469"/>
      <point x="573" y="469" type="curve" smooth="yes"/>
      <point x="605" y="469"/>
      <point x="634" y="461"/>
      <point x="655" y="442" type="curve"/>
      <point x="675" y="422"/>
      <point x="688" y="391"/>
      <point x="688" y="344" type="curve" smooth="yes"/>
      <point x="688" y="299"/>
      <point x="675" y="267"/>
      <point x="655" y="247" type="curve" smooth="yes"/>
      <point x="634" y="227"/>
      <point x="605" y="219"/>
      <point x="573" y="219" type="curve" smooth="yes"/>
      <point x="508" y="219"/>
      <point x="459" y="252"/>
      <point x="459" y="344" type="curve" smooth="yes"/>
    </contour>
    <contour>
      <point x="1012" y="659" type="line"/>
      <point x="133" y="659" type="line"/>
      <point x="133" y="805" type="line"/>
      <point x="1012" y="805" type="line"/>
    </contour>
  </outline>
</glyph>
<glyph name="dCandraBinduInverted" format="1">
  <advance width="0"/>
  <unicode hex="0900"/>
  <outline>
    <contour>
      <point x="299" y="1517"/>
      <point x="333" y="1531"/>
      <point x="333" y="1601" type="curve" smooth="yes"/>
      <point x="333" y="1737"/>
      <point x="203" y="1964"/>
      <point x="-56" y="1964" type="curve" smooth="yes"/>
      <point x="-275" y="1964"/>
      <point x="-412" y="1801"/>
      <point x="-412" y="1653" type="curve" smooth="yes"/>
      <point x="-412" y="1581"/>
      <point x="-365" y="1537"/>
      <point x="-270" y="1514" type="curve"/>
      <point x="-225" y="1695"/>
      <point x="-133" y="1781"/>
      <point x="-2" y="1781" type="curve" smooth="yes"/>
      <point x="129" y="1781"/>
      <point x="209" y="1696"/>
      <point x="264" y="1506" type="curve"/>
    </contour>
    <contour>
      <point x="66" y="1444"/>
      <point x="120" y="1498"/>
      <point x="120" y="1564" type="curve" smooth="yes"/>
      <point x="120" y="1630"/>
      <point x="66" y="1685"/>
      <point x="0" y="1685" type="curve" smooth="yes"/>
      <point x="-67" y="1685"/>
      <point x="-122" y="1630"/>
      <point x="-122" y="1564" type="curve" smooth="yes"/>
      <point x="-122" y="1498"/>
      <point x="-67" y="1444"/>
      <point x="0" y="1444" type="curve" smooth="yes"/>
    </contour>
    <contour>
      <point x="0" y="1395" type="move" name="_abvm_nasal"/>
    </contour>
  </outline>
</glyph>
<glyph name="dCandraBindu" format="1">
  <advance width="0"/>
  <unicode hex="0901"/>
  <outline>
    <contour>
      <point x="-67" y="1966"/>
      <point x="-122" y="1912"/>
      <point x="-122" y="1846" type="curve" smooth="yes"/>
      <point x="-122" y="1780"/>
      <point x="-67" y="1725"/>
      <point x="0" y="1725" type="curve" smooth="yes"/>
      <point x="66" y="1725"/>
      <point x="120" y="1780"/>
      <point x="120" y="1846" type="curve" smooth="yes"/>
      <point x="120" y="1912"/>
      <point x="66" y="1966"/>
      <point x="0" y="1966" type="curve" smooth="yes"/>
    </contour>
    <contour>
      <point x="-311" y="1893"/>
      <point x="-345" y="1879"/>
      <point x="-345" y="1809" type="curve" smooth="yes"/>
      <point x="-345" y="1673"/>
      <point x="-215" y="1446"/>
      <point x="44" y="1446" type="curve" smooth="yes"/>
      <point x="263" y="1446"/>
      <point x="400" y="1609"/>
      <point x="400" y="1757" type="curve" smooth="yes"/>
      <point x="400" y="1829"/>
      <point x="353" y="1873"/>
      <point x="258" y="1896" type="curve"/>
      <point x="213" y="1715"/>
      <point x="121" y="1629"/>
      <point x="-10" y="1629" type="curve" smooth="yes"/>
      <point x="-141" y="1629"/>
      <point x="-221" y="1714"/>
      <point x="-276" y="1904" type="curve"/>
    </contour>
    <contour>
      <point x="0" y="1395" type="move" name="_abvm_nasal"/>
    </contour>
  </outline>
</glyph>
<glyph name="dAnusvara" format="1">
  <advance width="0"/>
  <unicode hex="0902"/>
  <outline>
    <contour>
      <point x="-70" y="1690"/>
      <point x="-127" y="1633"/>
      <point x="-127" y="1564" type="curve" smooth="yes"/>
      <point x="-127" y="1495"/>
      <point x="-70" y="1438"/>
      <point x="0" y="1438" type="curve" smooth="yes"/>
      <point x="69" y="1438"/>
      <point x="125" y="1495"/>
      <point x="125" y="1564" type="curve" smooth="yes"/>
      <point x="125" y="1633"/>
      <point x="69" y="1690"/>
      <point x="0" y="1690" type="curve" smooth="yes"/>
    </contour>
    <contour>
      <point x="0" y="1395" type="move" name="_abvm_nasal"/>
    </contour>
  </outline>
</glyph>
<glyph name="dVisarga" format="1">
  <advance width="653"/>
  <unicode hex="0903"/>
  <outline>
    <contour>
      <point x="219" y="1039"/>
      <point x="155" y="974"/>
      <point x="155" y="894" type="curve" smooth="yes"/>
      <point x="155" y="815"/>
      <point x="219" y="750"/>
      <point x="299" y="750" type="curve" smooth="yes"/>
      <point x="378" y="750"/>
      <point x="444" y="815"/>
      <point x="444" y="894" type="curve" smooth="yes"/>
      <point x="444" y="974"/>
      <point x="378" y="1039"/>
      <point x="299" y="1039" type="curve" smooth="yes"/>
    </contour>
    <contour>
      <point x="219" y="392"/>
      <point x="155" y="328"/>
      <point x="155" y="248" type="curve" smooth="yes"/>
      <point x="155" y="169"/>
      <point x="219" y="104"/>
      <point x="299" y="104" type="curve" smooth="yes"/>
      <point x="378" y="104"/>
      <point x="444" y="169"/>
      <point x="444" y="248" type="curve" smooth="yes"/>
      <point x="444" y="328"/>
      <point x="378" y="392"/>
      <point x="299" y="392" type="curve" smooth="yes"/>
    </contour>
  </outline>
</glyph>
<glyph name="dI" format="1">
  <advance width="1096"/>
  <unicode hex="0907"/>
  <outline>
    <contour>
      <point x="882" y="835" type="line"/>
      <point x="902" y="855" type="line"/>
      <point x="902" y="1137" type="line"/>
      <point x="1132" y="1137" type="line"/>
      <point x="1149" y="1160" type="line"/>
      <point x="1096" y="1330" type="line"/>
      <point x="-36" y="1330" type="line"/>
      <point x="-53" y="1307" type="line"/>
      <point x="0" y="1137" type="line"/>
      <point x="668" y="1137" type="line"/>
      <point x="668" y="1046" type="line" smooth="yes"/>
      <point x="668" y="1033"/>
      <point x="661" y="1026"/>
      <point x="648" y="1026" type="curve" smooth="yes"/>
      <point x="327" y="1026" type="line" smooth="yes"/>
      <point x="174" y="1026"/>
      <point x="104" y="962"/>
      <point x="104" y="876" type="curve" smooth="yes"/>
      <point x="104" y="727"/>
      <point x="310" y="492"/>
      <point x="514" y="492" type="curve" smooth="yes"/>
      <point x="589" y="492"/>
      <point x="689" y="524"/>
      <point x="733" y="524" type="curve" smooth="yes"/>
      <point x="756" y="524"/>
      <point x="775" y="515"/>
      <point x="775" y="484" type="curve" smooth="yes"/>
      <point x="775" y="412"/>
      <point x="677" y="332"/>
      <point x="480" y="330" type="curve"/>
      <point x="429" y="402"/>
      <point x="370" y="447"/>
      <point x="293" y="447" type="curve" smooth="yes"/>
      <point x="214" y="447"/>
      <point x="165" y="399"/>
      <point x="165" y="324" type="curve" smooth="yes"/>
      <point x="165" y="214"/>
      <point x="270" y="109"/>
      <point x="457" y="91" type="curve"/>
      <point x="548" y="-147"/>
      <point x="685" y="-233"/>
      <point x="798" y="-233" type="curve" smooth="yes"/>
      <point x="882" y="-233"/>
      <point x="942" y="-186"/>
      <point x="942" y="-115" type="curve" smooth="yes"/>
      <point x="942" y="-77"/>
      <point x="924" y="-39"/>
      <point x="892" y="3" type="curve"/>
      <point x="856" y="-7"/>
      <point x="821" y="-13"/>
      <point x="780" y="-13" type="curve" smooth="yes"/>
      <point x="701" y="-13"/>
      <point x="655" y="9"/>
      <point x="613" y="91" type="curve"/>
      <point x="869" y="111"/>
      <point x="966" y="235"/>
      <point x="966" y="363" type="curve" smooth="yes"/>
      <point x="966" y="528"/>
      <point x="804" y="735"/>
      <point x="653" y="735" type="curve" smooth="yes"/>
      <point x="586" y="735"/>
      <point x="447" y="694"/>
      <point x="398" y="694" type="curve" smooth="yes"/>
      <point x="358" y="694"/>
      <point x="336" y="721"/>
      <point x="336" y="752" type="curve" smooth="yes"/>
      <point x="336" y="805"/>
      <point x="400" y="835"/>
      <point x="489" y="835" type="curve" smooth="yes"/>
    </contour>
    <contour>
      <point x="782" y="1395" type="move" name="abvm_nasal"/>
    </contour>
    <contour>
      <point x="782" y="1325" type="move" name="abvm_matra"/>
    </contour>
    <contour>
      <point x="782" y="1335" type="move" name="abvm_reph"/>
    </contour>
    <contour>
      <point x="548" y="1600" type="move" name="abvm_latin"/>
    </contour>
    <contour>
      <point x="782" y="-19" type="move" name="blwm_matra"/>
    </contour>
    <contour>
      <point x="548" y="-10" type="move" name="blwm_mid"/>
    </contour>
    <contour>
      <point x="548" y="10" type="move" name="blwm_rakar"/>
    </contour>
    <contour>
      <point x="0" y="-23" type="move" name="blwm_nukta"/>
    </contour>
  </outline>
</glyph>
<glyph name="dU" format="1">
  <advance width="1178"/>
  <unicode hex="0909"/>
  <outline>
    <contour>
      <point x="1178" y="1330" type="line"/>
      <point x="-36" y="1330" type="line"/>
      <point x="-53" y="1307" type="line"/>
      <point x="0" y="1137" type="line"/>
      <point x="574" y="1137" type="line" smooth="yes"/>
      <point x="676" y="1137"/>
      <point x="741" y="1095"/>
      <point x="741" y="1002" type="curve" smooth="yes"/>
      <point x="741" y="893"/>
      <point x="653" y="841"/>
      <point x="391" y="828" type="curve"/>
      <point x="375" y="805" type="line"/>
      <point x="477" y="565" type="line"/>
      <point x="585" y="565"/>
      <point x="678" y="581"/>
      <point x="753" y="609" type="curve"/>
      <point x="798" y="570"/>
      <point x="819" y="523"/>
      <point x="819" y="464" type="curve" smooth="yes"/>
      <point x="819" y="329"/>
      <point x="711" y="247"/>
      <point x="579" y="247" type="curve" smooth="yes"/>
      <point x="383" y="247"/>
      <point x="217" y="428"/>
      <point x="156" y="826" type="curve"/>
      <point x="63" y="818"/>
      <point x="39" y="775"/>
      <point x="39" y="706" type="curve" smooth="yes"/>
      <point x="39" y="513"/>
      <point x="226" y="2"/>
      <point x="656" y="2" type="curve" smooth="yes"/>
      <point x="890" y="2"/>
      <point x="1037" y="154"/>
      <point x="1037" y="353" type="curve" smooth="yes"/>
      <point x="1037" y="483"/>
      <point x="974" y="598"/>
      <point x="879" y="681" type="curve"/>
      <point x="947" y="738"/>
      <point x="980" y="813"/>
      <point x="980" y="892" type="curve" smooth="yes"/>
      <point x="980" y="969"/>
      <point x="948" y="1051"/>
      <point x="862" y="1137" type="curve"/>
      <point x="1214" y="1137" type="line"/>
      <point x="1231" y="1160" type="line"/>
    </contour>
    <contour>
      <point x="777" y="1395" type="move" name="abvm_nasal"/>
    </contour>
    <contour>
      <point x="777" y="1325" type="move" name="abvm_matra"/>
    </contour>
    <contour>
      <point x="777" y="1335" type="move" name="abvm_reph"/>
    </contour>
    <contour>
      <point x="589" y="1600" type="move" name="abvm_latin"/>
    </contour>
    <contour>
      <point x="777" y="-19" type="move" name="blwm_matra"/>
    </contour>
    <contour>
      <point x="589" y="-10" type="move" name="blwm_mid"/>
    </contour>
    <contour>
      <point x="589" y="10" type="move" name="blwm_rakar"/>
    </contour>
    <contour>
      <point x="0" y="-23" type="move" name="blwm_nukta"/>
    </contour>
  </outline>
</glyph>
<glyph name="dUu" format="1">
  <advance width="1561"/>
  <unicode hex="090A"/>
  <outline>
    <contour>
      <point x="1597" y="1137" type="line"/>
      <point x="1614" y="1160" type="line"/>
      <point x="1561" y="1330" type="line"/>
      <point x="-36" y="1330" type="line"/>
      <point x="-53" y="1307" type="line"/>
      <point x="0" y="1137" type="line"/>
      <point x="574" y="1137" type="line" smooth="yes"/>
      <point x="676" y="1137"/>
      <point x="741" y="1095"/>
      <point x="741" y="1002" type="curve" smooth="yes"/>
      <point x="741" y="893"/>
      <point x="653" y="841"/>
      <point x="391" y="828" type="curve"/>
      <point x="375" y="805" type="line"/>
      <point x="477" y="565" type="line"/>
      <point x="585" y="565"/>
      <point x="678" y="581"/>
      <point x="753" y="609" type="curve"/>
      <point x="798" y="570"/>
      <point x="819" y="523"/>
      <point x="819" y="464" type="curve" smooth="yes"/>
      <point x="819" y="329"/>
      <point x="711" y="247"/>
      <point x="579" y="247" type="curve" smooth="yes"/>
      <point x="383" y="247"/>
      <point x="217" y="428"/>
      <point x="156" y="826" type="curve"/>
      <point x="63" y="818"/>
      <point x="39" y="775"/>
      <point x="39" y="706" type="curve" smooth="yes"/>
      <point x="39" y="513"/>
      <point x="226" y="2"/>
      <point x="656" y="2" type="curve" smooth="yes"/>
      <point x="890" y="2"/>
      <point x="1037" y="154"/>
      <point x="1037" y="353" type="curve" smooth="yes"/>
      <point x="1037" y="378"/>
      <point x="1035" y="402"/>
      <point x="1030" y="425" type="curve"/>
      <point x="1105" y="540"/>
      <point x="1179" y="605"/>
      <point x="1235" y="605" type="curve" smooth="yes"/>
      <point x="1272" y="605"/>
      <point x="1299" y="576"/>
      <point x="1299" y="505" type="curve" smooth="yes"/>
      <point x="1299" y="382"/>
      <point x="1218" y="265"/>
      <point x="1098" y="213" type="curve"/>
      <point x="1151" y="112"/>
      <point x="1247" y="56"/>
      <point x="1322" y="56" type="curve" smooth="yes"/>
      <point x="1428" y="56"/>
      <point x="1520" y="167"/>
      <point x="1520" y="337" type="curve" smooth="yes"/>
      <point x="1520" y="578"/>
      <point x="1334" y="789"/>
      <point x="1152" y="789" type="curve" smooth="yes"/>
      <point x="1078" y="789"/>
      <point x="1008" y="754"/>
      <point x="911" y="651" type="curve"/>
      <point x="901" y="661"/>
      <point x="890" y="671"/>
      <point x="879" y="681" type="curve"/>
      <point x="947" y="738"/>
      <point x="980" y="813"/>
      <point x="980" y="892" type="curve" smooth="yes"/>
      <point x="980" y="969"/>
      <point x="948" y="1051"/>
      <point x="862" y="1137" type="curve"/>
    </contour>
    <contour>
      <point x="777" y="1395" type="move" name="abvm_nasal"/>
    </contour>
    <contour>
      <point x="777" y="1325" type="move" name="abvm_matra"/>
    </contour>
    <contour>
      <point x="777" y="1335" type="move" name="abvm_reph"/>
    </contour>
    <contour>
      <point x="780" y="1600" type="move" name="abvm_latin"/>
    </contour>
    <contour>
      <point x="777" y="-19" type="move" name="blwm_matra"/>
    </contour>
    <contour>
      <point x="780" y="-10" type="move" name="blwm_mid"/>
    </contour>
    <contour>
      <point x="780" y="10" type="move" name="blwm_rakar"/>
    </contour>
    <contour>
      <point x="0" y="-23" type="move" name="blwm_nukta"/>
    </contour>
  </outline>
</glyph>
<glyph name="dRvocalic" format="1">
  <advance width="1771"/>
  <unicode hex="090B"/>
  <outline>
    <contour>
      <point x="1771" y="1330" type="line"/>
      <point x="-36" y="1330" type="line"/>
      <point x="-53" y="1307" type="line"/>
      <point x="0" y="1137" type="line"/>
      <point x="794" y="1137" type="line"/>
      <point x="794" y="770" type="line"/>
      <point x="525" y="971"/>
      <point x="436" y="1019"/>
      <point x="324" y="1019" type="curve" smooth="yes"/>
      <point x="176" y="1019"/>
      <point x="94" y="934"/>
      <point x="94" y="854" type="curve" smooth="yes"/>
      <point x="94" y="787"/>
      <point x="153" y="729"/>
      <point x="260" y="674" type="curve"/>
      <point x="313" y="743"/>
      <point x="389" y="788"/>
      <point x="466" y="788" type="curve" smooth="yes"/>
      <point x="511" y="788"/>
      <point x="563" y="773"/>
      <point x="712" y="668" type="curve"/>
      <point x="534" y="551"/>
      <point x="376" y="425"/>
      <point x="231" y="296" type="curve"/>
      <point x="231" y="268" type="line"/>
      <point x="428" y="98" type="line"/>
      <point x="552" y="212"/>
      <point x="644" y="292"/>
      <point x="794" y="403" type="curve"/>
      <point x="794" y="-21" type="line"/>
      <point x="1012" y="-57" type="line"/>
      <point x="1034" y="-39" type="line"/>
      <point x="1034" y="507" type="line"/>
      <point x="1166" y="512"/>
      <point x="1289" y="549"/>
      <point x="1382" y="603" type="curve"/>
      <point x="1447" y="510"/>
      <point x="1458" y="465"/>
      <point x="1458" y="429" type="curve" smooth="yes"/>
      <point x="1458" y="337"/>
      <point x="1384" y="284"/>
      <point x="1240" y="270" type="curve"/>
      <point x="1256" y="148"/>
      <point x="1336" y="72"/>
      <point x="1445" y="72" type="curve" smooth="yes"/>
      <point x="1568" y="72"/>
      <point x="1668" y="168"/>
      <point x="1668" y="300" type="curve" smooth="yes"/>
      <point x="1668" y="402"/>
      <point x="1609" y="514"/>
      <point x="1480" y="675" type="curve"/>
      <point x="1532" y="727"/>
      <point x="1557" y="780"/>
      <point x="1557" y="834" type="curve" smooth="yes"/>
      <point x="1557" y="943"/>
      <point x="1456" y="1055"/>
      <point x="1332" y="1055" type="curve" smooth="yes"/>
      <point x="1231" y="1055"/>
      <point x="1193" y="981"/>
      <point x="1193" y="920" type="curve" smooth="yes"/>
      <point x="1193" y="891"/>
      <point x="1202" y="855"/>
      <point x="1234" y="807" type="curve"/>
      <point x="1174" y="766"/>
      <point x="1109" y="739"/>
      <point x="1034" y="724" type="curve"/>
      <point x="1034" y="1137" type="line"/>
      <point x="1807" y="1137" type="line"/>
      <point x="1824" y="1160" type="line"/>
    </contour>
  </outline>
</glyph>
<glyph name="dEcandra" format="1">
  <advance width="1206"/>
  <unicode hex="090D"/>
  <outline>
    <contour>
      <point x="251" y="1893"/>
      <point x="217" y="1879"/>
      <point x="217" y="1809" type="curve" smooth="yes"/>
      <point x="217" y="1673"/>
      <point x="347" y="1446"/>
      <point x="606" y="1446" type="curve" smooth="yes"/>
      <point x="825" y="1446"/>
      <point x="962" y="1609"/>
      <point x="962" y="1757" type="curve" smooth="yes"/>
      <point x="962" y="1829"/>
      <point x="915" y="1873"/>
      <point x="820" y="1896" type="curve"/>
      <point x="775" y="1715"/>
      <point x="683" y="1629"/>
      <point x="552" y="1629" type="curve" smooth="yes"/>
      <point x="421" y="1629"/>
      <point x="341" y="1714"/>
      <point x="286" y="1904" type="curve"/>
    </contour>
    <contour>
      <point x="1206" y="1330" type="line"/>
      <point x="-36" y="1330" type="line"/>
      <point x="-53" y="1307" type="line"/>
      <point x="0" y="1137" type="line"/>
      <point x="123" y="1137" type="line"/>
      <point x="123" y="767" type="line" smooth="yes"/>
      <point x="123" y="507"/>
      <point x="271" y="437"/>
      <point x="686" y="245" type="curve" smooth="yes"/>
      <point x="877" y="156"/>
      <point x="899" y="130"/>
      <point x="899" y="81" type="curve" smooth="yes"/>
      <point x="899" y="22"/>
      <point x="867" y="-28"/>
      <point x="759" y="-79" type="curve"/>
      <point x="804" y="-175"/>
      <point x="880" y="-238"/>
      <point x="960" y="-238" type="curve" smooth="yes"/>
      <point x="1056" y="-238"/>
      <point x="1136" y="-148"/>
      <point x="1136" y="-34" type="curve" smooth="yes"/>
      <point x="1136" y="131"/>
      <point x="968" y="243"/>
      <point x="720" y="377" type="curve" smooth="yes"/>
      <point x="413" y="543"/>
      <point x="363" y="540"/>
      <point x="363" y="651" type="curve" smooth="yes"/>
      <point x="364" y="1137" type="line"/>
      <point x="748" y="1137" type="line"/>
      <point x="748" y="781" type="line" smooth="yes"/>
      <point x="748" y="711"/>
      <point x="709" y="649"/>
      <point x="630" y="621" type="curve"/>
      <point x="693" y="540"/>
      <point x="763" y="484"/>
      <point x="845" y="484" type="curve" smooth="yes"/>
      <point x="932" y="484"/>
      <point x="988" y="547"/>
      <point x="988" y="647" type="curve" smooth="yes"/>
      <point x="988" y="1137" type="line"/>
      <point x="1242" y="1137" type="line"/>
      <point x="1259" y="1160" type="line"/>
    </contour>
    <contour>
      <point x="868" y="1395" type="move" name="abvm_nasal"/>
    </contour>
    <contour>
      <point x="868" y="1325" type="move" name="abvm_matra"/>
    </contour>
    <contour>
      <point x="868" y="1335" type="move" name="abvm_reph"/>
    </contour>
    <contour>
      <point x="603" y="1600" type="move" name="abvm_latin"/>
    </contour>
    <contour>
      <point x="868" y="-19" type="move" name="blwm_matra"/>
    </contour>
    <contour>
      <point x="603" y="-10" type="move" name="blwm_mid"/>
    </contour>
    <contour>
      <point x="603" y="10" type="move" name="blwm_rakar"/>
    </contour>
    <contour>
      <point x="0" y="-23" type="move" name="blwm_nukta"/>
    </contour>
  </outline>
</glyph>
<glyph name="dAi" format="1">
  <advance width="1206"/>
  <unicode hex="0910"/>
  <outline>
    <contour>
      <point x="693" y="540"/>
      <point x="763" y="484"/>
      <point x="845" y="484" type="curve" smooth="yes"/>
      <point x="932" y="484"/>
      <point x="988" y="547"/>
      <point x="988" y="647" type="curve" smooth="yes"/>
      <point x="988" y="1137" type="line"/>
      <point x="1242" y="1137" type="line"/>
      <point x="1259" y="1160" type="line"/>
      <point x="1206" y="1330" type="line"/>
      <point x="913" y="1330" type="line"/>
      <point x="554" y="1796"/>
      <point x="377" y="1932"/>
      <point x="196" y="1932" type="curve" smooth="yes"/>
      <point x="65" y="1932"/>
      <point x="10" y="1861"/>
      <point x="10" y="1793" type="curve" smooth="yes"/>
      <point x="10" y="1711"/>
      <point x="90" y="1624"/>
      <point x="209" y="1588" type="curve"/>
      <point x="236" y="1627"/>
      <point x="283" y="1658"/>
      <point x="349" y="1658" type="curve" smooth="yes"/>
      <point x="441" y="1658"/>
      <point x="520" y="1606"/>
      <point x="744" y="1330" type="curve"/>
      <point x="-36" y="1330" type="line"/>
      <point x="-53" y="1307" type="line"/>
      <point x="0" y="1137" type="line"/>
      <point x="123" y="1137" type="line"/>
      <point x="123" y="767" type="line" smooth="yes"/>
      <point x="123" y="507"/>
      <point x="271" y="437"/>
      <point x="686" y="245" type="curve" smooth="yes"/>
      <point x="877" y="156"/>
      <point x="899" y="130"/>
      <point x="899" y="81" type="curve" smooth="yes"/>
      <point x="899" y="22"/>
      <point x="867" y="-28"/>
      <point x="759" y="-79" type="curve"/>
      <point x="804" y="-175"/>
      <point x="880" y="-238"/>
      <point x="960" y="-238" type="curve" smooth="yes"/>
      <point x="1056" y="-238"/>
      <point x="1136" y="-148"/>
      <point x="1136" y="-34" type="curve" smooth="yes"/>
      <point x="1136" y="131"/>
      <point x="968" y="243"/>
      <point x="720" y="377" type="curve" smooth="yes"/>
      <point x="413" y="543"/>
      <point x="363" y="540"/>
      <point x="363" y="651" type="curve" smooth="yes"/>
      <point x="364" y="1137" type="line"/>
      <point x="748" y="1137" type="line"/>
      <point x="748" y="781" type="line" smooth="yes"/>
      <point x="748" y="711"/>
      <point x="709" y="649"/>
      <point x="630" y="621" type="curve"/>
    </contour>
    <contour>
      <point x="868" y="1395" type="move" name="abvm_nasal"/>
    </contour>
    <contour>
      <point x="868" y="1325" type="move" name="abvm_matra"/>
    </contour>
    <contour>
      <point x="868" y="1335" type="move" name="abvm_reph"/>
    </contour>
    <contour>
      <point x="603" y="1600" type="move" name="abvm_latin"/>
    </contour>
    <contour>
      <point x="868" y="-19" type="move" name="blwm_matra"/>
    </contour>
    <contour>
      <point x="603" y="-10" type="move" name="blwm_mid"/>
    </contour>
    <contour>
      <point x="603" y="10" type="move" name="blwm_rakar"/>
    </contour>
    <contour>
      <point x="0" y="-23" type="move" name="blwm_nukta"/>
    </contour>
  </outline>
</glyph>
<glyph name="dOshort" format="1">
  <advance width="2153"/>
  <unicode hex="0912"/>
  <outline>
    <contour>
      <point x="2153" y="1330" type="line"/>
      <point x="1932" y="1330" type="line"/>
      <point x="1849" y="1559"/>
      <point x="1684" y="1696"/>
      <point x="1399" y="1740" type="curve" smooth="yes"/>
      <point x="1081" y="1791"/>
      <point x="984" y="1834"/>
      <point x="903" y="1956" type="curve"/>
      <point x="875" y="1922"/>
      <point x="865" y="1896"/>
      <point x="865" y="1852" type="curve" smooth="yes"/>
      <point x="865" y="1687"/>
      <point x="1045" y="1521"/>
      <point x="1500" y="1494" type="curve" smooth="yes"/>
      <point x="1687" y="1482"/>
      <point x="1733" y="1461"/>
      <point x="1733" y="1403" type="curve" smooth="yes"/>
      <point x="1733" y="1384"/>
      <point x="1729" y="1358"/>
      <point x="1718" y="1330" type="curve"/>
      <point x="983" y="1330" type="line"/>
      <point x="966" y="1307" type="line"/>
      <point x="1019" y="1137" type="line"/>
      <point x="1182" y="1137" type="line"/>
      <point x="1182" y="917" type="line" smooth="yes"/>
      <point x="1182" y="780"/>
      <point x="1085" y="706"/>
      <point x="954" y="706" type="curve" smooth="yes"/>
      <point x="933" y="706"/>
      <point x="907" y="708"/>
      <point x="879" y="713" type="curve"/>
      <point x="925" y="775"/>
      <point x="942" y="831"/>
      <point x="942" y="906" type="curve" smooth="yes"/>
      <point x="942" y="1151"/>
      <point x="762" y="1335"/>
      <point x="488" y="1335" type="curve" smooth="yes"/>
      <point x="270" y="1335"/>
      <point x="157" y="1219"/>
      <point x="157" y="1108" type="curve" smooth="yes"/>
      <point x="157" y="1011"/>
      <point x="244" y="947"/>
      <point x="383" y="947" type="curve"/>
      <point x="383" y="1082"/>
      <point x="464" y="1184"/>
      <point x="576" y="1184" type="curve" smooth="yes"/>
      <point x="663" y="1184"/>
      <point x="726" y="1123"/>
      <point x="726" y="1028" type="curve" smooth="yes"/>
      <point x="726" y="908"/>
      <point x="624" y="814"/>
      <point x="403" y="800" type="curve"/>
      <point x="388" y="775" type="line"/>
      <point x="493" y="562" type="line"/>
      <point x="583" y="573"/>
      <point x="659" y="589"/>
      <point x="721" y="612" type="curve"/>
      <point x="774" y="569"/>
      <point x="804" y="501"/>
      <point x="804" y="438" type="curve" smooth="yes"/>
      <point x="804" y="329"/>
      <point x="716" y="252"/>
      <point x="583" y="252" type="curve" smooth="yes"/>
      <point x="387" y="252"/>
      <point x="252" y="419"/>
      <point x="194" y="776" type="curve"/>
      <point x="106" y="769"/>
      <point x="79" y="729"/>
      <point x="79" y="660" type="curve" smooth="yes"/>
      <point x="79" y="479"/>
      <point x="264" y="2"/>
      <point x="663" y="2" type="curve" smooth="yes"/>
      <point x="875" y="2"/>
      <point x="1012" y="137"/>
      <point x="1012" y="322" type="curve" smooth="yes"/>
      <point x="1012" y="396"/>
      <point x="990" y="471"/>
      <point x="952" y="537" type="curve"/>
      <point x="1016" y="515"/>
      <point x="1057" y="507"/>
      <point x="1110" y="507" type="curve" smooth="yes"/>
      <point x="1136" y="507"/>
      <point x="1153" y="509"/>
      <point x="1182" y="514" type="curve"/>
      <point x="1182" y="-21" type="line"/>
      <point x="1400" y="-57" type="line"/>
      <point x="1422" y="-39" type="line"/>
      <point x="1422" y="1137" type="line"/>
      <point x="1706" y="1137" type="line"/>
      <point x="1706" y="-21" type="line"/>
      <point x="1924" y="-57" type="line"/>
      <point x="1946" y="-39" type="line"/>
      <point x="1946" y="1137" type="line"/>
      <point x="2189" y="1137" type="line"/>
      <point x="2206" y="1160" type="line"/>
    </contour>
    <contour>
      <point x="1826" y="1395" type="move" name="abvm_nasal"/>
    </contour>
    <contour>
      <point x="1826" y="1325" type="move" name="abvm_matra"/>
    </contour>
    <contour>
      <point x="1826" y="1335" type="move" name="abvm_reph"/>
    </contour>
    <contour>
      <point x="1076" y="1600" type="move" name="abvm_latin"/>
    </contour>
    <contour>
      <point x="1826" y="-19" type="move" name="blwm_matra"/>
    </contour>
    <contour>
      <point x="1076" y="-10" type="move" name="blwm_mid"/>
    </contour>
    <contour>
      <point x="1076" y="10" type="move" name="blwm_rakar"/>
    </contour>
    <contour>
      <point x="0" y="-23" type="move" name="blwm_nukta"/>
    </contour>
  </outline>
</glyph>
<glyph name="dKha" format="1">
  <advance width="1696"/>
  <unicode hex="0916"/>
  <outline>
    <contour>
      <point x="1696" y="1330" type="line"/>
      <point x="-36" y="1330" type="line"/>
      <point x="-53" y="1307" type="line"/>
      <point x="0" y="1137" type="line"/>
      <point x="339" y="1137" type="line"/>
      <point x="369" y="1058"/>
      <point x="383" y="980"/>
      <point x="383" y="910" type="curve" smooth="yes"/>
      <point x="383" y="842"/>
      <point x="370" y="790"/>
      <point x="340" y="751" type="curve"/>
      <point x="292" y="770"/>
      <point x="247" y="779"/>
      <point x="209" y="779" type="curve" smooth="yes"/>
      <point x="126" y="779"/>
      <point x="78" y="738"/>
      <point x="78" y="652" type="curve" smooth="yes"/>
      <point x="78" y="378"/>
      <point x="564" y="-54"/>
      <point x="877" y="-54" type="curve" smooth="yes"/>
      <point x="993" y="-54"/>
      <point x="1046" y="5"/>
      <point x="1063" y="96" type="curve"/>
      <point x="748" y="135"/>
      <point x="512" y="251"/>
      <point x="350" y="433" type="curve"/>
      <point x="537" y="490"/>
      <point x="597" y="630"/>
      <point x="597" y="776" type="curve" smooth="yes"/>
      <point x="597" y="893"/>
      <point x="558" y="1014"/>
      <point x="502" y="1137" type="curve"/>
      <point x="1248" y="1137" type="line"/>
      <point x="1248" y="877" type="line"/>
      <point x="1170" y="948"/>
      <point x="1076" y="986"/>
      <point x="977" y="986" type="curve" smooth="yes"/>
      <point x="805" y="986"/>
      <point x="688" y="873"/>
      <point x="688" y="703" type="curve" smooth="yes"/>
      <point x="688" y="469"/>
      <point x="910" y="256"/>
      <point x="1127" y="256" type="curve" smooth="yes"/>
      <point x="1163" y="256"/>
      <point x="1201" y="262"/>
      <point x="1248" y="278" type="curve"/>
      <point x="1248" y="-21" type="line"/>
      <point x="1466" y="-57" type="line"/>
      <point x="1488" y="-39" type="line"/>
      <point x="1488" y="1137" type="line"/>
      <point x="1732" y="1137" type="line"/>
      <point x="1749" y="1160" type="line"/>
    </contour>
    <contour>
      <point x="1177" y="784"/>
      <point x="1248" y="699"/>
      <point x="1248" y="611" type="curve" smooth="yes"/>
      <point x="1248" y="604" type="line" smooth="yes"/>
      <point x="1248" y="505"/>
      <point x="1176" y="438"/>
      <point x="1075" y="438" type="curve" smooth="yes"/>
      <point x="959" y="438"/>
      <point x="885" y="525"/>
      <point x="885" y="618" type="curve" smooth="yes"/>
      <point x="885" y="709"/>
      <point x="955" y="784"/>
      <point x="1063" y="784" type="curve" smooth="yes"/>
    </contour>
    <contour>
      <point x="1368.0" y="1395.0" type="move" name="abvm_nasal"/>
    </contour>
    <contour>
      <point x="1368.0" y="1325.0" type="move" name="abvm_matra"/>
    </contour>
    <contour>
      <point x="1368.0" y="1335.0" type="move" name="abvm_reph"/>
    </contour>
    <contour>
      <point x="848.0" y="1600.0" type="move" name="abvm_latin"/>
    </contour>
    <contour>
      <point x="1368.0" y="-19.0" type="move" name="blwm_matra"/>
    </contour>
    <contour>
      <point x="848.0" y="-10.0" type="move" name="blwm_mid"/>
    </contour>
    <contour>
      <point x="1337" y="10" type="move" name="blwm_rakar"/>
    </contour>
    <contour>
      <point x="208" y="0" type="move" name="blwm_nukta"/>
    </contour>
  </outline>
</glyph>
<glyph name="dGha" format="1">
  <advance width="1321"/>
  <unicode hex="0918"/>
  <outline>
    <contour>
      <point x="1321" y="1330" type="line"/>
      <point x="-36" y="1330" type="line"/>
      <point x="-53" y="1307" type="line"/>
      <point x="0" y="1137" type="line"/>
      <point x="110" y="1137" type="line"/>
      <point x="100" y="1110"/>
      <point x="95" y="1082"/>
      <point x="95" y="1052" type="curve" smooth="yes"/>
      <point x="95" y="944"/>
      <point x="163" y="823"/>
      <point x="304" y="726" type="curve"/>
      <point x="274" y="675"/>
      <point x="259" y="618"/>
      <point x="259" y="564" type="curve" smooth="yes"/>
      <point x="259" y="374"/>
      <point x="445" y="171"/>
      <point x="707" y="171" type="curve" smooth="yes"/>
      <point x="765" y="171"/>
      <point x="824" y="181"/>
      <point x="894" y="206" type="curve"/>
      <point x="894" y="-21" type="line"/>
      <point x="1112" y="-57" type="line"/>
      <point x="1134" y="-39" type="line"/>
      <point x="1134" y="1137" type="line"/>
      <point x="1357" y="1137" type="line"/>
      <point x="1374" y="1160" type="line"/>
    </contour>
    <contour>
      <point x="894" y="1137" type="line"/>
      <point x="894" y="630" type="line" smooth="yes"/>
      <point x="889" y="449"/>
      <point x="736" y="361"/>
      <point x="608" y="361" type="curve" smooth="yes"/>
      <point x="524" y="361"/>
      <point x="461" y="399"/>
      <point x="461" y="471" type="curve" smooth="yes"/>
      <point x="461" y="559"/>
      <point x="555" y="659"/>
      <point x="757" y="713" type="curve"/>
      <point x="765" y="740" type="line"/>
      <point x="586" y="918" type="line"/>
      <point x="509" y="900"/>
      <point x="443" y="867"/>
      <point x="390" y="824" type="curve"/>
      <point x="350" y="863"/>
      <point x="332" y="904"/>
      <point x="332" y="950" type="curve" smooth="yes"/>
      <point x="332" y="1047"/>
      <point x="413" y="1137"/>
      <point x="544" y="1137" type="curve" smooth="yes"/>
    </contour>
    <contour>
      <point x="1014.0" y="1395.0" type="move" name="abvm_nasal"/>
    </contour>
    <contour>
      <point x="1014.0" y="1325.0" type="move" name="abvm_matra"/>
    </contour>
    <contour>
      <point x="1014.0" y="1335.0" type="move" name="abvm_reph"/>
    </contour>
    <contour>
      <point x="660.0" y="1600.0" type="move" name="abvm_latin"/>
    </contour>
    <contour>
      <point x="1014.0" y="-19.0" type="move" name="blwm_matra"/>
    </contour>
    <contour>
      <point x="539.0" y="-10.0" type="move" name="blwm_mid"/>
    </contour>
    <contour>
      <point x="974.0" y="10.0" type="move" name="blwm_rakar"/>
    </contour>
    <contour>
      <point x="588" y="-23" type="move" name="blwm_nukta"/>
    </contour>
  </outline>
</glyph>
<glyph name="dCa" format="1">
  <advance width="1376"/>
  <unicode hex="091A"/>
  <outline>
    <contour>
      <point x="1376" y="1330" type="line"/>
      <point x="-41" y="1330" type="line"/>
      <point x="-58" y="1307" type="line"/>
      <point x="-5" y="1137" type="line"/>
      <point x="949" y="1137" type="line"/>
      <point x="949" y="660" type="line" smooth="yes"/>
      <point x="949" y="513"/>
      <point x="802" y="383"/>
      <point x="647" y="383" type="curve" smooth="yes"/>
      <point x="544" y="383"/>
      <point x="486" y="440"/>
      <point x="486" y="524" type="curve" smooth="yes"/>
      <point x="486" y="645"/>
      <point x="607" y="760"/>
      <point x="796" y="760" type="curve" smooth="yes"/>
      <point x="827" y="760" type="line"/>
      <point x="844" y="783" type="line"/>
      <point x="791" y="953" type="line"/>
      <point x="77" y="953" type="line"/>
      <point x="60" y="930" type="line"/>
      <point x="113" y="760" type="line"/>
      <point x="311" y="760" type="line"/>
      <point x="286" y="708"/>
      <point x="274" y="666"/>
      <point x="274" y="615" type="curve" smooth="yes"/>
      <point x="274" y="410"/>
      <point x="471" y="201"/>
      <point x="743" y="201" type="curve" smooth="yes"/>
      <point x="805" y="201"/>
      <point x="874" y="212"/>
      <point x="949" y="237" type="curve"/>
      <point x="949" y="-21" type="line"/>
      <point x="1167" y="-57" type="line"/>
      <point x="1189" y="-39" type="line"/>
      <point x="1189" y="1137" type="line"/>
      <point x="1412" y="1137" type="line"/>
      <point x="1429" y="1160" type="line"/>
    </contour>
    <contour>
      <point x="1069" y="1395" type="move" name="abvm_nasal"/>
    </contour>
    <contour>
      <point x="1069" y="1325" type="move" name="abvm_matra"/>
    </contour>
    <contour>
      <point x="1069" y="1335" type="move" name="abvm_reph"/>
    </contour>
    <contour>
      <point x="685" y="1600" type="move" name="abvm_latin"/>
    </contour>
    <contour>
      <point x="1069" y="-19" type="move" name="blwm_matra"/>
    </contour>
    <contour>
      <point x="607" y="-10" type="move" name="blwm_mid"/>
    </contour>
    <contour>
      <point x="1016" y="10" type="move" name="blwm_rakar"/>
    </contour>
    <contour>
      <point x="649" y="-23" type="move" name="blwm_nukta"/>
    </contour>
  </outline>
</glyph>
<glyph name="dCha" format="1">
  <advance width="1431"/>
  <unicode hex="091B"/>
  <outline>
    <contour>
      <point x="1142" y="1137" type="line"/>
      <point x="1467" y="1137" type="line"/>
      <point x="1484" y="1160" type="line"/>
      <point x="1431" y="1330" type="line"/>
      <point x="-36" y="1330" type="line"/>
      <point x="-53" y="1307" type="line"/>
      <point x="0" y="1137" type="line"/>
      <point x="922" y="1137" type="line"/>
      <point x="922" y="1045" type="line"/>
      <point x="837" y="1025"/>
      <point x="775" y="958"/>
      <point x="775" y="842" type="curve" smooth="yes"/>
      <point x="775" y="717"/>
      <point x="848" y="591"/>
      <point x="1021" y="452" type="curve"/>
      <point x="924" y="307"/>
      <point x="773" y="198"/>
      <point x="628" y="198" type="curve" smooth="yes"/>
      <point x="529" y="198"/>
      <point x="481" y="252"/>
      <point x="481" y="313" type="curve" smooth="yes"/>
      <point x="481" y="398"/>
      <point x="567" y="479"/>
      <point x="745" y="506" type="curve"/>
      <point x="754" y="532" type="line"/>
      <point x="586" y="708" type="line"/>
      <point x="508" y="701"/>
      <point x="440" y="675"/>
      <point x="389" y="638" type="curve"/>
      <point x="350" y="662"/>
      <point x="332" y="690"/>
      <point x="332" y="722" type="curve" smooth="yes"/>
      <point x="332" y="797"/>
      <point x="421" y="857"/>
      <point x="604" y="857" type="curve"/>
      <point x="547" y="1020"/>
      <point x="476" y="1057"/>
      <point x="380" y="1057" type="curve" smooth="yes"/>
      <point x="236" y="1057"/>
      <point x="117" y="973"/>
      <point x="117" y="834" type="curve" smooth="yes"/>
      <point x="117" y="723"/>
      <point x="192" y="613"/>
      <point x="306" y="551" type="curve"/>
      <point x="281" y="513"/>
      <point x="269" y="471"/>
      <point x="269" y="423" type="curve" smooth="yes"/>
      <point x="269" y="209"/>
      <point x="499" y="11"/>
      <point x="751" y="11" type="curve" smooth="yes"/>
      <point x="1064" y="11"/>
      <point x="1314" y="318"/>
      <point x="1314" y="625" type="curve" smooth="yes"/>
      <point x="1314" y="799"/>
      <point x="1234" y="921"/>
      <point x="1142" y="990" type="curve"/>
    </contour>
    <contour>
      <point x="1000" y="629"/>
      <point x="975" y="688"/>
      <point x="975" y="744" type="curve" smooth="yes"/>
      <point x="975" y="815"/>
      <point x="1016" y="872"/>
      <point x="1070" y="872" type="curve" smooth="yes"/>
      <point x="1119" y="872"/>
      <point x="1130" y="826"/>
      <point x="1130" y="773" type="curve" smooth="yes"/>
      <point x="1130" y="704"/>
      <point x="1111" y="630"/>
      <point x="1080" y="560" type="curve"/>
    </contour>
    <contour>
      <point x="1022.0" y="1395.0" type="move" name="abvm_nasal"/>
    </contour>
    <contour>
      <point x="1022.0" y="1325.0" type="move" name="abvm_matra"/>
    </contour>
    <contour>
      <point x="1022.0" y="1335.0" type="move" name="abvm_reph"/>
    </contour>
    <contour>
      <point x="715.0" y="1600.0" type="move" name="abvm_latin"/>
    </contour>
    <contour>
      <point x="791.0" y="-104.0" type="move" name="blwm_matra"/>
    </contour>
    <contour>
      <point x="765" y="90" type="move" name="blwm_mid"/>
    </contour>
    <contour>
      <point x="751.0" y="-89.0" type="move" name="blwm_rakar"/>
    </contour>
    <contour>
      <point x="751.0" y="-215.0" type="move" name="blwm_nukta"/>
    </contour>
  </outline>
</glyph>
<glyph name="dJha" format="1">
  <advance width="1557"/>
  <unicode hex="091D"/>
  <outline>
    <contour>
      <point x="1610" y="1160" type="line"/>
      <point x="1557" y="1330" type="line"/>
      <point x="-39" y="1330" type="line"/>
      <point x="-56" y="1307" type="line"/>
      <point x="-3" y="1137" type="line"/>
      <point x="615" y="1137" type="line"/>
      <point x="615" y="1046" type="line" smooth="yes"/>
      <point x="615" y="1033"/>
      <point x="608" y="1026"/>
      <point x="595" y="1026" type="curve" smooth="yes"/>
      <point x="324" y="1026" type="line" smooth="yes"/>
      <point x="171" y="1026"/>
      <point x="101" y="962"/>
      <point x="101" y="876" type="curve" smooth="yes"/>
      <point x="101" y="727"/>
      <point x="307" y="492"/>
      <point x="511" y="492" type="curve" smooth="yes"/>
      <point x="580" y="492"/>
      <point x="670" y="524"/>
      <point x="710" y="524" type="curve" smooth="yes"/>
      <point x="733" y="524"/>
      <point x="752" y="515"/>
      <point x="752" y="484" type="curve" smooth="yes"/>
      <point x="752" y="412"/>
      <point x="654" y="332"/>
      <point x="457" y="330" type="curve"/>
      <point x="406" y="402"/>
      <point x="347" y="447"/>
      <point x="270" y="447" type="curve" smooth="yes"/>
      <point x="191" y="447"/>
      <point x="142" y="399"/>
      <point x="142" y="324" type="curve" smooth="yes"/>
      <point x="142" y="214"/>
      <point x="247" y="109"/>
      <point x="434" y="91" type="curve"/>
      <point x="525" y="-147"/>
      <point x="662" y="-233"/>
      <point x="775" y="-233" type="curve" smooth="yes"/>
      <point x="859" y="-233"/>
      <point x="919" y="-186"/>
      <point x="919" y="-115" type="curve" smooth="yes"/>
      <point x="919" y="-77"/>
      <point x="901" y="-39"/>
      <point x="869" y="3" type="curve"/>
      <point x="833" y="-7"/>
      <point x="798" y="-13"/>
      <point x="757" y="-13" type="curve" smooth="yes"/>
      <point x="678" y="-13"/>
      <point x="632" y="9"/>
      <point x="590" y="91" type="curve"/>
      <point x="846" y="111"/>
      <point x="943" y="235"/>
      <point x="943" y="363" type="curve" smooth="yes"/>
      <point x="943" y="409"/>
      <point x="931" y="458"/>
      <point x="909" y="505" type="curve"/>
      <point x="965" y="484"/>
      <point x="1021" y="473"/>
      <point x="1073" y="473" type="curve" smooth="yes"/>
      <point x="1093" y="473"/>
      <point x="1113" y="475"/>
      <point x="1129" y="478" type="curve"/>
      <point x="1129" y="-21" type="line"/>
      <point x="1347" y="-57" type="line"/>
      <point x="1369" y="-39" type="line"/>
      <point x="1369" y="1137" type="line"/>
      <point x="1593" y="1137" type="line"/>
    </contour>
    <contour>
      <point x="1129" y="1137" type="line"/>
      <point x="1129" y="867" type="line" smooth="yes"/>
      <point x="1129" y="730"/>
      <point x="1031" y="656"/>
      <point x="904" y="656" type="curve" smooth="yes"/>
      <point x="865" y="656"/>
      <point x="820" y="663"/>
      <point x="771" y="681" type="curve"/>
      <point x="727" y="714"/>
      <point x="678" y="735"/>
      <point x="630" y="735" type="curve" smooth="yes"/>
      <point x="569" y="735"/>
      <point x="440" y="694"/>
      <point x="395" y="694" type="curve" smooth="yes"/>
      <point x="355" y="694"/>
      <point x="333" y="721"/>
      <point x="333" y="752" type="curve" smooth="yes"/>
      <point x="333" y="805"/>
      <point x="397" y="835"/>
      <point x="486" y="835" type="curve" smooth="yes"/>
      <point x="829" y="835" type="line"/>
      <point x="849" y="855" type="line"/>
      <point x="849" y="1137" type="line"/>
    </contour>
    <contour>
      <point x="1249" y="1395" type="move" name="abvm_nasal"/>
    </contour>
    <contour>
      <point x="1249" y="1325" type="move" name="abvm_matra"/>
    </contour>
    <contour>
      <point x="1249" y="1335" type="move" name="abvm_reph"/>
    </contour>
    <contour>
      <point x="777" y="1600" type="move" name="abvm_latin"/>
    </contour>
    <contour>
      <point x="1249" y="-19" type="move" name="blwm_matra"/>
    </contour>
    <contour>
      <point x="777" y="-10" type="move" name="blwm_mid"/>
    </contour>
    <contour>
      <point x="1279" y="10" type="move" name="blwm_rakar"/>
    </contour>
    <contour>
      <point x="270" y="-83" type="move" name="blwm_nukta"/>
    </contour>
  </outline>
</glyph>
<glyph name="dNya" format="1">
  <advance width="1601"/>
  <unicode hex="091E"/>
  <outline>
    <contour>
      <point x="1601" y="1330" type="line"/>
      <point x="-36" y="1330" type="line"/>
      <point x="-53" y="1307" type="line"/>
      <point x="0" y="1137" type="line"/>
      <point x="1174" y="1137" type="line"/>
      <point x="1174" y="787" type="line" smooth="yes"/>
      <point x="1174" y="677"/>
      <point x="1096" y="646"/>
      <point x="1028" y="646" type="curve" smooth="yes"/>
      <point x="1011" y="646"/>
      <point x="992" y="648"/>
      <point x="973" y="655" type="curve"/>
      <point x="901" y="848"/>
      <point x="716" y="994"/>
      <point x="536" y="994" type="curve" smooth="yes"/>
      <point x="404" y="994"/>
      <point x="331" y="916"/>
      <point x="331" y="837" type="curve" smooth="yes"/>
      <point x="331" y="769"/>
      <point x="386" y="686"/>
      <point x="512" y="663" type="curve"/>
      <point x="551" y="729"/>
      <point x="605" y="767"/>
      <point x="676" y="767" type="curve" smooth="yes"/>
      <point x="748" y="767"/>
      <point x="795" y="727"/>
      <point x="795" y="627" type="curve" smooth="yes"/>
      <point x="795" y="494"/>
      <point x="710" y="367"/>
      <point x="549" y="367" type="curve" smooth="yes"/>
      <point x="370" y="367"/>
      <point x="240" y="523"/>
      <point x="183" y="860" type="curve"/>
      <point x="94" y="860"/>
      <point x="71" y="817"/>
      <point x="71" y="742" type="curve" smooth="yes"/>
      <point x="71" y="526"/>
      <point x="260" y="145"/>
      <point x="640" y="145" type="curve" smooth="yes"/>
      <point x="880" y="145"/>
      <point x="994" y="297"/>
      <point x="1002" y="486" type="curve"/>
      <point x="1055" y="447"/>
      <point x="1110" y="423"/>
      <point x="1171" y="423" type="curve" smooth="yes"/>
      <point x="1174" y="423" type="line"/>
      <point x="1174" y="-21" type="line"/>
      <point x="1392" y="-57" type="line"/>
      <point x="1414" y="-39" type="line"/>
      <point x="1414" y="1137" type="line"/>
      <point x="1637" y="1137" type="line"/>
      <point x="1654" y="1160" type="line"/>
    </contour>
    <contour>
      <point x="1294" y="1395" type="move" name="abvm_nasal"/>
    </contour>
    <contour>
      <point x="1294" y="1325" type="move" name="abvm_matra"/>
    </contour>
    <contour>
      <point x="1294" y="1335" type="move" name="abvm_reph"/>
    </contour>
    <contour>
      <point x="800" y="1600" type="move" name="abvm_latin"/>
    </contour>
    <contour>
      <point x="1294" y="-19" type="move" name="blwm_matra"/>
    </contour>
    <contour>
      <point x="800" y="-10" type="move" name="blwm_mid"/>
    </contour>
    <contour>
      <point x="1241" y="10" type="move" name="blwm_rakar"/>
    </contour>
    <contour>
      <point x="539" y="-73" type="move" name="blwm_nukta"/>
    </contour>
  </outline>
</glyph>
<glyph name="dTta" format="1">
  <advance width="1068"/>
  <unicode hex="091F"/>
  <outline>
    <contour>
      <point x="1068" y="1330" type="line"/>
      <point x="-36" y="1330" type="line"/>
      <point x="-53" y="1307" type="line"/>
      <point x="0" y="1137" type="line"/>
      <point x="638" y="1137" type="line"/>
      <point x="638" y="987" type="line" smooth="yes"/>
      <point x="638" y="974"/>
      <point x="631" y="967"/>
      <point x="618" y="967" type="curve" smooth="yes"/>
      <point x="507" y="967" type="line" smooth="yes"/>
      <point x="215" y="967"/>
      <point x="51" y="804"/>
      <point x="51" y="587" type="curve" smooth="yes"/>
      <point x="51" y="298"/>
      <point x="343" y="31"/>
      <point x="655" y="31" type="curve" smooth="yes"/>
      <point x="855" y="31"/>
      <point x="1006" y="141"/>
      <point x="1006" y="261" type="curve" smooth="yes"/>
      <point x="1006" y="346"/>
      <point x="931" y="416"/>
      <point x="851" y="435" type="curve"/>
      <point x="802" y="316"/>
      <point x="662" y="232"/>
      <point x="523" y="232" type="curve" smooth="yes"/>
      <point x="385" y="232"/>
      <point x="279" y="314"/>
      <point x="279" y="462" type="curve" smooth="yes"/>
      <point x="279" y="629"/>
      <point x="415" y="759"/>
      <point x="643" y="759" type="curve" smooth="yes"/>
      <point x="852" y="759" type="line"/>
      <point x="872" y="779" type="line"/>
      <point x="872" y="1137" type="line"/>
      <point x="1104" y="1137" type="line"/>
      <point x="1121" y="1160" type="line"/>
    </contour>
    <contour>
      <point x="752.0" y="1395.0" type="move" name="abvm_nasal"/>
    </contour>
    <contour>
      <point x="752.0" y="1325.0" type="move" name="abvm_matra"/>
    </contour>
    <contour>
      <point x="752.0" y="1335.0" type="move" name="abvm_reph"/>
    </contour>
    <contour>
      <point x="534.0" y="1600.0" type="move" name="abvm_latin"/>
    </contour>
    <contour>
      <point x="696" y="-84" type="move" name="blwm_matra"/>
    </contour>
    <contour>
      <point x="605" y="70" type="move" name="blwm_mid"/>
    </contour>
    <contour>
      <point x="654.0" y="-70.0" type="move" name="blwm_rakar"/>
    </contour>
    <contour>
      <point x="608" y="-189" type="move" name="blwm_nukta"/>
    </contour>
  </outline>
</glyph>
<glyph name="dDda" format="1">
  <advance width="1112"/>
  <unicode hex="0921"/>
  <outline>
    <contour>
      <point x="1112" y="1330" type="line"/>
      <point x="-36" y="1330" type="line"/>
      <point x="-53" y="1307" type="line"/>
      <point x="0" y="1137" type="line"/>
      <point x="708" y="1137" type="line"/>
      <point x="708" y="1046" type="line" smooth="yes"/>
      <point x="708" y="1033"/>
      <point x="701" y="1026"/>
      <point x="688" y="1026" type="curve" smooth="yes"/>
      <point x="357" y="1026" type="line" smooth="yes"/>
      <point x="218" y="1026"/>
      <point x="154" y="968"/>
      <point x="154" y="879" type="curve" smooth="yes"/>
      <point x="154" y="714"/>
      <point x="376" y="482"/>
      <point x="580" y="482" type="curve" smooth="yes"/>
      <point x="635" y="482"/>
      <point x="739" y="499"/>
      <point x="773" y="499" type="curve" smooth="yes"/>
      <point x="822" y="499"/>
      <point x="836" y="465"/>
      <point x="836" y="430" type="curve" smooth="yes"/>
      <point x="836" y="338"/>
      <point x="742" y="270"/>
      <point x="615" y="270" type="curve" smooth="yes"/>
      <point x="444" y="270"/>
      <point x="268" y="393"/>
      <point x="143" y="636" type="curve"/>
      <point x="99" y="619"/>
      <point x="67" y="589"/>
      <point x="71" y="535" type="curve" smooth="yes"/>
      <point x="81" y="398"/>
      <point x="324" y="39"/>
      <point x="694" y="39" type="curve" smooth="yes"/>
      <point x="886" y="39"/>
      <point x="1020" y="136"/>
      <point x="1020" y="319" type="curve" smooth="yes"/>
      <point x="1020" y="517"/>
      <point x="863" y="716"/>
      <point x="691" y="716" type="curve" smooth="yes"/>
      <point x="647" y="716"/>
      <point x="529" y="703"/>
      <point x="478" y="703" type="curve" smooth="yes"/>
      <point x="402" y="703"/>
      <point x="376" y="731"/>
      <point x="376" y="768" type="curve" smooth="yes"/>
      <point x="376" y="826"/>
      <point x="440" y="855"/>
      <point x="519" y="855" type="curve" smooth="yes"/>
      <point x="922" y="855" type="line"/>
      <point x="942" y="875" type="line"/>
      <point x="942" y="1137" type="line"/>
      <point x="1148" y="1137" type="line"/>
      <point x="1165" y="1160" type="line"/>
    </contour>
    <contour>
      <point x="822" y="1395" type="move" name="abvm_nasal"/>
    </contour>
    <contour>
      <point x="822" y="1325" type="move" name="abvm_matra"/>
    </contour>
    <contour>
      <point x="822" y="1335" type="move" name="abvm_reph"/>
    </contour>
    <contour>
      <point x="556" y="1600" type="move" name="abvm_latin"/>
    </contour>
    <contour>
      <point x="735" y="-74" type="move" name="blwm_matra"/>
    </contour>
    <contour>
      <point x="636" y="90" type="move" name="blwm_mid"/>
    </contour>
    <contour>
      <point x="694" y="-59" type="move" name="blwm_rakar"/>
    </contour>
    <contour>
      <point x="643" y="-183" type="move" name="blwm_nukta"/>
    </contour>
  </outline>
</glyph>
<glyph name="dTha" format="1">
  <advance width="1406"/>
  <unicode hex="0925"/>
  <outline>
    <contour>
      <point x="187" y="1387"/>
      <point x="83" y="1315"/>
      <point x="83" y="1182" type="curve" smooth="yes"/>
      <point x="83" y="1014"/>
      <point x="249" y="886"/>
      <point x="364" y="886" type="curve" smooth="yes"/>
      <point x="417" y="886"/>
      <point x="448" y="913"/>
      <point x="464" y="932" type="curve"/>
      <point x="356" y="969"/>
      <point x="313" y="1026"/>
      <point x="313" y="1086" type="curve" smooth="yes"/>
      <point x="313" y="1154"/>
      <point x="368" y="1200"/>
      <point x="440" y="1200" type="curve" smooth="yes"/>
      <point x="517" y="1200"/>
      <point x="550" y="1146"/>
      <point x="550" y="1064" type="curve" smooth="yes"/>
      <point x="550" y="909"/>
      <point x="433" y="791"/>
      <point x="168" y="714" type="curve"/>
      <point x="156" y="688" type="line"/>
      <point x="333" y="343"/>
      <point x="600" y="181"/>
      <point x="833" y="181" type="curve" smooth="yes"/>
      <point x="881" y="181"/>
      <point x="922" y="188"/>
      <point x="979" y="210" type="curve"/>
      <point x="979" y="-21" type="line"/>
      <point x="1196" y="-57" type="line"/>
      <point x="1218" y="-39" type="line"/>
      <point x="1218" y="1137" type="line"/>
      <point x="1442" y="1137" type="line"/>
      <point x="1459" y="1160" type="line"/>
      <point x="1406" y="1330" type="line"/>
      <point x="769" y="1330" type="line"/>
      <point x="752" y="1307" type="line"/>
      <point x="805" y="1137" type="line"/>
      <point x="979" y="1137" type="line"/>
      <point x="979" y="680" type="line" smooth="yes"/>
      <point x="979" y="512"/>
      <point x="843" y="401"/>
      <point x="679" y="401" type="curve" smooth="yes"/>
      <point x="577" y="401"/>
      <point x="488" y="444"/>
      <point x="419" y="529" type="curve"/>
      <point x="657" y="614"/>
      <point x="770" y="751"/>
      <point x="770" y="923" type="curve" smooth="yes"/>
      <point x="770" y="1166"/>
      <point x="547" y="1387"/>
      <point x="318" y="1387" type="curve" smooth="yes"/>
    </contour>
    <contour>
      <point x="1098" y="1395" type="move" name="abvm_nasal"/>
    </contour>
    <contour>
      <point x="1098" y="1325" type="move" name="abvm_matra"/>
    </contour>
    <contour>
      <point x="1098" y="1335" type="move" name="abvm_reph"/>
    </contour>
    <contour>
      <point x="705" y="1600" type="move" name="abvm_latin"/>
    </contour>
    <contour>
      <point x="1098" y="-19" type="move" name="blwm_matra"/>
    </contour>
    <contour>
      <point x="647" y="-10" type="move" name="blwm_mid"/>
    </contour>
    <contour>
      <point x="1044" y="10" type="move" name="blwm_rakar"/>
    </contour>
    <contour>
      <point x="418" y="77" type="move" name="blwm_nukta"/>
    </contour>
  </outline>
</glyph>
<glyph name="dDa" format="1">
  <advance width="1088"/>
  <unicode hex="0926"/>
  <outline>
    <contour>
      <point x="852" y="759" type="line"/>
      <point x="872" y="779" type="line"/>
      <point x="872" y="1137" type="line"/>
      <point x="1124" y="1137" type="line"/>
      <point x="1141" y="1160" type="line"/>
      <point x="1088" y="1330" type="line"/>
      <point x="-36" y="1330" type="line"/>
      <point x="-53" y="1307" type="line"/>
      <point x="0" y="1137" type="line"/>
      <point x="638" y="1137" type="line"/>
      <point x="638" y="986" type="line" smooth="yes"/>
      <point x="638" y="973"/>
      <point x="631" y="966"/>
      <point x="618" y="966" type="curve" smooth="yes"/>
      <point x="512" y="966" type="line" smooth="yes"/>
      <point x="194" y="966"/>
      <point x="57" y="791"/>
      <point x="57" y="583" type="curve" smooth="yes"/>
      <point x="57" y="286"/>
      <point x="335" y="31"/>
      <point x="645" y="31" type="curve" smooth="yes"/>
      <point x="723" y="31"/>
      <point x="784" y="47"/>
      <point x="833" y="69" type="curve"/>
      <point x="857" y="35"/>
      <point x="864" y="12"/>
      <point x="864" y="-14" type="curve" smooth="yes"/>
      <point x="864" y="-75"/>
      <point x="824" y="-105"/>
      <point x="735" y="-128" type="curve"/>
      <point x="756" y="-227"/>
      <point x="817" y="-292"/>
      <point x="903" y="-292" type="curve" smooth="yes"/>
      <point x="992" y="-292"/>
      <point x="1058" y="-222"/>
      <point x="1058" y="-138" type="curve" smooth="yes"/>
      <point x="1058" y="-79"/>
      <point x="1025" y="4"/>
      <point x="924" y="133" type="curve"/>
      <point x="959" y="170"/>
      <point x="985" y="222"/>
      <point x="985" y="280" type="curve" smooth="yes"/>
      <point x="985" y="389"/>
      <point x="894" y="499"/>
      <point x="774" y="499" type="curve" smooth="yes"/>
      <point x="685" y="499"/>
      <point x="629" y="438"/>
      <point x="629" y="364" type="curve" smooth="yes"/>
      <point x="629" y="325"/>
      <point x="644" y="291"/>
      <point x="676" y="253" type="curve"/>
      <point x="629" y="232"/>
      <point x="569" y="219"/>
      <point x="518" y="219" type="curve" smooth="yes"/>
      <point x="386" y="219"/>
      <point x="279" y="305"/>
      <point x="279" y="458" type="curve" smooth="yes"/>
      <point x="279" y="630"/>
      <point x="414" y="759"/>
      <point x="643" y="759" type="curve" smooth="yes"/>
    </contour>
    <contour>
      <point x="752" y="1395" type="move" name="abvm_nasal"/>
    </contour>
    <contour>
      <point x="752" y="1325" type="move" name="abvm_matra"/>
    </contour>
    <contour>
      <point x="752" y="1335" type="move" name="abvm_reph"/>
    </contour>
    <contour>
      <point x="544" y="1600" type="move" name="abvm_latin"/>
    </contour>
    <contour>
      <point x="900" y="-147" type="move" name="blwm_matra"/>
    </contour>
    <contour>
      <point x="614" y="-209" type="move" name="blwm_mid"/>
    </contour>
    <contour>
      <point x="871" y="-131" type="move" name="blwm_rakar"/>
    </contour>
    <contour>
      <point x="508" y="-183" type="move" name="blwm_nukta"/>
    </contour>
  </outline>
</glyph>
<glyph name="dDha" format="1">
  <advance width="1322"/>
  <unicode hex="0927"/>
  <outline>
    <contour>
      <point x="1375" y="1160" type="line"/>
      <point x="1322" y="1330" type="line"/>
      <point x="685" y="1330" type="line"/>
      <point x="668" y="1307" type="line"/>
      <point x="721" y="1137" type="line"/>
      <point x="895" y="1137" type="line"/>
      <point x="895" y="610" type="line" smooth="yes"/>
      <point x="895" y="461"/>
      <point x="753" y="351"/>
      <point x="604" y="351" type="curve" smooth="yes"/>
      <point x="509" y="351"/>
      <point x="452" y="396"/>
      <point x="452" y="468" type="curve" smooth="yes"/>
      <point x="452" y="565"/>
      <point x="557" y="680"/>
      <point x="755" y="715" type="curve"/>
      <point x="765" y="741" type="line"/>
      <point x="587" y="918" type="line"/>
      <point x="514" y="910"/>
      <point x="449" y="887"/>
      <point x="396" y="852" type="curve"/>
      <point x="316" y="917"/>
      <point x="283" y="984"/>
      <point x="283" y="1051" type="curve" smooth="yes"/>
      <point x="283" y="1131"/>
      <point x="330" y="1189"/>
      <point x="392" y="1189" type="curve" smooth="yes"/>
      <point x="453" y="1189"/>
      <point x="490" y="1131"/>
      <point x="490" y="1037" type="curve"/>
      <point x="531" y="1037"/>
      <point x="578" y="1062"/>
      <point x="578" y="1141" type="curve" smooth="yes"/>
      <point x="578" y="1262"/>
      <point x="469" y="1387"/>
      <point x="299" y="1387" type="curve" smooth="yes"/>
      <point x="142" y="1387"/>
      <point x="47" y="1281"/>
      <point x="47" y="1146" type="curve" smooth="yes"/>
      <point x="47" y="1007"/>
      <point x="149" y="866"/>
      <point x="299" y="765" type="curve"/>
      <point x="261" y="709"/>
      <point x="240" y="644"/>
      <point x="240" y="576" type="curve" smooth="yes"/>
      <point x="240" y="349"/>
      <point x="470" y="161"/>
      <point x="736" y="161" type="curve" smooth="yes"/>
      <point x="791" y="161"/>
      <point x="846" y="169"/>
      <point x="895" y="188" type="curve"/>
      <point x="895" y="-21" type="line"/>
      <point x="1113" y="-57" type="line"/>
      <point x="1135" y="-39" type="line"/>
      <point x="1135" y="1137" type="line"/>
      <point x="1358" y="1137" type="line"/>
    </contour>
    <contour>
      <point x="1015" y="1395" type="move" name="abvm_nasal"/>
    </contour>
    <contour>
      <point x="1015" y="1325" type="move" name="abvm_matra"/>
    </contour>
    <contour>
      <point x="1015" y="1335" type="move" name="abvm_reph"/>
    </contour>
    <contour>
      <point x="659" y="1600" type="move" name="abvm_latin"/>
    </contour>
    <contour>
      <point x="1015" y="-19" type="move" name="blwm_matra"/>
    </contour>
    <contour>
      <point x="548" y="-10" type="move" name="blwm_mid"/>
    </contour>
    <contour>
      <point x="960" y="10" type="move" name="blwm_rakar"/>
    </contour>
    <contour>
      <point x="601" y="-23" type="move" name="blwm_nukta"/>
    </contour>
  </outline>
</glyph>
<glyph name="dNa" format="1">
  <advance width="1181"/>
  <unicode hex="0928"/>
  <outline>
    <contour>
      <point x="1181" y="1330" type="line"/>
      <point x="-36" y="1330" type="line"/>
      <point x="-53" y="1307" type="line"/>
      <point x="0" y="1137" type="line"/>
      <point x="754" y="1137" type="line"/>
      <point x="754" y="863" type="line"/>
      <point x="236" y="863" type="line" smooth="yes"/>
      <point x="136" y="863"/>
      <point x="45" y="848"/>
      <point x="45" y="765" type="curve" smooth="yes"/>
      <point x="45" y="635"/>
      <point x="266" y="424"/>
      <point x="364" y="424" type="curve" smooth="yes"/>
      <point x="397" y="424"/>
      <point x="428" y="447"/>
      <point x="428" y="503" type="curve" smooth="yes"/>
      <point x="428" y="658" type="line"/>
      <point x="754" y="658" type="line"/>
      <point x="754" y="-21" type="line"/>
      <point x="972" y="-57" type="line"/>
      <point x="994" y="-39" type="line"/>
      <point x="994" y="1137" type="line"/>
      <point x="1217" y="1137" type="line"/>
      <point x="1234" y="1160" type="line"/>
    </contour>
    <contour>
      <point x="874.0" y="1395.0" type="move" name="abvm_nasal"/>
    </contour>
    <contour>
      <point x="874.0" y="1325.0" type="move" name="abvm_matra"/>
    </contour>
    <contour>
      <point x="874.0" y="1335.0" type="move" name="abvm_reph"/>
    </contour>
    <contour>
      <point x="590.0" y="1600.0" type="move" name="abvm_latin"/>
    </contour>
    <contour>
      <point x="874.0" y="-19.0" type="move" name="blwm_matra"/>
    </contour>
    <contour>
      <point x="426" y="-10" type="move" name="blwm_mid"/>
    </contour>
    <contour>
      <point x="826.0" y="10.0" type="move" name="blwm_rakar"/>
    </contour>
    <contour>
      <point x="429.0" y="77.0" type="move" name="blwm_nukta"/>
    </contour>
  </outline>
</glyph>
<glyph name="dPha" format="1">
  <advance width="1560"/>
  <unicode hex="092B"/>
  <outline>
    <contour>
      <point x="1560" y="1330" type="line"/>
      <point x="-36" y="1330" type="line"/>
      <point x="-53" y="1307" type="line"/>
      <point x="0" y="1137" type="line"/>
      <point x="129" y="1137" type="line"/>
      <point x="129" y="745" type="line" smooth="yes"/>
      <point x="129" y="506"/>
      <point x="341" y="301"/>
      <point x="562" y="301" type="curve" smooth="yes"/>
      <point x="600" y="301"/>
      <point x="633" y="307"/>
      <point x="684" y="325" type="curve"/>
      <point x="684" y="-21" type="line"/>
      <point x="892" y="-57" type="line"/>
      <point x="914" y="-39" type="line"/>
      <point x="914" y="518" type="line" smooth="yes"/>
      <point x="914" y="659"/>
      <point x="1042" y="755"/>
      <point x="1153" y="755" type="curve" smooth="yes"/>
      <point x="1230" y="755"/>
      <point x="1261" y="708"/>
      <point x="1261" y="634" type="curve" smooth="yes"/>
      <point x="1261" y="513"/>
      <point x="1177" y="361"/>
      <point x="1047" y="293" type="curve"/>
      <point x="1107" y="206"/>
      <point x="1181" y="170"/>
      <point x="1243" y="170" type="curve" smooth="yes"/>
      <point x="1349" y="170"/>
      <point x="1466" y="278"/>
      <point x="1466" y="496" type="curve" smooth="yes"/>
      <point x="1466" y="773"/>
      <point x="1277" y="942"/>
      <point x="1073" y="942" type="curve" smooth="yes"/>
      <point x="1019" y="942"/>
      <point x="971" y="930"/>
      <point x="914" y="899" type="curve"/>
      <point x="914" y="1137" type="line"/>
      <point x="1596" y="1137" type="line"/>
      <point x="1613" y="1160" type="line"/>
    </contour>
    <contour>
      <point x="684" y="1137" type="line"/>
      <point x="684" y="740" type="line" smooth="yes"/>
      <point x="684" y="601"/>
      <point x="566" y="488"/>
      <point x="459" y="488" type="curve" smooth="yes"/>
      <point x="391" y="488"/>
      <point x="359" y="533"/>
      <point x="359" y="620" type="curve" smooth="yes"/>
      <point x="359" y="1137" type="line"/>
    </contour>
    <contour>
      <point x="794.0" y="1395.0" type="move" name="abvm_nasal"/>
    </contour>
    <contour>
      <point x="794.0" y="1325.0" type="move" name="abvm_matra"/>
    </contour>
    <contour>
      <point x="794.0" y="1335.0" type="move" name="abvm_reph"/>
    </contour>
    <contour>
      <point x="780.0" y="1600.0" type="move" name="abvm_latin"/>
    </contour>
    <contour>
      <point x="794.0" y="-19.0" type="move" name="blwm_matra"/>
    </contour>
    <contour>
      <point x="780.0" y="-10.0" type="move" name="blwm_mid"/>
    </contour>
    <contour>
      <point x="780.0" y="10.0" type="move" name="blwm_rakar"/>
    </contour>
    <contour>
      <point x="426.0" y="77.0" type="move" name="blwm_nukta"/>
    </contour>
  </outline>
</glyph>
<glyph name="dBa" format="1">
  <advance width="1230"/>
  <unicode hex="092C"/>
  <outline>
    <contour>
      <point x="1230" y="1330" type="line"/>
      <point x="-36" y="1330" type="line"/>
      <point x="-53" y="1307" type="line"/>
      <point x="0" y="1137" type="line"/>
      <point x="813" y="1137" type="line"/>
      <point x="813" y="869" type="line"/>
      <point x="707" y="960"/>
      <point x="589" y="997"/>
      <point x="475" y="997" type="curve" smooth="yes"/>
      <point x="254" y="997"/>
      <point x="89" y="859"/>
      <point x="89" y="658" type="curve" smooth="yes"/>
      <point x="89" y="403"/>
      <point x="355" y="179"/>
      <point x="606" y="179" type="curve" smooth="yes"/>
      <point x="666" y="179"/>
      <point x="738" y="192"/>
      <point x="813" y="224" type="curve"/>
      <point x="813" y="-21" type="line"/>
      <point x="1021" y="-57" type="line"/>
      <point x="1043" y="-39" type="line"/>
      <point x="1043" y="1137" type="line"/>
      <point x="1266" y="1137" type="line"/>
      <point x="1283" y="1160" type="line"/>
    </contour>
    <contour>
      <point x="813" y="608" type="line" smooth="yes"/>
      <point x="813" y="555"/>
      <point x="790" y="505"/>
      <point x="754" y="466" type="curve"/>
      <point x="497" y="773" type="line"/>
      <point x="523" y="780"/>
      <point x="551" y="783"/>
      <point x="580" y="783" type="curve" smooth="yes"/>
      <point x="720" y="783"/>
      <point x="813" y="705"/>
      <point x="813" y="632" type="curve" smooth="yes"/>
    </contour>
    <contour>
      <point x="394" y="368"/>
      <point x="308" y="452"/>
      <point x="308" y="561" type="curve" smooth="yes"/>
      <point x="308" y="612"/>
      <point x="327" y="658"/>
      <point x="360" y="694" type="curve"/>
      <point x="624" y="384" type="line"/>
      <point x="593" y="374"/>
      <point x="560" y="368"/>
      <point x="526" y="368" type="curve" smooth="yes"/>
    </contour>
    <contour>
      <point x="923.0" y="1395.0" type="move" name="abvm_nasal"/>
    </contour>
    <contour>
      <point x="923.0" y="1325.0" type="move" name="abvm_matra"/>
    </contour>
    <contour>
      <point x="923.0" y="1335.0" type="move" name="abvm_reph"/>
    </contour>
    <contour>
      <point x="615.0" y="1600.0" type="move" name="abvm_latin"/>
    </contour>
    <contour>
      <point x="923.0" y="-19.0" type="move" name="blwm_matra"/>
    </contour>
    <contour>
      <point x="477" y="-10" type="move" name="blwm_mid"/>
    </contour>
    <contour>
      <point x="894.0" y="10.0" type="move" name="blwm_rakar"/>
    </contour>
    <contour>
      <point x="521.0" y="-23.0" type="move" name="blwm_nukta"/>
    </contour>
  </outline>
</glyph>
<glyph name="dBha" format="1">
  <advance width="1453"/>
  <unicode hex="092D"/>
  <outline>
    <contour>
      <point x="124" y="1387"/>
      <point x="58" y="1305"/>
      <point x="58" y="1193" type="curve" smooth="yes"/>
      <point x="58" y="1019"/>
      <point x="218" y="896"/>
      <point x="330" y="896" type="curve" smooth="yes"/>
      <point x="373" y="896"/>
      <point x="401" y="914"/>
      <point x="419" y="932" type="curve"/>
      <point x="313" y="989"/>
      <point x="278" y="1038"/>
      <point x="278" y="1101" type="curve" smooth="yes"/>
      <point x="278" y="1161"/>
      <point x="310" y="1200"/>
      <point x="368" y="1200" type="curve" smooth="yes"/>
      <point x="440" y="1200"/>
      <point x="457" y="1140"/>
      <point x="457" y="1069" type="curve" smooth="yes"/>
      <point x="457" y="672" type="line"/>
      <point x="372" y="669"/>
      <point x="312" y="650"/>
      <point x="312" y="576" type="curve" smooth="yes"/>
      <point x="312" y="430"/>
      <point x="544" y="244"/>
      <point x="637" y="244" type="curve" smooth="yes"/>
      <point x="670" y="244"/>
      <point x="695" y="268"/>
      <point x="695" y="323" type="curve" smooth="yes"/>
      <point x="695" y="468" type="line"/>
      <point x="1026" y="468" type="line"/>
      <point x="1026" y="-21" type="line"/>
      <point x="1244" y="-57" type="line"/>
      <point x="1266" y="-39" type="line"/>
      <point x="1266" y="1137" type="line"/>
      <point x="1489" y="1137" type="line"/>
      <point x="1506" y="1160" type="line"/>
      <point x="1453" y="1330" type="line"/>
      <point x="728" y="1330" type="line"/>
      <point x="711" y="1307" type="line"/>
      <point x="764" y="1137" type="line"/>
      <point x="1026" y="1137" type="line"/>
      <point x="1026" y="673" type="line"/>
      <point x="695" y="673" type="line"/>
      <point x="695" y="913" type="line" smooth="yes"/>
      <point x="695" y="1156"/>
      <point x="483" y="1387"/>
      <point x="258" y="1387" type="curve" smooth="yes"/>
    </contour>
    <contour>
      <point x="1146.0" y="1395.0" type="move" name="abvm_nasal"/>
    </contour>
    <contour>
      <point x="1146.0" y="1325.0" type="move" name="abvm_matra"/>
    </contour>
    <contour>
      <point x="1146.0" y="1335.0" type="move" name="abvm_reph"/>
    </contour>
    <contour>
      <point x="726.0" y="1600.0" type="move" name="abvm_latin"/>
    </contour>
    <contour>
      <point x="1146.0" y="-19.0" type="move" name="blwm_matra"/>
    </contour>
    <contour>
      <point x="694.0" y="-10.0" type="move" name="blwm_mid"/>
    </contour>
    <contour>
      <point x="1087.0" y="10.0" type="move" name="blwm_rakar"/>
    </contour>
    <contour>
      <point x="738" y="0" type="move" name="blwm_nukta"/>
    </contour>
  </outline>
</glyph>
<glyph name="dMa" format="1">
  <advance width="1246"/>
  <unicode hex="092E"/>
  <outline>
    <contour>
      <point x="1246" y="1330" type="line"/>
      <point x="-36" y="1330" type="line"/>
      <point x="-53" y="1307" type="line"/>
      <point x="0" y="1137" type="line"/>
      <point x="200" y="1137" type="line"/>
      <point x="200" y="652" type="line"/>
      <point x="85" y="648"/>
      <point x="55" y="610"/>
      <point x="55" y="557" type="curve" smooth="yes"/>
      <point x="55" y="411"/>
      <point x="287" y="224"/>
      <point x="380" y="224" type="curve" smooth="yes"/>
      <point x="413" y="224"/>
      <point x="438" y="247"/>
      <point x="438" y="303" type="curve" smooth="yes"/>
      <point x="438" y="448" type="line"/>
      <point x="819" y="448" type="line"/>
      <point x="819" y="-21" type="line"/>
      <point x="1037" y="-57" type="line"/>
      <point x="1059" y="-39" type="line"/>
      <point x="1059" y="1137" type="line"/>
      <point x="1282" y="1137" type="line"/>
      <point x="1299" y="1160" type="line"/>
    </contour>
    <contour>
      <point x="819" y="1137" type="line"/>
      <point x="819" y="653" type="line"/>
      <point x="438" y="653" type="line"/>
      <point x="438" y="1137" type="line"/>
    </contour>
    <contour>
      <point x="939.0" y="1395.0" type="move" name="abvm_nasal"/>
    </contour>
    <contour>
      <point x="939.0" y="1325.0" type="move" name="abvm_matra"/>
    </contour>
    <contour>
      <point x="939.0" y="1335.0" type="move" name="abvm_reph"/>
    </contour>
    <contour>
      <point x="623.0" y="1600.0" type="move" name="abvm_latin"/>
    </contour>
    <contour>
      <point x="939.0" y="-19.0" type="move" name="blwm_matra"/>
    </contour>
    <contour>
      <point x="478" y="-10" type="move" name="blwm_mid"/>
    </contour>
    <contour>
      <point x="884" y="10" type="move" name="blwm_rakar"/>
    </contour>
    <contour>
      <point x="489" y="0" type="move" name="blwm_nukta"/>
    </contour>
  </outline>
</glyph>
<glyph name="dRra" format="1">
  <advance width="946"/>
  <unicode hex="0931"/>
  <outline>
    <contour>
      <point x="946" y="1330" type="line"/>
      <point x="-36" y="1330" type="line"/>
      <point x="-53" y="1307" type="line"/>
      <point x="0" y="1137" type="line"/>
      <point x="481" y="1137" type="line"/>
      <point x="510" y="1064"/>
      <point x="523" y="994"/>
      <point x="523" y="933" type="curve" smooth="yes"/>
      <point x="523" y="834"/>
      <point x="488" y="766"/>
      <point x="400" y="721" type="curve"/>
      <point x="330" y="762"/>
      <point x="262" y="779"/>
      <point x="213" y="779" type="curve" smooth="yes"/>
      <point x="125" y="779"/>
      <point x="78" y="725"/>
      <point x="78" y="648" type="curve" smooth="yes"/>
      <point x="78" y="429"/>
      <point x="463" y="-52"/>
      <point x="700" y="-52" type="curve" smooth="yes"/>
      <point x="774" y="-52"/>
      <point x="825" y="-6"/>
      <point x="843" y="66" type="curve"/>
      <point x="636" y="160"/>
      <point x="484" y="264"/>
      <point x="354" y="427" type="curve"/>
      <point x="635" y="481"/>
      <point x="737" y="627"/>
      <point x="737" y="799" type="curve" smooth="yes"/>
      <point x="737" y="907"/>
      <point x="697" y="1023"/>
      <point x="640" y="1137" type="curve"/>
      <point x="982" y="1137" type="line"/>
      <point x="999" y="1160" type="line"/>
    </contour>
    <contour>
      <point x="42" y="176"/>
      <point x="-15" y="119"/>
      <point x="-15" y="50" type="curve" smooth="yes"/>
      <point x="-15" y="-19"/>
      <point x="42" y="-76"/>
      <point x="112" y="-76" type="curve" smooth="yes"/>
      <point x="181" y="-76"/>
      <point x="237" y="-19"/>
      <point x="237" y="50" type="curve" smooth="yes"/>
      <point x="237" y="119"/>
      <point x="181" y="176"/>
      <point x="112" y="176" type="curve" smooth="yes"/>
    </contour>
    <contour>
      <point x="538" y="1395" type="move" name="abvm_nasal"/>
    </contour>
    <contour>
      <point x="538" y="1325" type="move" name="abvm_matra"/>
    </contour>
    <contour>
      <point x="538" y="1335" type="move" name="abvm_reph"/>
    </contour>
    <contour>
      <point x="473" y="1600" type="move" name="abvm_latin"/>
    </contour>
    <contour>
      <point x="538" y="-19" type="move" name="blwm_matra"/>
    </contour>
    <contour>
      <point x="473" y="-10" type="move" name="blwm_mid"/>
    </contour>
    <contour>
      <point x="473" y="10" type="move" name="blwm_rakar"/>
    </contour>
  </outline>
</glyph>
<glyph name="dLa" format="1">
  <advance width="1445"/>
  <unicode hex="0932"/>
  <outline>
    <contour>
      <point x="1445" y="1330" type="line"/>
      <point x="-32" y="1330" type="line"/>
      <point x="-49" y="1307" type="line"/>
      <point x="4" y="1137" type="line"/>
      <point x="1018" y="1137" type="line"/>
      <point x="1018" y="928" type="line"/>
      <point x="886" y="917"/>
      <point x="774" y="868"/>
      <point x="689" y="788" type="curve"/>
      <point x="592" y="887"/>
      <point x="478" y="946"/>
      <point x="356" y="946" type="curve" smooth="yes"/>
      <point x="187" y="946"/>
      <point x="85" y="833"/>
      <point x="85" y="650" type="curve" smooth="yes"/>
      <point x="85" y="316"/>
      <point x="427" y="-78"/>
      <point x="589" y="-78" type="curve" smooth="yes"/>
      <point x="632" y="-78"/>
      <point x="670" y="-50"/>
      <point x="685" y="-6" type="curve"/>
      <point x="453" y="152"/>
      <point x="322" y="374"/>
      <point x="322" y="533" type="curve" smooth="yes"/>
      <point x="322" y="652"/>
      <point x="395" y="738"/>
      <point x="493" y="738" type="curve" smooth="yes"/>
      <point x="535" y="738"/>
      <point x="570" y="722"/>
      <point x="607" y="689" type="curve"/>
      <point x="577" y="642"/>
      <point x="554" y="590"/>
      <point x="537" y="532" type="curve"/>
      <point x="737" y="396" type="line"/>
      <point x="763" y="406" type="line"/>
      <point x="809" y="562"/>
      <point x="882" y="662"/>
      <point x="1018" y="720" type="curve"/>
      <point x="1018" y="-21" type="line"/>
      <point x="1236" y="-57" type="line"/>
      <point x="1258" y="-39" type="line"/>
      <point x="1258" y="1137" type="line"/>
      <point x="1481" y="1137" type="line"/>
      <point x="1498" y="1160" type="line"/>
    </contour>
    <contour>
      <point x="1138" y="1395" type="move" name="abvm_nasal"/>
    </contour>
    <contour>
      <point x="1138" y="1325" type="move" name="abvm_matra"/>
    </contour>
    <contour>
      <point x="1138" y="1335" type="move" name="abvm_reph"/>
    </contour>
    <contour>
      <point x="724" y="1600" type="move" name="abvm_latin"/>
    </contour>
    <contour>
      <point x="1138" y="-19" type="move" name="blwm_matra"/>
    </contour>
    <contour>
      <point x="688" y="-10" type="move" name="blwm_mid"/>
    </contour>
    <contour>
      <point x="1076" y="10" type="move" name="blwm_rakar"/>
    </contour>
    <contour>
      <point x="87" y="0" type="move" name="blwm_nukta"/>
    </contour>
  </outline>
</glyph>
<glyph name="dVa" format="1">
  <advance width="1230"/>
  <unicode hex="0935"/>
  <outline>
    <contour>
      <point x="1230" y="1330" type="line"/>
      <point x="-36" y="1330" type="line"/>
      <point x="-53" y="1307" type="line"/>
      <point x="0" y="1137" type="line"/>
      <point x="813" y="1137" type="line"/>
      <point x="813" y="869" type="line"/>
      <point x="707" y="960"/>
      <point x="589" y="997"/>
      <point x="475" y="997" type="curve" smooth="yes"/>
      <point x="254" y="997"/>
      <point x="89" y="859"/>
      <point x="89" y="658" type="curve" smooth="yes"/>
      <point x="89" y="403"/>
      <point x="355" y="179"/>
      <point x="606" y="179" type="curve" smooth="yes"/>
      <point x="666" y="179"/>
      <point x="738" y="192"/>
      <point x="813" y="224" type="curve"/>
      <point x="813" y="-21" type="line"/>
      <point x="1021" y="-57" type="line"/>
      <point x="1043" y="-39" type="line"/>
      <point x="1043" y="1137" type="line"/>
      <point x="1266" y="1137" type="line"/>
      <point x="1283" y="1160" type="line"/>
    </contour>
    <contour>
      <point x="720" y="783"/>
      <point x="813" y="705"/>
      <point x="813" y="632" type="curve" smooth="yes"/>
      <point x="813" y="608" type="line" smooth="yes"/>
      <point x="813" y="476"/>
      <point x="675" y="368"/>
      <point x="526" y="368" type="curve" smooth="yes"/>
      <point x="394" y="368"/>
      <point x="308" y="452"/>
      <point x="308" y="561" type="curve" smooth="yes"/>
      <point x="308" y="687"/>
      <point x="424" y="783"/>
      <point x="580" y="783" type="curve" smooth="yes"/>
    </contour>
    <contour>
      <point x="923" y="1395" type="move" name="abvm_nasal"/>
    </contour>
    <contour>
      <point x="923" y="1325" type="move" name="abvm_matra"/>
    </contour>
    <contour>
      <point x="923" y="1335" type="move" name="abvm_reph"/>
    </contour>
    <contour>
      <point x="615" y="1600" type="move" name="abvm_latin"/>
    </contour>
    <contour>
      <point x="923" y="-19" type="move" name="blwm_matra"/>
    </contour>
    <contour>
      <point x="477" y="-10" type="move" name="blwm_mid"/>
    </contour>
    <contour>
      <point x="874" y="10" type="move" name="blwm_rakar"/>
    </contour>
    <contour>
      <point x="511" y="-23" type="move" name="blwm_nukta"/>
    </contour>
  </outline>
</glyph>
<glyph name="dSsa" format="1">
  <advance width="1171"/>
  <unicode hex="0937"/>
  <outline>
    <contour>
      <point x="1171" y="1330" type="line"/>
      <point x="-36" y="1330" type="line"/>
      <point x="-53" y="1307" type="line"/>
      <point x="0" y="1137" type="line"/>
      <point x="129" y="1137" type="line"/>
      <point x="129" y="755" type="line" smooth="yes"/>
      <point x="129" y="507"/>
      <point x="345" y="291"/>
      <point x="568" y="291" type="curve" smooth="yes"/>
      <point x="621" y="291"/>
      <point x="681" y="303"/>
      <point x="744" y="330" type="curve"/>
      <point x="744" y="-21" type="line"/>
      <point x="962" y="-57" type="line"/>
      <point x="984" y="-39" type="line"/>
      <point x="984" y="1137" type="line"/>
      <point x="1207" y="1137" type="line"/>
      <point x="1224" y="1160" type="line"/>
    </contour>
    <contour>
      <point x="744" y="750" type="line" smooth="yes"/>
      <point x="744" y="728"/>
      <point x="741" y="708"/>
      <point x="737" y="688" type="curve"/>
      <point x="410" y="1137" type="line"/>
      <point x="744" y="1137" type="line"/>
    </contour>
    <contour>
      <point x="403" y="473"/>
      <point x="359" y="531"/>
      <point x="359" y="640" type="curve" smooth="yes"/>
      <point x="359" y="967" type="line"/>
      <point x="661" y="551" type="line"/>
      <point x="613" y="503"/>
      <point x="550" y="473"/>
      <point x="489" y="473" type="curve" smooth="yes"/>
    </contour>
    <contour>
      <point x="864.0" y="1395.0" type="move" name="abvm_nasal"/>
    </contour>
    <contour>
      <point x="864.0" y="1325.0" type="move" name="abvm_matra"/>
    </contour>
    <contour>
      <point x="864.0" y="1335.0" type="move" name="abvm_reph"/>
    </contour>
    <contour>
      <point x="585.0" y="1600.0" type="move" name="abvm_latin"/>
    </contour>
    <contour>
      <point x="864.0" y="-19.0" type="move" name="blwm_matra"/>
    </contour>
    <contour>
      <point x="394.0" y="-10.0" type="move" name="blwm_mid"/>
    </contour>
    <contour>
      <point x="824.0" y="10.0" type="move" name="blwm_rakar"/>
    </contour>
    <contour>
      <point x="457" y="77" type="move" name="blwm_nukta"/>
    </contour>
  </outline>
</glyph>
<glyph name="dHa" format="1">
  <advance width="1066"/>
  <unicode hex="0939"/>
  <outline>
    <contour>
      <point x="1066" y="1330" type="line"/>
      <point x="-36" y="1330" type="line"/>
      <point x="-53" y="1307" type="line"/>
      <point x="0" y="1137" type="line"/>
      <point x="648" y="1137" type="line"/>
      <point x="648" y="1026" type="line" smooth="yes"/>
      <point x="648" y="1013"/>
      <point x="641" y="1006"/>
      <point x="628" y="1006" type="curve" smooth="yes"/>
      <point x="297" y="1006" type="line" smooth="yes"/>
      <point x="159" y="1006"/>
      <point x="94" y="929"/>
      <point x="94" y="827" type="curve" smooth="yes"/>
      <point x="94" y="730"/>
      <point x="153" y="642"/>
      <point x="230" y="578" type="curve"/>
      <point x="173" y="519"/>
      <point x="143" y="445"/>
      <point x="143" y="354" type="curve" smooth="yes"/>
      <point x="143" y="63"/>
      <point x="463" y="-167"/>
      <point x="755" y="-167" type="curve" smooth="yes"/>
      <point x="888" y="-167"/>
      <point x="928" y="-118"/>
      <point x="928" y="-42" type="curve"/>
      <point x="575" y="-42"/>
      <point x="373" y="88"/>
      <point x="373" y="259" type="curve" smooth="yes"/>
      <point x="373" y="405"/>
      <point x="510" y="506"/>
      <point x="657" y="506" type="curve" smooth="yes"/>
      <point x="747" y="506"/>
      <point x="778" y="469"/>
      <point x="778" y="422" type="curve" smooth="yes"/>
      <point x="778" y="364"/>
      <point x="729" y="312"/>
      <point x="618" y="268" type="curve"/>
      <point x="644" y="188"/>
      <point x="724" y="135"/>
      <point x="806" y="135" type="curve" smooth="yes"/>
      <point x="897" y="135"/>
      <point x="968" y="201"/>
      <point x="968" y="316" type="curve" smooth="yes"/>
      <point x="968" y="501"/>
      <point x="786" y="687"/>
      <point x="526" y="687" type="curve" smooth="yes"/>
      <point x="452" y="687"/>
      <point x="386" y="672"/>
      <point x="334" y="649" type="curve"/>
      <point x="325" y="667"/>
      <point x="319" y="687"/>
      <point x="319" y="710" type="curve" smooth="yes"/>
      <point x="319" y="767"/>
      <point x="357" y="825"/>
      <point x="459" y="825" type="curve" smooth="yes"/>
      <point x="862" y="825" type="line"/>
      <point x="882" y="845" type="line"/>
      <point x="882" y="1137" type="line"/>
      <point x="1102" y="1137" type="line"/>
      <point x="1119" y="1160" type="line"/>
    </contour>
    <contour>
      <point x="762.0" y="1395.0" type="move" name="abvm_nasal"/>
    </contour>
    <contour>
      <point x="762.0" y="1325.0" type="move" name="abvm_matra"/>
    </contour>
    <contour>
      <point x="762.0" y="1335.0" type="move" name="abvm_reph"/>
    </contour>
    <contour>
      <point x="533.0" y="1600.0" type="move" name="abvm_latin"/>
    </contour>
    <contour>
      <point x="675.0" y="-124.0" type="move" name="blwm_matra"/>
    </contour>
    <contour>
      <point x="625.0" y="-66.0" type="move" name="blwm_mid"/>
    </contour>
    <contour>
      <point x="654" y="-126" type="move" name="blwm_rakar"/>
    </contour>
    <contour>
      <point x="165" y="-146" type="move" name="blwm_nukta"/>
    </contour>
  </outline>
</glyph>
<glyph name="dOesign" format="1">
  <advance width="0"/>
  <unicode hex="093A"/>
  <outline>
    <contour>
      <point x="-112" y="1602" type="line"/>
      <point x="-112" y="1249" type="line"/>
      <point x="87" y="1222" type="line"/>
      <point x="111" y="1244" type="line"/>
      <point x="111" y="1597" type="line"/>
      <point x="-88" y="1624" type="line"/>
    </contour>
    <contour>
      <point x="0" y="1325" type="move" name="_abvm_matra"/>
    </contour>
  </outline>
</glyph>
<glyph name="dOoesign" format="1">
  <advance width="653"/>
  <unicode hex="093B"/>
  <outline>
    <contour>
      <point x="653" y="1330" type="line"/>
      <point x="439" y="1330" type="line"/>
      <point x="439" y="1597" type="line"/>
      <point x="240" y="1624" type="line"/>
      <point x="216" y="1602" type="line"/>
      <point x="216" y="1330" type="line"/>
      <point x="-36" y="1330" type="line"/>
      <point x="-53" y="1307" type="line"/>
      <point x="0" y="1137" type="line"/>
      <point x="206" y="1137" type="line"/>
      <point x="206" y="-21" type="line"/>
      <point x="424" y="-57" type="line"/>
      <point x="446" y="-39" type="line"/>
      <point x="446" y="1137" type="line"/>
      <point x="689" y="1137" type="line"/>
      <point x="706" y="1160" type="line"/>
    </contour>
    <contour>
      <point x="326" y="1395" type="move" name="abvm_nasal"/>
    </contour>
    <contour>
      <point x="326" y="1325" type="move" name="abvm_matra"/>
    </contour>
    <contour>
      <point x="326" y="1335" type="move" name="abvm_reph"/>
    </contour>
    <contour>
      <point x="326" y="1600" type="move" name="abvm_latin"/>
    </contour>
    <contour>
      <point x="326" y="-19" type="move" name="blwm_matra"/>
    </contour>
    <contour>
      <point x="326" y="-10" type="move" name="blwm_mid"/>
    </contour>
    <contour>
      <point x="326" y="10" type="move" name="blwm_rakar"/>
    </contour>
    <contour>
      <point x="0" y="-23" type="move" name="blwm_nukta"/>
    </contour>
  </outline>
</glyph>
<glyph name="dNukta" format="1">
  <advance width="0"/>
  <unicode hex="093C"/>
  <outline>
    <contour>
      <point x="-70" y="103"/>
      <point x="-127" y="46"/>
      <point x="-127" y="-23" type="curve" smooth="yes"/>
      <point x="-127" y="-92"/>
      <point x="-70" y="-149"/>
      <point x="0" y="-149" type="curve" smooth="yes"/>
      <point x="69" y="-149"/>
      <point x="125" y="-92"/>
      <point x="125" y="-23" type="curve" smooth="yes"/>
      <point x="125" y="46"/>
      <point x="69" y="103"/>
      <point x="0" y="103" type="curve" smooth="yes"/>
    </contour>
    <contour>
      <point x="0" y="-23" type="move" name="_blwm_nukta"/>
    </contour>
  </outline>
</glyph>
<glyph name="dIsign" format="1">
  <advance width="653"/>
  <unicode hex="093F"/>
  <outline>
    <contour>
      <point x="225" y="1926"/>
      <point x="63" y="1782"/>
      <point x="63" y="1590" type="curve" smooth="yes"/>
      <point x="63" y="1491"/>
      <point x="103" y="1408"/>
      <point x="172" y="1330" type="curve"/>
      <point x="-36" y="1330" type="line"/>
      <point x="-53" y="1307" type="line"/>
      <point x="0" y="1137" type="line"/>
      <point x="206" y="1137" type="line"/>
      <point x="206" y="-21" type="line"/>
      <point x="424" y="-57" type="line"/>
      <point x="446" y="-39" type="line"/>
      <point x="446" y="1137" type="line"/>
      <point x="689" y="1137" type="line"/>
      <point x="706" y="1160" type="line"/>
      <point x="653" y="1330" type="line"/>
      <point x="349" y="1330" type="line"/>
      <point x="306" y="1379"/>
      <point x="289" y="1433"/>
      <point x="289" y="1483" type="curve" smooth="yes"/>
      <point x="289" y="1605"/>
      <point x="392" y="1696"/>
      <point x="612" y="1696" type="curve" smooth="yes"/>
      <point x="917" y="1696"/>
      <point x="1242" y="1521"/>
      <point x="1473" y="1232" type="curve"/>
      <point x="1610" y="1290" type="line"/>
      <point x="1304" y="1704"/>
      <point x="889" y="1926"/>
      <point x="521" y="1926" type="curve" smooth="yes"/>
    </contour>
    <contour>
      <point x="326" y="1395" type="move" name="abvm_nasal"/>
    </contour>
    <contour>
      <point x="326" y="1325" type="move" name="abvm_matra"/>
    </contour>
    <contour>
      <point x="326" y="1335" type="move" name="abvm_reph"/>
    </contour>
    <contour>
      <point x="326" y="1600" type="move" name="abvm_latin"/>
    </contour>
    <contour>
      <point x="326" y="-19" type="move" name="blwm_matra"/>
    </contour>
    <contour>
      <point x="326" y="-10" type="move" name="blwm_mid"/>
    </contour>
    <contour>
      <point x="326" y="10" type="move" name="blwm_rakar"/>
    </contour>
    <contour>
      <point x="0" y="-23" type="move" name="blwm_nukta"/>
    </contour>
  </outline>
</glyph>
<glyph name="dUsign" format="1">
  <advance width="0"/>
  <unicode hex="0941"/>
  <outline>
    <contour>
      <point x="-175" y="30"/>
      <point x="-263" y="-36"/>
      <point x="-263" y="-104" type="curve" smooth="yes"/>
      <point x="-263" y="-178"/>
      <point x="-206" y="-238"/>
      <point x="-87" y="-248" type="curve"/>
      <point x="-37" y="-183"/>
      <point x="8" y="-157"/>
      <point x="54" y="-157" type="curve" smooth="yes"/>
      <point x="95" y="-157"/>
      <point x="121" y="-177"/>
      <point x="121" y="-220" type="curve" smooth="yes"/>
      <point x="121" y="-291"/>
      <point x="49" y="-349"/>
      <point x="-68" y="-349" type="curve" smooth="yes"/>
      <point x="-235" y="-349"/>
      <point x="-391" y="-232"/>
      <point x="-499" y="16" type="curve"/>
      <point x="-542" y="4"/>
      <point x="-578" y="-44"/>
      <point x="-578" y="-99" type="curve" smooth="yes"/>
      <point x="-578" y="-247"/>
      <point x="-320" y="-554"/>
      <point x="7" y="-554" type="curve" smooth="yes"/>
      <point x="174" y="-554"/>
      <point x="305" y="-475"/>
      <point x="305" y="-323" type="curve" smooth="yes"/>
      <point x="305" y="-151"/>
      <point x="136" y="30"/>
      <point x="-58" y="30" type="curve" smooth="yes"/>
    </contour>
    <contour>
      <point x="0.0" y="-19.0" type="move" name="_blwm_matra"/>
    </contour>
  </outline>
</glyph>
<glyph name="dUusign" format="1">
  <advance width="0"/>
  <unicode hex="0942"/>
  <outline>
    <contour>
      <point x="-210" y="21"/>
      <point x="-335" y="-66"/>
      <point x="-335" y="-217" type="curve" smooth="yes"/>
      <point x="-335" y="-381"/>
      <point x="-187" y="-547"/>
      <point x="11" y="-547" type="curve" smooth="yes"/>
      <point x="140" y="-547"/>
      <point x="208" y="-477"/>
      <point x="208" y="-405" type="curve" smooth="yes"/>
      <point x="208" y="-341"/>
      <point x="159" y="-276"/>
      <point x="57" y="-264" type="curve"/>
      <point x="-1" y="-335"/>
      <point x="-52" y="-360"/>
      <point x="-92" y="-360" type="curve" smooth="yes"/>
      <point x="-132" y="-360"/>
      <point x="-151" y="-334"/>
      <point x="-151" y="-299" type="curve" smooth="yes"/>
      <point x="-151" y="-231"/>
      <point x="-82" y="-186"/>
      <point x="18" y="-186" type="curve" smooth="yes"/>
      <point x="153" y="-186"/>
      <point x="295" y="-267"/>
      <point x="455" y="-459" type="curve"/>
      <point x="496" y="-448"/>
      <point x="520" y="-419"/>
      <point x="520" y="-386" type="curve" smooth="yes"/>
      <point x="520" y="-266"/>
      <point x="206" y="21"/>
      <point x="-62" y="21" type="curve" smooth="yes"/>
    </contour>
    <contour>
      <point x="0.0" y="-19.0" type="move" name="_blwm_matra"/>
    </contour>
  </outline>
</glyph>
<glyph name="dRvocalicsign" format="1">
  <advance width="0"/>
  <unicode hex="0943"/>
  <outline>
    <contour>
      <point x="-40" y="96" type="line"/>
      <point x="-230" y="46"/>
      <point x="-312" y="-48"/>
      <point x="-312" y="-146" type="curve" smooth="yes"/>
      <point x="-312" y="-289"/>
      <point x="-136" y="-478"/>
      <point x="93" y="-478" type="curve" smooth="yes"/>
      <point x="220" y="-478"/>
      <point x="337" y="-420"/>
      <point x="337" y="-330" type="curve" smooth="yes"/>
      <point x="337" y="-266"/>
      <point x="278" y="-197"/>
      <point x="203" y="-171" type="curve"/>
      <point x="154" y="-229"/>
      <point x="39" y="-300"/>
      <point x="-43" y="-300" type="curve" smooth="yes"/>
      <point x="-92" y="-300"/>
      <point x="-113" y="-274"/>
      <point x="-113" y="-234" type="curve" smooth="yes"/>
      <point x="-113" y="-183"/>
      <point x="-74" y="-114"/>
      <point x="120" y="-59" type="curve"/>
      <point x="120" y="-32" type="line"/>
    </contour>
    <contour>
      <point x="0" y="-19" type="move" name="_blwm_matra"/>
    </contour>
  </outline>
</glyph>
<glyph name="dRrvocalicsign" format="1">
  <advance width="0"/>
  <unicode hex="0944"/>
  <outline>
    <contour>
      <point x="-66" y="91" type="line"/>
      <point x="-277" y="35"/>
      <point x="-347" y="-71"/>
      <point x="-347" y="-157" type="curve" smooth="yes"/>
      <point x="-347" y="-235"/>
      <point x="-298" y="-314"/>
      <point x="-217" y="-368" type="curve"/>
      <point x="-236" y="-396"/>
      <point x="-244" y="-423"/>
      <point x="-244" y="-451" type="curve" smooth="yes"/>
      <point x="-244" y="-582"/>
      <point x="-83" y="-729"/>
      <point x="111" y="-729" type="curve" smooth="yes"/>
      <point x="254" y="-729"/>
      <point x="349" y="-649"/>
      <point x="349" y="-575" type="curve" smooth="yes"/>
      <point x="349" y="-511"/>
      <point x="277" y="-460"/>
      <point x="211" y="-437" type="curve"/>
      <point x="154" y="-523"/>
      <point x="66" y="-561"/>
      <point x="9" y="-561" type="curve" smooth="yes"/>
      <point x="-27" y="-561"/>
      <point x="-45" y="-546"/>
      <point x="-45" y="-517" type="curve" smooth="yes"/>
      <point x="-45" y="-473"/>
      <point x="-4" y="-421"/>
      <point x="185" y="-341" type="curve"/>
      <point x="191" y="-312" type="line"/>
      <point x="56" y="-184" type="line"/>
      <point x="-43" y="-249"/>
      <point x="-89" y="-278"/>
      <point x="-124" y="-278" type="curve" smooth="yes"/>
      <point x="-145" y="-278"/>
      <point x="-158" y="-267"/>
      <point x="-158" y="-244" type="curve" smooth="yes"/>
      <point x="-158" y="-196"/>
      <point x="-121" y="-121"/>
      <point x="120" y="-59" type="curve"/>
      <point x="120" y="-32" type="line"/>
    </contour>
    <contour>
      <point x="0" y="-19" type="move" name="_blwm_matra"/>
    </contour>
  </outline>
</glyph>
<glyph name="dEcandrasign" format="1">
  <advance width="0"/>
  <unicode hex="0945"/>
  <outline>
    <contour>
      <point x="-355" y="1893"/>
      <point x="-389" y="1879"/>
      <point x="-389" y="1809" type="curve" smooth="yes"/>
      <point x="-389" y="1673"/>
      <point x="-259" y="1446"/>
      <point x="0" y="1446" type="curve" smooth="yes"/>
      <point x="219" y="1446"/>
      <point x="356" y="1609"/>
      <point x="356" y="1757" type="curve" smooth="yes"/>
      <point x="356" y="1829"/>
      <point x="309" y="1873"/>
      <point x="214" y="1896" type="curve"/>
      <point x="169" y="1715"/>
      <point x="77" y="1629"/>
      <point x="-54" y="1629" type="curve" smooth="yes"/>
      <point x="-185" y="1629"/>
      <point x="-265" y="1714"/>
      <point x="-320" y="1904" type="curve"/>
    </contour>
    <contour>
      <point x="0" y="1395" type="move" name="_abvm_nasal"/>
    </contour>
  </outline>
</glyph>
<glyph name="dEshortsign" format="1">
  <advance width="0"/>
  <unicode hex="0946"/>
  <outline>
    <contour>
      <point x="-950" y="1922"/>
      <point x="-960" y="1896"/>
      <point x="-960" y="1852" type="curve" smooth="yes"/>
      <point x="-960" y="1687"/>
      <point x="-780" y="1521"/>
      <point x="-325" y="1494" type="curve" smooth="yes"/>
      <point x="-138" y="1482"/>
      <point x="-92" y="1461"/>
      <point x="-92" y="1403" type="curve" smooth="yes"/>
      <point x="-92" y="1384"/>
      <point x="-96" y="1358"/>
      <point x="-107" y="1330" type="curve"/>
      <point x="-107" y="1301" type="line"/>
      <point x="107" y="1301" type="line"/>
      <point x="107" y="1330" type="line"/>
      <point x="24" y="1559"/>
      <point x="-141" y="1696"/>
      <point x="-426" y="1740" type="curve" smooth="yes"/>
      <point x="-744" y="1791"/>
      <point x="-841" y="1834"/>
      <point x="-922" y="1956" type="curve"/>
    </contour>
    <contour>
      <point x="0" y="1325" type="move" name="_abvm_matra"/>
    </contour>
  </outline>
</glyph>
<glyph name="dEsign" format="1">
  <advance width="0"/>
  <unicode hex="0947"/>
  <outline>
    <contour>
      <point x="-766" y="1932"/>
      <point x="-821" y="1861"/>
      <point x="-821" y="1793" type="curve" smooth="yes"/>
      <point x="-821" y="1711"/>
      <point x="-741" y="1624"/>
      <point x="-622" y="1588" type="curve"/>
      <point x="-595" y="1627"/>
      <point x="-548" y="1658"/>
      <point x="-482" y="1658" type="curve" smooth="yes"/>
      <point x="-389" y="1658"/>
      <point x="-310" y="1607"/>
      <point x="-82" y="1330" type="curve"/>
      <point x="-82" y="1249" type="line"/>
      <point x="82" y="1249" type="line"/>
      <point x="82" y="1330" type="line"/>
      <point x="-277" y="1796"/>
      <point x="-454" y="1932"/>
      <point x="-635" y="1932" type="curve" smooth="yes"/>
    </contour>
    <contour>
      <point x="0" y="1325" type="move" name="_abvm_matra"/>
    </contour>
  </outline>
</glyph>
<glyph name="dOcandrasign" format="1">
  <advance width="543"/>
  <unicode hex="0949"/>
  <outline>
    <contour>
      <point x="-389" y="1893"/>
      <point x="-423" y="1879"/>
      <point x="-423" y="1809" type="curve" smooth="yes"/>
      <point x="-423" y="1673"/>
      <point x="-293" y="1446"/>
      <point x="-34" y="1446" type="curve" smooth="yes"/>
      <point x="185" y="1446"/>
      <point x="322" y="1609"/>
      <point x="322" y="1757" type="curve" smooth="yes"/>
      <point x="322" y="1829"/>
      <point x="275" y="1873"/>
      <point x="180" y="1896" type="curve"/>
      <point x="135" y="1715"/>
      <point x="43" y="1629"/>
      <point x="-88" y="1629" type="curve" smooth="yes"/>
      <point x="-219" y="1629"/>
      <point x="-299" y="1714"/>
      <point x="-354" y="1904" type="curve"/>
    </contour>
    <contour>
      <point x="579" y="1137" type="line"/>
      <point x="596" y="1160" type="line"/>
      <point x="543" y="1330" type="line"/>
      <point x="-146" y="1330" type="line"/>
      <point x="-163" y="1307" type="line"/>
      <point x="-110" y="1137" type="line"/>
      <point x="96" y="1137" type="line"/>
      <point x="96" y="-21" type="line"/>
      <point x="314" y="-57" type="line"/>
      <point x="336" y="-39" type="line"/>
      <point x="336" y="1137" type="line"/>
    </contour>
  </outline>
</glyph>
<glyph name="dOshortsign" format="1">
  <advance width="653"/>
  <unicode hex="094A"/>
  <outline>
    <contour>
      <point x="653" y="1330" type="line"/>
      <point x="432" y="1330" type="line"/>
      <point x="349" y="1559"/>
      <point x="184" y="1696"/>
      <point x="-101" y="1740" type="curve" smooth="yes"/>
      <point x="-419" y="1791"/>
      <point x="-516" y="1834"/>
      <point x="-597" y="1956" type="curve"/>
      <point x="-625" y="1922"/>
      <point x="-635" y="1896"/>
      <point x="-635" y="1852" type="curve" smooth="yes"/>
      <point x="-635" y="1687"/>
      <point x="-455" y="1521"/>
      <point x="0" y="1494" type="curve" smooth="yes"/>
      <point x="187" y="1482"/>
      <point x="233" y="1461"/>
      <point x="233" y="1403" type="curve" smooth="yes"/>
      <point x="233" y="1384"/>
      <point x="229" y="1358"/>
      <point x="218" y="1330" type="curve"/>
      <point x="-36" y="1330" type="line"/>
      <point x="-53" y="1307" type="line"/>
      <point x="0" y="1137" type="line"/>
      <point x="206" y="1137" type="line"/>
      <point x="206" y="-21" type="line"/>
      <point x="424" y="-57" type="line"/>
      <point x="446" y="-39" type="line"/>
      <point x="446" y="1137" type="line"/>
      <point x="689" y="1137" type="line"/>
      <point x="706" y="1160" type="line"/>
    </contour>
    <contour>
      <point x="326" y="1395" type="move" name="abvm_nasal"/>
    </contour>
    <contour>
      <point x="326" y="1325" type="move" name="abvm_matra"/>
    </contour>
    <contour>
      <point x="326" y="1335" type="move" name="abvm_reph"/>
    </contour>
    <contour>
      <point x="326" y="1600" type="move" name="abvm_latin"/>
    </contour>
    <contour>
      <point x="326" y="-19" type="move" name="blwm_matra"/>
    </contour>
    <contour>
      <point x="326" y="-10" type="move" name="blwm_mid"/>
    </contour>
    <contour>
      <point x="326" y="10" type="move" name="blwm_rakar"/>
    </contour>
    <contour>
      <point x="0" y="-23" type="move" name="blwm_nukta"/>
    </contour>
  </outline>
</glyph>
<glyph name="dOsign" format="1">
  <advance width="653"/>
  <unicode hex="094B"/>
  <outline>
    <contour>
      <point x="653" y="1330" type="line"/>
      <point x="390" y="1330" type="line"/>
      <point x="22" y="1796"/>
      <point x="-161" y="1932"/>
      <point x="-346" y="1932" type="curve" smooth="yes"/>
      <point x="-477" y="1932"/>
      <point x="-532" y="1861"/>
      <point x="-532" y="1793" type="curve" smooth="yes"/>
      <point x="-532" y="1711"/>
      <point x="-452" y="1624"/>
      <point x="-333" y="1588" type="curve"/>
      <point x="-306" y="1627"/>
      <point x="-259" y="1658"/>
      <point x="-193" y="1658" type="curve" smooth="yes"/>
      <point x="-97" y="1658"/>
      <point x="-15" y="1606"/>
      <point x="218" y="1330" type="curve"/>
      <point x="-36" y="1330" type="line"/>
      <point x="-53" y="1307" type="line"/>
      <point x="0" y="1137" type="line"/>
      <point x="206" y="1137" type="line"/>
      <point x="206" y="-21" type="line"/>
      <point x="424" y="-57" type="line"/>
      <point x="446" y="-39" type="line"/>
      <point x="446" y="1137" type="line"/>
      <point x="689" y="1137" type="line"/>
      <point x="706" y="1160" type="line"/>
    </contour>
    <contour>
      <point x="326" y="1395" type="move" name="abvm_nasal"/>
    </contour>
    <contour>
      <point x="326" y="1325" type="move" name="abvm_matra"/>
    </contour>
    <contour>
      <point x="326" y="1335" type="move" name="abvm_reph"/>
    </contour>
    <contour>
      <point x="326" y="1600" type="move" name="abvm_latin"/>
    </contour>
    <contour>
      <point x="326" y="-19" type="move" name="blwm_matra"/>
    </contour>
    <contour>
      <point x="326" y="-10" type="move" name="blwm_mid"/>
    </contour>
    <contour>
      <point x="326" y="10" type="move" name="blwm_rakar"/>
    </contour>
    <contour>
      <point x="0" y="-23" type="move" name="blwm_nukta"/>
    </contour>
  </outline>
</glyph>
<glyph name="dAusign" format="1">
  <advance width="653"/>
  <unicode hex="094C"/>
  <outline>
    <contour>
      <point x="653" y="1330" type="line"/>
      <point x="419" y="1330" type="line"/>
      <point x="259" y="1854"/>
      <point x="91" y="2032"/>
      <point x="-87" y="2032" type="curve" smooth="yes"/>
      <point x="-189" y="2032"/>
      <point x="-235" y="1973"/>
      <point x="-235" y="1911" type="curve" smooth="yes"/>
      <point x="-235" y="1849"/>
      <point x="-188" y="1781"/>
      <point x="-62" y="1731" type="curve"/>
      <point x="-41" y="1755"/>
      <point x="-11" y="1774"/>
      <point x="25" y="1774" type="curve" smooth="yes"/>
      <point x="84" y="1774"/>
      <point x="137" y="1716"/>
      <point x="248" y="1427" type="curve"/>
      <point x="11" y="1624"/>
      <point x="-220" y="1742"/>
      <point x="-352" y="1742" type="curve" smooth="yes"/>
      <point x="-431" y="1742"/>
      <point x="-509" y="1700"/>
      <point x="-509" y="1612" type="curve" smooth="yes"/>
      <point x="-509" y="1534"/>
      <point x="-448" y="1463"/>
      <point x="-313" y="1424" type="curve"/>
      <point x="-288" y="1470"/>
      <point x="-244" y="1497"/>
      <point x="-179" y="1497" type="curve" smooth="yes"/>
      <point x="-102" y="1497"/>
      <point x="36" y="1437"/>
      <point x="178" y="1330" type="curve"/>
      <point x="-36" y="1330" type="line"/>
      <point x="-53" y="1307" type="line"/>
      <point x="0" y="1137" type="line"/>
      <point x="206" y="1137" type="line"/>
      <point x="206" y="-21" type="line"/>
      <point x="424" y="-57" type="line"/>
      <point x="446" y="-39" type="line"/>
      <point x="446" y="1137" type="line"/>
      <point x="689" y="1137" type="line"/>
      <point x="706" y="1160" type="line"/>
    </contour>
    <contour>
      <point x="326" y="1395" type="move" name="abvm_nasal"/>
    </contour>
    <contour>
      <point x="326" y="1325" type="move" name="abvm_matra"/>
    </contour>
    <contour>
      <point x="326" y="1335" type="move" name="abvm_reph"/>
    </contour>
    <contour>
      <point x="326" y="1600" type="move" name="abvm_latin"/>
    </contour>
    <contour>
      <point x="326" y="-19" type="move" name="blwm_matra"/>
    </contour>
    <contour>
      <point x="326" y="-10" type="move" name="blwm_mid"/>
    </contour>
    <contour>
      <point x="326" y="10" type="move" name="blwm_rakar"/>
    </contour>
    <contour>
      <point x="0" y="-23" type="move" name="blwm_nukta"/>
    </contour>
  </outline>
</glyph>
<glyph name="dVirama" format="1">
  <advance width="0"/>
  <unicode hex="094D"/>
  <outline>
    <contour>
      <point x="-202" y="-92"/>
      <point x="-252" y="-127"/>
      <point x="-252" y="-182" type="curve" smooth="yes"/>
      <point x="-252" y="-237"/>
      <point x="-216" y="-282"/>
      <point x="-135" y="-338" type="curve"/>
      <point x="-101" y="-333"/>
      <point x="-49" y="-327"/>
      <point x="-3" y="-327" type="curve" smooth="yes"/>
      <point x="116" y="-327"/>
      <point x="240" y="-367"/>
      <point x="433" y="-569" type="curve"/>
      <point x="478" y="-555"/>
      <point x="494" y="-525"/>
      <point x="494" y="-507" type="curve" smooth="yes"/>
      <point x="494" y="-451"/>
      <point x="337" y="-268"/>
      <point x="138" y="-160" type="curve" smooth="yes"/>
      <point x="20" y="-96"/>
      <point x="-53" y="-92"/>
      <point x="-94" y="-92" type="curve" smooth="yes"/>
    </contour>
    <contour>
      <point x="0" y="-19" type="move" name="_blwm_matra"/>
    </contour>
  </outline>
</glyph>
<glyph name="dAwsign" format="1">
  <advance width="653"/>
  <unicode hex="094F"/>
  <outline>
    <contour>
      <point x="653" y="1330" type="line"/>
      <point x="432" y="1330" type="line"/>
      <point x="400" y="1654"/>
      <point x="266" y="1808"/>
      <point x="-51" y="1871" type="curve" smooth="yes"/>
      <point x="-297" y="1920"/>
      <point x="-362" y="1952"/>
      <point x="-400" y="2043" type="curve"/>
      <point x="-422" y="2017"/>
      <point x="-433" y="1982"/>
      <point x="-433" y="1947" type="curve" smooth="yes"/>
      <point x="-433" y="1849"/>
      <point x="-328" y="1734"/>
      <point x="3" y="1687" type="curve" smooth="yes"/>
      <point x="218" y="1657"/>
      <point x="258" y="1590"/>
      <point x="264" y="1488" type="curve"/>
      <point x="185" y="1572"/>
      <point x="42" y="1621"/>
      <point x="-188" y="1621" type="curve" smooth="yes"/>
      <point x="-462" y="1621"/>
      <point x="-561" y="1708"/>
      <point x="-639" y="1846" type="curve"/>
      <point x="-656" y="1818"/>
      <point x="-667" y="1790"/>
      <point x="-667" y="1750" type="curve" smooth="yes"/>
      <point x="-667" y="1604"/>
      <point x="-514" y="1437"/>
      <point x="-72" y="1437" type="curve" smooth="yes"/>
      <point x="172" y="1437"/>
      <point x="225" y="1406"/>
      <point x="225" y="1343" type="curve"/>
      <point x="224" y="1330" type="line"/>
      <point x="-36" y="1330" type="line"/>
      <point x="-53" y="1307" type="line"/>
      <point x="0" y="1137" type="line"/>
      <point x="206" y="1137" type="line"/>
      <point x="206" y="-21" type="line"/>
      <point x="424" y="-57" type="line"/>
      <point x="446" y="-39" type="line"/>
      <point x="446" y="1137" type="line"/>
      <point x="689" y="1137" type="line"/>
      <point x="706" y="1160" type="line"/>
    </contour>
    <contour>
      <point x="326" y="1395" type="move" name="abvm_nasal"/>
    </contour>
    <contour>
      <point x="326" y="1325" type="move" name="abvm_matra"/>
    </contour>
    <contour>
      <point x="326" y="1335" type="move" name="abvm_reph"/>
    </contour>
    <contour>
      <point x="326" y="1600" type="move" name="abvm_latin"/>
    </contour>
    <contour>
      <point x="326" y="-19" type="move" name="blwm_matra"/>
    </contour>
    <contour>
      <point x="326" y="-10" type="move" name="blwm_mid"/>
    </contour>
    <contour>
      <point x="326" y="10" type="move" name="blwm_rakar"/>
    </contour>
    <contour>
      <point x="0" y="-23" type="move" name="blwm_nukta"/>
    </contour>
  </outline>
</glyph>
<glyph name="dOm" format="1">
  <advance width="1858"/>
  <unicode hex="0950"/>
  <outline>
    <contour>
      <point x="1251" y="1354"/>
      <point x="1305" y="1409"/>
      <point x="1305" y="1475" type="curve" smooth="yes"/>
      <point x="1305" y="1541"/>
      <point x="1251" y="1595"/>
      <point x="1185" y="1595" type="curve" smooth="yes"/>
      <point x="1118" y="1595"/>
      <point x="1063" y="1541"/>
      <point x="1063" y="1475" type="curve" smooth="yes"/>
      <point x="1063" y="1409"/>
      <point x="1118" y="1354"/>
      <point x="1185" y="1354" type="curve" smooth="yes"/>
    </contour>
    <contour>
      <point x="1450" y="1075"/>
      <point x="1595" y="1218"/>
      <point x="1595" y="1366" type="curve" smooth="yes"/>
      <point x="1595" y="1453"/>
      <point x="1545" y="1506"/>
      <point x="1443" y="1535" type="curve"/>
      <point x="1410" y="1351"/>
      <point x="1304" y="1258"/>
      <point x="1182" y="1258" type="curve" smooth="yes"/>
      <point x="1041" y="1258"/>
      <point x="935" y="1381"/>
      <point x="899" y="1543" type="curve"/>
      <point x="874" y="1531"/>
      <point x="840" y="1495"/>
      <point x="840" y="1429" type="curve" smooth="yes"/>
      <point x="840" y="1302"/>
      <point x="978" y="1075"/>
      <point x="1236" y="1075" type="curve" smooth="yes"/>
    </contour>
    <contour>
      <point x="1146" y="1033"/>
      <point x="1123" y="681"/>
      <point x="925" y="681" type="curve" smooth="yes"/>
      <point x="905" y="681"/>
      <point x="884" y="685"/>
      <point x="862" y="691" type="curve"/>
      <point x="918" y="747"/>
      <point x="943" y="820"/>
      <point x="943" y="911" type="curve" smooth="yes"/>
      <point x="943" y="1156"/>
      <point x="760" y="1335"/>
      <point x="489" y="1335" type="curve" smooth="yes"/>
      <point x="270" y="1335"/>
      <point x="158" y="1219"/>
      <point x="158" y="1108" type="curve" smooth="yes"/>
      <point x="158" y="1011"/>
      <point x="245" y="947"/>
      <point x="384" y="947" type="curve"/>
      <point x="384" y="1082"/>
      <point x="465" y="1184"/>
      <point x="578" y="1184" type="curve" smooth="yes"/>
      <point x="667" y="1184"/>
      <point x="727" y="1121"/>
      <point x="727" y="1029" type="curve" smooth="yes"/>
      <point x="727" y="906"/>
      <point x="620" y="806"/>
      <point x="364" y="790" type="curve"/>
      <point x="349" y="765" type="line"/>
      <point x="454" y="552" type="line"/>
      <point x="555" y="561"/>
      <point x="638" y="577"/>
      <point x="705" y="600" type="curve"/>
      <point x="749" y="559"/>
      <point x="775" y="498"/>
      <point x="775" y="438" type="curve" smooth="yes"/>
      <point x="775" y="329"/>
      <point x="687" y="252"/>
      <point x="555" y="252" type="curve" smooth="yes"/>
      <point x="354" y="252"/>
      <point x="222" y="431"/>
      <point x="155" y="806" type="curve"/>
      <point x="87" y="777"/>
      <point x="50" y="741"/>
      <point x="50" y="660" type="curve" smooth="yes"/>
      <point x="50" y="478"/>
      <point x="236" y="2"/>
      <point x="634" y="2" type="curve" smooth="yes"/>
      <point x="846" y="2"/>
      <point x="985" y="138"/>
      <point x="985" y="340" type="curve" smooth="yes"/>
      <point x="985" y="400"/>
      <point x="973" y="458"/>
      <point x="952" y="513" type="curve"/>
      <point x="998" y="492"/>
      <point x="1045" y="480"/>
      <point x="1084" y="480" type="curve" smooth="yes"/>
      <point x="1292" y="480"/>
      <point x="1359" y="823"/>
      <point x="1519" y="823" type="curve" smooth="yes"/>
      <point x="1573" y="823"/>
      <point x="1604" y="783"/>
      <point x="1604" y="712" type="curve" smooth="yes"/>
      <point x="1604" y="596"/>
      <point x="1521" y="492"/>
      <point x="1406" y="492" type="curve" smooth="yes"/>
      <point x="1358" y="492"/>
      <point x="1305" y="510"/>
      <point x="1277" y="537" type="curve"/>
      <point x="1257" y="434"/>
      <point x="1331" y="278"/>
      <point x="1511" y="278" type="curve" smooth="yes"/>
      <point x="1676" y="278"/>
      <point x="1808" y="410"/>
      <point x="1808" y="601" type="curve" smooth="yes"/>
      <point x="1808" y="848"/>
      <point x="1587" y="1033"/>
      <point x="1402" y="1033" type="curve" smooth="yes"/>
    </contour>
  </outline>
</glyph>
<glyph name="dUdatta" format="1">
  <advance width="0"/>
  <unicode hex="0951"/>
  <outline>
    <contour>
      <point x="-111" y="1922" type="line"/>
      <point x="-111" y="1469" type="line"/>
      <point x="88" y="1442" type="line"/>
      <point x="112" y="1464" type="line"/>
      <point x="112" y="1917" type="line"/>
      <point x="-87" y="1944" type="line"/>
    </contour>
    <contour>
      <point x="0" y="1325" type="move" name="_abvm_matra"/>
    </contour>
  </outline>
</glyph>
<glyph name="dAnudatta" format="1">
  <advance width="0"/>
  <unicode hex="0952"/>
  <outline>
    <contour>
      <point x="0" y="-180" type="line"/>
      <point x="-650" y="-180" type="line"/>
      <point x="-600" y="-333" type="line"/>
      <point x="50" y="-333" type="line"/>
    </contour>
    <contour>
      <point x="0" y="-19" type="move" name="_blwm_matra"/>
    </contour>
  </outline>
</glyph>
<glyph name="dGrave" format="1">
  <advance width="0"/>
  <unicode hex="0953"/>
  <outline>
    <contour>
      <point x="-67" y="1930" type="line"/>
      <point x="-242" y="1870" type="line"/>
      <point x="68" y="1457" type="line"/>
      <point x="243" y="1517" type="line"/>
    </contour>
    <contour>
      <point x="0" y="1600" type="move" name="_abvm_latin"/>
    </contour>
  </outline>
</glyph>
<glyph name="dEcandralongsign" format="1">
  <advance width="0"/>
  <unicode hex="0955"/>
  <outline>
    <contour>
      <point x="-355" y="2033"/>
      <point x="-389" y="2019"/>
      <point x="-389" y="1949" type="curve" smooth="yes"/>
      <point x="-389" y="1813"/>
      <point x="-259" y="1586"/>
      <point x="0" y="1586" type="curve" smooth="yes"/>
      <point x="219" y="1586"/>
      <point x="356" y="1749"/>
      <point x="356" y="1897" type="curve" smooth="yes"/>
      <point x="356" y="1969"/>
      <point x="309" y="2013"/>
      <point x="214" y="2036" type="curve"/>
      <point x="169" y="1855"/>
      <point x="77" y="1769"/>
      <point x="-54" y="1769" type="curve" smooth="yes"/>
      <point x="-185" y="1769"/>
      <point x="-265" y="1854"/>
      <point x="-320" y="2044" type="curve"/>
    </contour>
    <contour>
      <point x="-336" y="1375" type="line"/>
      <point x="341" y="1375" type="line"/>
      <point x="358" y="1398" type="line"/>
      <point x="325" y="1528" type="line"/>
      <point x="-352" y="1528" type="line"/>
      <point x="-369" y="1505" type="line"/>
    </contour>
    <contour>
      <point x="0" y="1395" type="move" name="_abvm_nasal"/>
    </contour>
  </outline>
</glyph>
<glyph name="dUesign" format="1">
  <advance width="0"/>
  <unicode hex="0956"/>
  <outline>
    <contour>
      <point x="-444" y="-105"/>
      <point x="-459" y="-133"/>
      <point x="-459" y="-182" type="curve" smooth="yes"/>
      <point x="-459" y="-317"/>
      <point x="-240" y="-501"/>
      <point x="58" y="-501" type="curve" smooth="yes"/>
      <point x="292" y="-501"/>
      <point x="459" y="-388"/>
      <point x="459" y="-284" type="curve" smooth="yes"/>
      <point x="459" y="-207"/>
      <point x="409" y="-151"/>
      <point x="326" y="-120" type="curve"/>
      <point x="251" y="-237"/>
      <point x="107" y="-300"/>
      <point x="-33" y="-300" type="curve" smooth="yes"/>
      <point x="-195" y="-300"/>
      <point x="-330" y="-216"/>
      <point x="-423" y="-84" type="curve"/>
    </contour>
    <contour>
      <point x="0" y="-10" type="move" name="_blwm_mid"/>
    </contour>
  </outline>
</glyph>
<glyph name="dUuesign" format="1">
  <advance width="0"/>
  <unicode hex="0957"/>
  <outline>
    <contour>
      <point x="-444" y="-105"/>
      <point x="-459" y="-133"/>
      <point x="-459" y="-182" type="curve" smooth="yes"/>
      <point x="-459" y="-317"/>
      <point x="-240" y="-501"/>
      <point x="58" y="-501" type="curve" smooth="yes"/>
      <point x="292" y="-501"/>
      <point x="459" y="-388"/>
      <point x="459" y="-284" type="curve" smooth="yes"/>
      <point x="459" y="-207"/>
      <point x="409" y="-151"/>
      <point x="326" y="-120" type="curve"/>
      <point x="251" y="-237"/>
      <point x="107" y="-300"/>
      <point x="-33" y="-300" type="curve" smooth="yes"/>
      <point x="-195" y="-300"/>
      <point x="-330" y="-216"/>
      <point x="-423" y="-84" type="curve"/>
    </contour>
    <contour>
      <point x="338" y="-807"/>
      <point x="468" y="-736"/>
      <point x="468" y="-639" type="curve" smooth="yes"/>
      <point x="468" y="-598"/>
      <point x="438" y="-542"/>
      <point x="384" y="-509" type="curve"/>
      <point x="318" y="-569"/>
      <point x="202" y="-610"/>
      <point x="48" y="-610" type="curve" smooth="yes"/>
      <point x="-151" y="-610"/>
      <point x="-316" y="-523"/>
      <point x="-423" y="-384" type="curve"/>
      <point x="-444" y="-403"/>
      <point x="-459" y="-428"/>
      <point x="-459" y="-472" type="curve" smooth="yes"/>
      <point x="-459" y="-597"/>
      <point x="-213" y="-807"/>
      <point x="126" y="-807" type="curve" smooth="yes"/>
    </contour>
    <contour>
      <point x="0" y="-10" type="move" name="_blwm_mid"/>
    </contour>
  </outline>
</glyph>
<glyph name="dGhha" format="1">
  <advance width="1301"/>
  <unicode hex="095A"/>
  <outline>
    <contour>
      <point x="1301" y="1330" type="line"/>
      <point x="-36" y="1330" type="line"/>
      <point x="-53" y="1307" type="line"/>
      <point x="0" y="1137" type="line"/>
      <point x="284" y="1137" type="line"/>
      <point x="284" y="676" type="line"/>
      <point x="169" y="676" type="line" smooth="yes"/>
      <point x="99" y="676"/>
      <point x="70" y="646"/>
      <point x="70" y="609" type="curve" smooth="yes"/>
      <point x="70" y="517"/>
      <point x="256" y="303"/>
      <point x="405" y="303" type="curve" smooth="yes"/>
      <point x="486" y="303"/>
      <point x="519" y="366"/>
      <point x="519" y="514" type="curve" smooth="yes"/>
      <point x="519" y="1137" type="line"/>
      <point x="874" y="1137" type="line"/>
      <point x="874" y="-21" type="line"/>
      <point x="1092" y="-57" type="line"/>
      <point x="1114" y="-39" type="line"/>
      <point x="1114" y="1137" type="line"/>
      <point x="1337" y="1137" type="line"/>
      <point x="1354" y="1160" type="line"/>
    </contour>
    <contour>
      <point x="472" y="176"/>
      <point x="415" y="119"/>
      <point x="415" y="50" type="curve" smooth="yes"/>
      <point x="415" y="-19"/>
      <point x="472" y="-76"/>
      <point x="542" y="-76" type="curve" smooth="yes"/>
      <point x="611" y="-76"/>
      <point x="667" y="-19"/>
      <point x="667" y="50" type="curve" smooth="yes"/>
      <point x="667" y="119"/>
      <point x="611" y="176"/>
      <point x="542" y="176" type="curve" smooth="yes"/>
    </contour>
    <contour>
      <point x="994" y="1395" type="move" name="abvm_nasal"/>
    </contour>
    <contour>
      <point x="994" y="1325" type="move" name="abvm_matra"/>
    </contour>
    <contour>
      <point x="994" y="1335" type="move" name="abvm_reph"/>
    </contour>
    <contour>
      <point x="650" y="1600" type="move" name="abvm_latin"/>
    </contour>
    <contour>
      <point x="994" y="-19" type="move" name="blwm_matra"/>
    </contour>
    <contour>
      <point x="530" y="-10" type="move" name="blwm_mid"/>
    </contour>
    <contour>
      <point x="941" y="10" type="move" name="blwm_rakar"/>
    </contour>
  </outline>
</glyph>
<glyph name="dDddha" format="1">
  <advance width="1112"/>
  <unicode hex="095C"/>
  <outline>
    <contour>
      <point x="1112" y="1330" type="line"/>
      <point x="-36" y="1330" type="line"/>
      <point x="-53" y="1307" type="line"/>
      <point x="0" y="1137" type="line"/>
      <point x="708" y="1137" type="line"/>
      <point x="708" y="1046" type="line" smooth="yes"/>
      <point x="708" y="1033"/>
      <point x="701" y="1026"/>
      <point x="688" y="1026" type="curve" smooth="yes"/>
      <point x="357" y="1026" type="line" smooth="yes"/>
      <point x="218" y="1026"/>
      <point x="154" y="968"/>
      <point x="154" y="879" type="curve" smooth="yes"/>
      <point x="154" y="714"/>
      <point x="376" y="482"/>
      <point x="580" y="482" type="curve" smooth="yes"/>
      <point x="635" y="482"/>
      <point x="739" y="499"/>
      <point x="773" y="499" type="curve" smooth="yes"/>
      <point x="822" y="499"/>
      <point x="836" y="465"/>
      <point x="836" y="430" type="curve" smooth="yes"/>
      <point x="836" y="338"/>
      <point x="742" y="270"/>
      <point x="615" y="270" type="curve" smooth="yes"/>
      <point x="444" y="270"/>
      <point x="268" y="393"/>
      <point x="143" y="636" type="curve"/>
      <point x="99" y="619"/>
      <point x="67" y="589"/>
      <point x="71" y="535" type="curve" smooth="yes"/>
      <point x="81" y="398"/>
      <point x="324" y="39"/>
      <point x="694" y="39" type="curve" smooth="yes"/>
      <point x="886" y="39"/>
      <point x="1020" y="136"/>
      <point x="1020" y="319" type="curve" smooth="yes"/>
      <point x="1020" y="517"/>
      <point x="863" y="716"/>
      <point x="691" y="716" type="curve" smooth="yes"/>
      <point x="647" y="716"/>
      <point x="529" y="703"/>
      <point x="478" y="703" type="curve" smooth="yes"/>
      <point x="402" y="703"/>
      <point x="376" y="731"/>
      <point x="376" y="768" type="curve" smooth="yes"/>
      <point x="376" y="826"/>
      <point x="440" y="855"/>
      <point x="519" y="855" type="curve" smooth="yes"/>
      <point x="922" y="855" type="line"/>
      <point x="942" y="875" type="line"/>
      <point x="942" y="1137" type="line"/>
      <point x="1148" y="1137" type="line"/>
      <point x="1165" y="1160" type="line"/>
    </contour>
    <contour>
      <point x="541" y="-64"/>
      <point x="484" y="-121"/>
      <point x="484" y="-190" type="curve" smooth="yes"/>
      <point x="484" y="-259"/>
      <point x="541" y="-316"/>
      <point x="611" y="-316" type="curve" smooth="yes"/>
      <point x="680" y="-316"/>
      <point x="736" y="-259"/>
      <point x="736" y="-190" type="curve" smooth="yes"/>
      <point x="736" y="-121"/>
      <point x="680" y="-64"/>
      <point x="611" y="-64" type="curve" smooth="yes"/>
    </contour>
    <contour>
      <point x="822.0" y="1395.0" type="move" name="abvm_nasal"/>
    </contour>
    <contour>
      <point x="822.0" y="1325.0" type="move" name="abvm_matra"/>
    </contour>
    <contour>
      <point x="822.0" y="1335.0" type="move" name="abvm_reph"/>
    </contour>
    <contour>
      <point x="556.0" y="1600.0" type="move" name="abvm_latin"/>
    </contour>
    <contour>
      <point x="822" y="-419" type="move" name="blwm_matra"/>
    </contour>
    <contour>
      <point x="626.0" y="-210.0" type="move" name="blwm_mid"/>
    </contour>
    <contour>
      <point x="656.0" y="-390.0" type="move" name="blwm_rakar"/>
    </contour>
  </outline>
</glyph>
<glyph name="dLlvocalic" format="1">
  <advance width="1513"/>
  <unicode hex="0961"/>
  <outline>
    <contour>
      <point x="1513" y="1330" type="line"/>
      <point x="-36" y="1330" type="line"/>
      <point x="-53" y="1307" type="line"/>
      <point x="0" y="1137" type="line"/>
      <point x="924" y="1137" type="line"/>
      <point x="924" y="900" type="line"/>
      <point x="851" y="883"/>
      <point x="778" y="840"/>
      <point x="713" y="770" type="curve"/>
      <point x="595" y="881"/>
      <point x="491" y="924"/>
      <point x="387" y="924" type="curve" smooth="yes"/>
      <point x="207" y="924"/>
      <point x="102" y="797"/>
      <point x="102" y="628" type="curve" smooth="yes"/>
      <point x="102" y="348"/>
      <point x="392" y="-48"/>
      <point x="565" y="-48" type="curve" smooth="yes"/>
      <point x="605" y="-48"/>
      <point x="641" y="-27"/>
      <point x="651" y="34" type="curve"/>
      <point x="448" y="178"/>
      <point x="338" y="371"/>
      <point x="338" y="514" type="curve" smooth="yes"/>
      <point x="338" y="625"/>
      <point x="404" y="708"/>
      <point x="505" y="708" type="curve" smooth="yes"/>
      <point x="545" y="708"/>
      <point x="591" y="695"/>
      <point x="636" y="666" type="curve"/>
      <point x="611" y="624"/>
      <point x="588" y="576"/>
      <point x="568" y="522" type="curve"/>
      <point x="770" y="385" type="line"/>
      <point x="797" y="394" type="line"/>
      <point x="891" y="611"/>
      <point x="1018" y="691"/>
      <point x="1117" y="691" type="curve" smooth="yes"/>
      <point x="1167" y="691"/>
      <point x="1198" y="670"/>
      <point x="1198" y="617" type="curve" smooth="yes"/>
      <point x="1198" y="538"/>
      <point x="1131" y="487"/>
      <point x="1017" y="384" type="curve" smooth="yes"/>
      <point x="890" y="270"/>
      <point x="836" y="210"/>
      <point x="836" y="124" type="curve" smooth="yes"/>
      <point x="836" y="34"/>
      <point x="897" y="-39"/>
      <point x="993" y="-91" type="curve"/>
      <point x="975" y="-115"/>
      <point x="969" y="-138"/>
      <point x="969" y="-164" type="curve" smooth="yes"/>
      <point x="969" y="-301"/>
      <point x="1135" y="-447"/>
      <point x="1333" y="-447" type="curve" smooth="yes"/>
      <point x="1474" y="-447"/>
      <point x="1573" y="-373"/>
      <point x="1573" y="-297" type="curve" smooth="yes"/>
      <point x="1573" y="-232"/>
      <point x="1500" y="-179"/>
      <point x="1434" y="-157" type="curve"/>
      <point x="1380" y="-245"/>
      <point x="1265" y="-290"/>
      <point x="1203" y="-290" type="curve" smooth="yes"/>
      <point x="1169" y="-290"/>
      <point x="1152" y="-276"/>
      <point x="1152" y="-251" type="curve" smooth="yes"/>
      <point x="1152" y="-211"/>
      <point x="1194" y="-153"/>
      <point x="1408" y="-61" type="curve"/>
      <point x="1415" y="-32" type="line"/>
      <point x="1269" y="106" type="line"/>
      <point x="1183" y="52"/>
      <point x="1127" y="26"/>
      <point x="1092" y="26" type="curve" smooth="yes"/>
      <point x="1064" y="26"/>
      <point x="1055" y="43"/>
      <point x="1055" y="60" type="curve" smooth="yes"/>
      <point x="1055" y="119"/>
      <point x="1170" y="202"/>
      <point x="1260" y="279" type="curve" smooth="yes"/>
      <point x="1361" y="365"/>
      <point x="1400" y="415"/>
      <point x="1400" y="510" type="curve" smooth="yes"/>
      <point x="1400" y="669"/>
      <point x="1290" y="809"/>
      <point x="1154" y="873" type="curve"/>
      <point x="1154" y="1137" type="line"/>
      <point x="1549" y="1137" type="line"/>
      <point x="1566" y="1160" type="line"/>
    </contour>
  </outline>
</glyph>
<glyph name="dLvocalicsign" format="1">
  <advance width="0"/>
  <unicode hex="0962"/>
  <outline>
    <contour>
      <point x="26" y="-619"/>
      <point x="104" y="-579"/>
      <point x="172" y="-508" type="curve" smooth="yes"/>
      <point x="214" y="-464"/>
      <point x="247" y="-416"/>
      <point x="247" y="-341" type="curve" smooth="yes"/>
      <point x="247" y="-190"/>
      <point x="113" y="-80"/>
      <point x="-22" y="-80" type="curve" smooth="yes"/>
      <point x="-77" y="-80"/>
      <point x="-141" y="-98"/>
      <point x="-193" y="-153" type="curve"/>
      <point x="-268" y="-94"/>
      <point x="-335" y="-70"/>
      <point x="-401" y="-70" type="curve" smooth="yes"/>
      <point x="-520" y="-70"/>
      <point x="-589" y="-148"/>
      <point x="-589" y="-258" type="curve" smooth="yes"/>
      <point x="-589" y="-464"/>
      <point x="-345" y="-677"/>
      <point x="-258" y="-677" type="curve" smooth="yes"/>
      <point x="-228" y="-677"/>
      <point x="-192" y="-652"/>
      <point x="-183" y="-611" type="curve"/>
      <point x="-330" y="-531"/>
      <point x="-422" y="-416"/>
      <point x="-422" y="-328" type="curve" smooth="yes"/>
      <point x="-422" y="-264"/>
      <point x="-374" y="-215"/>
      <point x="-308" y="-215" type="curve" smooth="yes"/>
      <point x="-287" y="-215"/>
      <point x="-266" y="-220"/>
      <point x="-245" y="-229" type="curve"/>
      <point x="-264" y="-269"/>
      <point x="-279" y="-319"/>
      <point x="-288" y="-380" type="curve"/>
      <point x="-152" y="-453" type="line"/>
      <point x="-127" y="-440" type="line"/>
      <point x="-96" y="-256"/>
      <point x="-8" y="-215"/>
      <point x="43" y="-215" type="curve" smooth="yes"/>
      <point x="80" y="-215"/>
      <point x="100" y="-237"/>
      <point x="100" y="-270" type="curve" smooth="yes"/>
      <point x="100" y="-326"/>
      <point x="44" y="-381"/>
      <point x="-2" y="-431" type="curve" smooth="yes"/>
      <point x="-64" y="-498"/>
      <point x="-102" y="-552"/>
      <point x="-102" y="-603" type="curve" smooth="yes"/>
      <point x="-102" y="-683"/>
      <point x="10" y="-793"/>
      <point x="145" y="-793" type="curve" smooth="yes"/>
      <point x="235" y="-793"/>
      <point x="297" y="-744"/>
      <point x="297" y="-696" type="curve" smooth="yes"/>
      <point x="297" y="-658"/>
      <point x="259" y="-621"/>
      <point x="197" y="-599" type="curve"/>
      <point x="166" y="-653"/>
      <point x="100" y="-679"/>
      <point x="62" y="-679" type="curve" smooth="yes"/>
      <point x="39" y="-679"/>
      <point x="26" y="-670"/>
      <point x="26" y="-651" type="curve" smooth="yes"/>
    </contour>
    <contour>
      <point x="0" y="-19" type="move" name="_blwm_matra"/>
    </contour>
  </outline>
</glyph>
<glyph name="dLlvocalicsign" format="1">
  <advance width="0"/>
  <unicode hex="0963"/>
  <outline>
    <contour>
      <point x="-516" y="-70"/>
      <point x="-586" y="-149"/>
      <point x="-586" y="-257" type="curve" smooth="yes"/>
      <point x="-586" y="-460"/>
      <point x="-342" y="-667"/>
      <point x="-255" y="-667" type="curve" smooth="yes"/>
      <point x="-225" y="-667"/>
      <point x="-189" y="-642"/>
      <point x="-180" y="-601" type="curve"/>
      <point x="-330" y="-522"/>
      <point x="-419" y="-412"/>
      <point x="-419" y="-327" type="curve" smooth="yes"/>
      <point x="-419" y="-264"/>
      <point x="-371" y="-215"/>
      <point x="-305" y="-215" type="curve" smooth="yes"/>
      <point x="-284" y="-215"/>
      <point x="-263" y="-220"/>
      <point x="-242" y="-229" type="curve"/>
      <point x="-261" y="-269"/>
      <point x="-276" y="-319"/>
      <point x="-285" y="-380" type="curve"/>
      <point x="-149" y="-453" type="line"/>
      <point x="-124" y="-439" type="line"/>
      <point x="-90" y="-255"/>
      <point x="4" y="-216"/>
      <point x="52" y="-216" type="curve" smooth="yes"/>
      <point x="83" y="-216"/>
      <point x="100" y="-232"/>
      <point x="100" y="-264" type="curve" smooth="yes"/>
      <point x="100" y="-317"/>
      <point x="53" y="-355"/>
      <point x="-10" y="-410" type="curve" smooth="yes"/>
      <point x="-97" y="-485"/>
      <point x="-110" y="-527"/>
      <point x="-110" y="-569" type="curve" smooth="yes"/>
      <point x="-110" y="-619"/>
      <point x="-65" y="-671"/>
      <point x="-5" y="-705" type="curve"/>
      <point x="-26" y="-725"/>
      <point x="-34" y="-745"/>
      <point x="-34" y="-766" type="curve" smooth="yes"/>
      <point x="-34" y="-846"/>
      <point x="78" y="-956"/>
      <point x="213" y="-956" type="curve" smooth="yes"/>
      <point x="303" y="-956"/>
      <point x="365" y="-907"/>
      <point x="365" y="-859" type="curve" smooth="yes"/>
      <point x="365" y="-821"/>
      <point x="327" y="-784"/>
      <point x="265" y="-762" type="curve"/>
      <point x="234" y="-816"/>
      <point x="168" y="-842"/>
      <point x="130" y="-842" type="curve" smooth="yes"/>
      <point x="107" y="-842"/>
      <point x="94" y="-833"/>
      <point x="94" y="-814" type="curve" smooth="yes"/>
      <point x="94" y="-789"/>
      <point x="115" y="-751"/>
      <point x="235" y="-697" type="curve"/>
      <point x="245" y="-670" type="line"/>
      <point x="179" y="-572" type="line"/>
      <point x="125" y="-608"/>
      <point x="83" y="-630"/>
      <point x="57" y="-630" type="curve" smooth="yes"/>
      <point x="43" y="-630"/>
      <point x="35" y="-623"/>
      <point x="35" y="-612" type="curve" smooth="yes"/>
      <point x="35" y="-574"/>
      <point x="93" y="-552"/>
      <point x="164" y="-494" type="curve" smooth="yes"/>
      <point x="211" y="-456"/>
      <point x="250" y="-413"/>
      <point x="250" y="-336" type="curve" smooth="yes"/>
      <point x="250" y="-191"/>
      <point x="113" y="-80"/>
      <point x="-20" y="-80" type="curve" smooth="yes"/>
      <point x="-73" y="-80"/>
      <point x="-137" y="-98"/>
      <point x="-190" y="-153" type="curve"/>
      <point x="-265" y="-94"/>
      <point x="-331" y="-70"/>
      <point x="-401" y="-70" type="curve" smooth="yes"/>
    </contour>
    <contour>
      <point x="0" y="-19" type="move" name="_blwm_matra"/>
    </contour>
  </outline>
</glyph>
<glyph name="dDanda" format="1">
  <advance width="941"/>
  <unicode hex="0964"/>
  <outline>
    <contour>
      <point x="501" y="1330" type="line"/>
      <point x="501" y="-61" type="line"/>
      <point x="719" y="-97" type="line"/>
      <point x="741" y="-79" type="line"/>
      <point x="741" y="1312" type="line"/>
      <point x="523" y="1348" type="line"/>
    </contour>
  </outline>
</glyph>
<glyph name="dDbldanda" format="1">
  <advance width="1341"/>
  <unicode hex="0965"/>
  <outline>
    <contour>
      <point x="501" y="1330" type="line"/>
      <point x="501" y="-61" type="line"/>
      <point x="719" y="-97" type="line"/>
      <point x="741" y="-79" type="line"/>
      <point x="741" y="1312" type="line"/>
      <point x="523" y="1348" type="line"/>
    </contour>
    <contour>
      <point x="901" y="1330" type="line"/>
      <point x="901" y="-61" type="line"/>
      <point x="1119" y="-97" type="line"/>
      <point x="1141" y="-79" type="line"/>
      <point x="1141" y="1312" type="line"/>
      <point x="923" y="1348" type="line"/>
    </contour>
  </outline>
</glyph>
<glyph name="dZero" format="1">
  <advance width="1118"/>
  <unicode hex="0966"/>
  <outline>
    <contour>
      <point x="1018" y="790"/>
      <point x="780" y="1046"/>
      <point x="501" y="1046" type="curve" smooth="yes"/>
      <point x="272" y="1046"/>
      <point x="100" y="873"/>
      <point x="100" y="654" type="curve" smooth="yes"/>
      <point x="100" y="391"/>
      <point x="350" y="136"/>
      <point x="627" y="136" type="curve" smooth="yes"/>
      <point x="844" y="136"/>
      <point x="1018" y="292"/>
      <point x="1018" y="522" type="curve" smooth="yes"/>
    </contour>
    <contour>
      <point x="726" y="829"/>
      <point x="807" y="757"/>
      <point x="807" y="634" type="curve" smooth="yes"/>
      <point x="807" y="470"/>
      <point x="664" y="348"/>
      <point x="518" y="348" type="curve" smooth="yes"/>
      <point x="396" y="348"/>
      <point x="322" y="434"/>
      <point x="322" y="547" type="curve" smooth="yes"/>
      <point x="322" y="694"/>
      <point x="447" y="829"/>
      <point x="608" y="829" type="curve" smooth="yes"/>
    </contour>
  </outline>
</glyph>
<glyph name="dTwo" format="1">
  <advance width="1122"/>
  <unicode hex="0968"/>
  <outline>
    <contour>
      <point x="915" y="73"/>
      <point x="874" y="55"/>
      <point x="823" y="55" type="curve" smooth="yes"/>
      <point x="731" y="55"/>
      <point x="670" y="113"/>
      <point x="593" y="274" type="curve"/>
      <point x="872" y="383"/>
      <point x="1019" y="563"/>
      <point x="1019" y="787" type="curve" smooth="yes"/>
      <point x="1019" y="1053"/>
      <point x="811" y="1287"/>
      <point x="534" y="1287" type="curve" smooth="yes"/>
      <point x="324" y="1287"/>
      <point x="171" y="1152"/>
      <point x="171" y="1009" type="curve" smooth="yes"/>
      <point x="171" y="900"/>
      <point x="259" y="829"/>
      <point x="397" y="829" type="curve"/>
      <point x="397" y="964"/>
      <point x="493" y="1082"/>
      <point x="646" y="1082" type="curve" smooth="yes"/>
      <point x="745" y="1082"/>
      <point x="816" y="1032"/>
      <point x="816" y="917" type="curve" smooth="yes"/>
      <point x="816" y="784"/>
      <point x="721" y="616"/>
      <point x="494" y="512" type="curve"/>
      <point x="439" y="588"/>
      <point x="369" y="625"/>
      <point x="298" y="625" type="curve" smooth="yes"/>
      <point x="209" y="625"/>
      <point x="140" y="567"/>
      <point x="140" y="481" type="curve" smooth="yes"/>
      <point x="140" y="368"/>
      <point x="259" y="247"/>
      <point x="457" y="244" type="curve"/>
      <point x="602" y="-90"/>
      <point x="770" y="-188"/>
      <point x="903" y="-188" type="curve" smooth="yes"/>
      <point x="1007" y="-188"/>
      <point x="1062" y="-128"/>
      <point x="1062" y="-54" type="curve" smooth="yes"/>
      <point x="1062" y="4"/>
      <point x="1029" y="64"/>
      <point x="967" y="111" type="curve"/>
    </contour>
  </outline>
</glyph>
<glyph name="dFour" format="1">
  <advance width="1190"/>
  <unicode hex="096A"/>
  <outline>
    <contour>
      <point x="779" y="617" type="line" smooth="yes"/>
      <point x="969" y="866"/>
      <point x="1090" y="1030"/>
      <point x="1140" y="1100" type="curve"/>
      <point x="928" y="1249" type="line"/>
      <point x="687" y="922"/>
      <point x="771" y="1036"/>
      <point x="596" y="802" type="curve" smooth="yes"/>
      <point x="554" y="746" type="line"/>
      <point x="396" y="870"/>
      <point x="344" y="900"/>
      <point x="344" y="975" type="curve" smooth="yes"/>
      <point x="344" y="1036"/>
      <point x="384" y="1096"/>
      <point x="486" y="1116" type="curve"/>
      <point x="443" y="1220"/>
      <point x="377" y="1281"/>
      <point x="288" y="1281" type="curve" smooth="yes"/>
      <point x="180" y="1281"/>
      <point x="100" y="1191"/>
      <point x="100" y="1069" type="curve" smooth="yes"/>
      <point x="100" y="942"/>
      <point x="186" y="863"/>
      <point x="473" y="634" type="curve"/>
      <point x="355" y="465"/>
      <point x="336" y="408"/>
      <point x="336" y="345" type="curve" smooth="yes"/>
      <point x="336" y="162"/>
      <point x="497" y="-11"/>
      <point x="709" y="-11" type="curve" smooth="yes"/>
      <point x="852" y="-11"/>
      <point x="964" y="69"/>
      <point x="964" y="226" type="curve" smooth="yes"/>
      <point x="964" y="346"/>
      <point x="899" y="447"/>
      <point x="752" y="581" type="curve"/>
    </contour>
    <contour>
      <point x="581" y="168"/>
      <point x="547" y="206"/>
      <point x="547" y="261" type="curve" smooth="yes"/>
      <point x="547" y="306"/>
      <point x="570" y="343"/>
      <point x="667" y="471" type="curve"/>
      <point x="715" y="421"/>
      <point x="742" y="373"/>
      <point x="742" y="309" type="curve" smooth="yes"/>
      <point x="742" y="222"/>
      <point x="690" y="168"/>
      <point x="631" y="168" type="curve" smooth="yes"/>
    </contour>
  </outline>
</glyph>
<glyph name="dFive" format="1">
  <advance width="1127"/>
  <unicode hex="096B"/>
  <outline>
    <contour>
      <point x="999" y="458"/>
      <point x="1018" y="519"/>
      <point x="1018" y="580" type="curve" smooth="yes"/>
      <point x="1018" y="713"/>
      <point x="927" y="848"/>
      <point x="792" y="848" type="curve" smooth="yes"/>
      <point x="697" y="848"/>
      <point x="631" y="781"/>
      <point x="631" y="692" type="curve" smooth="yes"/>
      <point x="631" y="633"/>
      <point x="660" y="571"/>
      <point x="716" y="510" type="curve"/>
      <point x="622" y="407"/>
      <point x="530" y="356"/>
      <point x="447" y="356" type="curve" smooth="yes"/>
      <point x="359" y="356"/>
      <point x="312" y="413"/>
      <point x="312" y="506" type="curve" smooth="yes"/>
      <point x="312" y="634"/>
      <point x="400" y="858"/>
      <point x="580" y="1114" type="curve"/>
      <point x="357" y="1264" type="line"/>
      <point x="207" y="1045"/>
      <point x="94" y="812"/>
      <point x="94" y="625" type="curve" smooth="yes"/>
      <point x="94" y="352"/>
      <point x="336" y="154"/>
      <point x="557" y="154" type="curve" smooth="yes"/>
      <point x="677" y="154"/>
      <point x="797" y="213"/>
      <point x="885" y="298" type="curve"/>
      <point x="906" y="260"/>
      <point x="919" y="222"/>
      <point x="919" y="177" type="curve" smooth="yes"/>
      <point x="919" y="96"/>
      <point x="877" y="53"/>
      <point x="743" y="32" type="curve"/>
      <point x="785" y="-94"/>
      <point x="860" y="-149"/>
      <point x="952" y="-149" type="curve" smooth="yes"/>
      <point x="1059" y="-149"/>
      <point x="1137" y="-75"/>
      <point x="1137" y="31" type="curve" smooth="yes"/>
      <point x="1137" y="150"/>
      <point x="1038" y="289"/>
      <point x="966" y="402" type="curve"/>
    </contour>
  </outline>
</glyph>
<glyph name="dNine" format="1">
  <advance width="945"/>
  <unicode hex="096F"/>
  <outline>
    <contour>
      <point x="721" y="538"/>
      <point x="830" y="658"/>
      <point x="830" y="833" type="curve" smooth="yes"/>
      <point x="830" y="1079"/>
      <point x="615" y="1280"/>
      <point x="392" y="1280" type="curve" smooth="yes"/>
      <point x="193" y="1280"/>
      <point x="77" y="1154"/>
      <point x="77" y="976" type="curve" smooth="yes"/>
      <point x="77" y="812"/>
      <point x="176" y="676"/>
      <point x="364" y="478" type="curve" smooth="yes"/>
      <point x="469" y="368"/>
      <point x="573" y="263"/>
      <point x="573" y="174" type="curve" smooth="yes"/>
      <point x="573" y="123"/>
      <point x="515" y="67"/>
      <point x="433" y="39" type="curve"/>
      <point x="486" y="-72"/>
      <point x="557" y="-129"/>
      <point x="637" y="-129" type="curve" smooth="yes"/>
      <point x="726" y="-129"/>
      <point x="815" y="-57"/>
      <point x="815" y="53" type="curve" smooth="yes"/>
      <point x="815" y="125"/>
      <point x="777" y="188"/>
      <point x="718" y="268" type="curve" smooth="yes"/>
      <point x="656" y="352"/>
      <point x="567" y="458"/>
      <point x="508" y="529" type="curve"/>
    </contour>
    <contour>
      <point x="567" y="1071"/>
      <point x="623" y="1021"/>
      <point x="623" y="937" type="curve" smooth="yes"/>
      <point x="623" y="832"/>
      <point x="537" y="744"/>
      <point x="349" y="727" type="curve"/>
      <point x="323" y="771"/>
      <point x="312" y="812"/>
      <point x="312" y="872" type="curve" smooth="yes"/>
      <point x="312" y="1001"/>
      <point x="400" y="1071"/>
      <point x="491" y="1071" type="curve" smooth="yes"/>
    </contour>
  </outline>
</glyph>
<glyph name="dHighspacingdot" format="1">
  <advance width="452"/>
  <unicode hex="0971"/>
  <outline>
    <contour>
      <point x="157" y="1362"/>
      <point x="100" y="1305"/>
      <point x="100" y="1236" type="curve" smooth="yes"/>
      <point x="100" y="1167"/>
      <point x="157" y="1110"/>
      <point x="227" y="1110" type="curve" smooth="yes"/>
      <point x="296" y="1110"/>
      <point x="352" y="1167"/>
      <point x="352" y="1236" type="curve" smooth="yes"/>
      <point x="352" y="1305"/>
      <point x="296" y="1362"/>
      <point x="227" y="1362" type="curve" smooth="yes"/>
    </contour>
  </outline>
</glyph>
<glyph name="dAw" format="1">
  <advance width="2153"/>
  <unicode hex="0975"/>
  <outline>
    <contour>
      <point x="2153" y="1330" type="line"/>
      <point x="1932" y="1330" type="line"/>
      <point x="1900" y="1654"/>
      <point x="1766" y="1808"/>
      <point x="1449" y="1871" type="curve" smooth="yes"/>
      <point x="1203" y="1920"/>
      <point x="1138" y="1952"/>
      <point x="1100" y="2043" type="curve"/>
      <point x="1078" y="2017"/>
      <point x="1067" y="1982"/>
      <point x="1067" y="1947" type="curve" smooth="yes"/>
      <point x="1067" y="1849"/>
      <point x="1172" y="1734"/>
      <point x="1503" y="1687" type="curve" smooth="yes"/>
      <point x="1718" y="1657"/>
      <point x="1758" y="1590"/>
      <point x="1764" y="1488" type="curve"/>
      <point x="1685" y="1572"/>
      <point x="1542" y="1621"/>
      <point x="1312" y="1621" type="curve" smooth="yes"/>
      <point x="1038" y="1621"/>
      <point x="939" y="1708"/>
      <point x="861" y="1846" type="curve"/>
      <point x="844" y="1818"/>
      <point x="833" y="1790"/>
      <point x="833" y="1750" type="curve" smooth="yes"/>
      <point x="833" y="1604"/>
      <point x="986" y="1437"/>
      <point x="1428" y="1437" type="curve" smooth="yes"/>
      <point x="1672" y="1437"/>
      <point x="1725" y="1406"/>
      <point x="1725" y="1343" type="curve"/>
      <point x="1724" y="1330" type="line"/>
      <point x="983" y="1330" type="line"/>
      <point x="966" y="1307" type="line"/>
      <point x="1019" y="1137" type="line"/>
      <point x="1182" y="1137" type="line"/>
      <point x="1182" y="917" type="line" smooth="yes"/>
      <point x="1182" y="780"/>
      <point x="1085" y="706"/>
      <point x="954" y="706" type="curve" smooth="yes"/>
      <point x="933" y="706"/>
      <point x="907" y="708"/>
      <point x="879" y="713" type="curve"/>
      <point x="925" y="775"/>
      <point x="942" y="831"/>
      <point x="942" y="906" type="curve" smooth="yes"/>
      <point x="942" y="1151"/>
      <point x="762" y="1335"/>
      <point x="488" y="1335" type="curve" smooth="yes"/>
      <point x="270" y="1335"/>
      <point x="157" y="1219"/>
      <point x="157" y="1108" type="curve" smooth="yes"/>
      <point x="157" y="1011"/>
      <point x="244" y="947"/>
      <point x="383" y="947" type="curve"/>
      <point x="383" y="1082"/>
      <point x="464" y="1184"/>
      <point x="576" y="1184" type="curve" smooth="yes"/>
      <point x="663" y="1184"/>
      <point x="726" y="1123"/>
      <point x="726" y="1028" type="curve" smooth="yes"/>
      <point x="726" y="908"/>
      <point x="624" y="814"/>
      <point x="403" y="800" type="curve"/>
      <point x="388" y="775" type="line"/>
      <point x="493" y="562" type="line"/>
      <point x="583" y="573"/>
      <point x="659" y="589"/>
      <point x="721" y="612" type="curve"/>
      <point x="774" y="569"/>
      <point x="804" y="501"/>
      <point x="804" y="438" type="curve" smooth="yes"/>
      <point x="804" y="329"/>
      <point x="716" y="252"/>
      <point x="583" y="252" type="curve" smooth="yes"/>
      <point x="387" y="252"/>
      <point x="252" y="419"/>
      <point x="194" y="776" type="curve"/>
      <point x="106" y="769"/>
      <point x="79" y="729"/>
      <point x="79" y="660" type="curve" smooth="yes"/>
      <point x="79" y="479"/>
      <point x="264" y="2"/>
      <point x="663" y="2" type="curve" smooth="yes"/>
      <point x="875" y="2"/>
      <point x="1012" y="137"/>
      <point x="1012" y="322" type="curve" smooth="yes"/>
      <point x="1012" y="396"/>
      <point x="990" y="471"/>
      <point x="952" y="537" type="curve"/>
      <point x="1016" y="515"/>
      <point x="1057" y="507"/>
      <point x="1110" y="507" type="curve" smooth="yes"/>
      <point x="1136" y="507"/>
      <point x="1153" y="509"/>
      <point x="1182" y="514" type="curve"/>
      <point x="1182" y="-21" type="line"/>
      <point x="1400" y="-57" type="line"/>
      <point x="1422" y="-39" type="line"/>
      <point x="1422" y="1137" type="line"/>
      <point x="1706" y="1137" type="line"/>
      <point x="1706" y="-21" type="line"/>
      <point x="1924" y="-57" type="line"/>
      <point x="1946" y="-39" type="line"/>
      <point x="1946" y="1137" type="line"/>
      <point x="2189" y="1137" type="line"/>
      <point x="2206" y="1160" type="line"/>
    </contour>
    <contour>
      <point x="1826" y="1395" type="move" name="abvm_nasal"/>
    </contour>
    <contour>
      <point x="1826" y="1325" type="move" name="abvm_matra"/>
    </contour>
    <contour>
      <point x="1826" y="1335" type="move" name="abvm_reph"/>
    </contour>
    <contour>
      <point x="1076" y="1600" type="move" name="abvm_latin"/>
    </contour>
    <contour>
      <point x="1826" y="-19" type="move" name="blwm_matra"/>
    </contour>
    <contour>
      <point x="1076" y="-10" type="move" name="blwm_mid"/>
    </contour>
    <contour>
      <point x="1076" y="10" type="move" name="blwm_rakar"/>
    </contour>
    <contour>
      <point x="0" y="-23" type="move" name="blwm_nukta"/>
    </contour>
  </outline>
</glyph>
<glyph name="dUue" format="1">
  <advance width="2153"/>
  <unicode hex="0977"/>
  <outline>
    <contour>
      <point x="2153" y="1330" type="line"/>
      <point x="983" y="1330" type="line"/>
      <point x="966" y="1307" type="line"/>
      <point x="1019" y="1137" type="line"/>
      <point x="1182" y="1137" type="line"/>
      <point x="1182" y="917" type="line" smooth="yes"/>
      <point x="1182" y="780"/>
      <point x="1085" y="706"/>
      <point x="954" y="706" type="curve" smooth="yes"/>
      <point x="933" y="706"/>
      <point x="907" y="708"/>
      <point x="879" y="713" type="curve"/>
      <point x="925" y="775"/>
      <point x="942" y="831"/>
      <point x="942" y="906" type="curve" smooth="yes"/>
      <point x="942" y="1151"/>
      <point x="762" y="1335"/>
      <point x="488" y="1335" type="curve" smooth="yes"/>
      <point x="270" y="1335"/>
      <point x="157" y="1219"/>
      <point x="157" y="1108" type="curve" smooth="yes"/>
      <point x="157" y="1011"/>
      <point x="244" y="947"/>
      <point x="383" y="947" type="curve"/>
      <point x="383" y="1082"/>
      <point x="464" y="1184"/>
      <point x="576" y="1184" type="curve" smooth="yes"/>
      <point x="663" y="1184"/>
      <point x="726" y="1123"/>
      <point x="726" y="1028" type="curve" smooth="yes"/>
      <point x="726" y="908"/>
      <point x="624" y="814"/>
      <point x="403" y="800" type="curve"/>
      <point x="388" y="775" type="line"/>
      <point x="493" y="562" type="line"/>
      <point x="583" y="573"/>
      <point x="659" y="589"/>
      <point x="721" y="612" type="curve"/>
      <point x="774" y="569"/>
      <point x="804" y="501"/>
      <point x="804" y="438" type="curve" smooth="yes"/>
      <point x="804" y="329"/>
      <point x="716" y="252"/>
      <point x="583" y="252" type="curve" smooth="yes"/>
      <point x="387" y="252"/>
      <point x="252" y="419"/>
      <point x="194" y="776" type="curve"/>
      <point x="106" y="769"/>
      <point x="79" y="729"/>
      <point x="79" y="660" type="curve" smooth="yes"/>
      <point x="79" y="479"/>
      <point x="264" y="2"/>
      <point x="663" y="2" type="curve" smooth="yes"/>
      <point x="875" y="2"/>
      <point x="1012" y="137"/>
      <point x="1012" y="322" type="curve" smooth="yes"/>
      <point x="1012" y="396"/>
      <point x="990" y="471"/>
      <point x="952" y="537" type="curve"/>
      <point x="1016" y="515"/>
      <point x="1057" y="507"/>
      <point x="1110" y="507" type="curve" smooth="yes"/>
      <point x="1136" y="507"/>
      <point x="1153" y="509"/>
      <point x="1182" y="514" type="curve"/>
      <point x="1182" y="-21" type="line"/>
      <point x="1400" y="-57" type="line"/>
      <point x="1422" y="-39" type="line"/>
      <point x="1422" y="1137" type="line"/>
      <point x="1706" y="1137" type="line"/>
      <point x="1706" y="-21" type="line"/>
      <point x="1924" y="-57" type="line"/>
      <point x="1946" y="-39" type="line"/>
      <point x="1946" y="1137" type="line"/>
      <point x="2189" y="1137" type="line"/>
      <point x="2206" y="1160" type="line"/>
    </contour>
    <contour>
      <point x="1083" y="-501"/>
      <point x="1250" y="-388"/>
      <point x="1250" y="-284" type="curve" smooth="yes"/>
      <point x="1250" y="-207"/>
      <point x="1200" y="-151"/>
      <point x="1117" y="-120" type="curve"/>
      <point x="1042" y="-237"/>
      <point x="898" y="-300"/>
      <point x="758" y="-300" type="curve" smooth="yes"/>
      <point x="596" y="-300"/>
      <point x="461" y="-216"/>
      <point x="368" y="-84" type="curve"/>
      <point x="347" y="-105"/>
      <point x="332" y="-133"/>
      <point x="332" y="-182" type="curve" smooth="yes"/>
      <point x="332" y="-317"/>
      <point x="551" y="-501"/>
      <point x="849" y="-501" type="curve" smooth="yes"/>
    </contour>
    <contour>
      <point x="1109" y="-569"/>
      <point x="993" y="-610"/>
      <point x="839" y="-610" type="curve" smooth="yes"/>
      <point x="640" y="-610"/>
      <point x="475" y="-523"/>
      <point x="368" y="-384" type="curve"/>
      <point x="347" y="-403"/>
      <point x="332" y="-428"/>
      <point x="332" y="-472" type="curve" smooth="yes"/>
      <point x="332" y="-597"/>
      <point x="578" y="-807"/>
      <point x="917" y="-807" type="curve" smooth="yes"/>
      <point x="1129" y="-807"/>
      <point x="1259" y="-736"/>
      <point x="1259" y="-639" type="curve" smooth="yes"/>
      <point x="1259" y="-598"/>
      <point x="1229" y="-542"/>
      <point x="1175" y="-509" type="curve"/>
    </contour>
  </outline>
</glyph>
<glyph name="dZha" format="1">
  <advance width="1481"/>
  <unicode hex="0979"/>
  <outline>
    <contour>
      <point x="1481" y="1330" type="line"/>
      <point x="-36" y="1330" type="line"/>
      <point x="-53" y="1307" type="line"/>
      <point x="0" y="1137" type="line"/>
      <point x="1054" y="1137" type="line"/>
      <point x="1054" y="923" type="line"/>
      <point x="458" y="923" type="line"/>
      <point x="441" y="900" type="line"/>
      <point x="494" y="730" type="line"/>
      <point x="622" y="730"/>
      <point x="688" y="649"/>
      <point x="688" y="556" type="curve" smooth="yes"/>
      <point x="688" y="455"/>
      <point x="611" y="399"/>
      <point x="523" y="399" type="curve" smooth="yes"/>
      <point x="374" y="399"/>
      <point x="267" y="557"/>
      <point x="211" y="943" type="curve"/>
      <point x="122" y="935"/>
      <point x="90" y="899"/>
      <point x="90" y="811" type="curve" smooth="yes"/>
      <point x="90" y="635"/>
      <point x="244" y="149"/>
      <point x="596" y="149" type="curve" smooth="yes"/>
      <point x="767" y="149"/>
      <point x="902" y="263"/>
      <point x="902" y="443" type="curve" smooth="yes"/>
      <point x="902" y="542"/>
      <point x="861" y="638"/>
      <point x="781" y="730" type="curve"/>
      <point x="1054" y="730" type="line"/>
      <point x="1054" y="-21" type="line"/>
      <point x="1272" y="-57" type="line"/>
      <point x="1294" y="-39" type="line"/>
      <point x="1294" y="1137" type="line"/>
      <point x="1517" y="1137" type="line"/>
      <point x="1534" y="1160" type="line"/>
    </contour>
    <contour>
      <point x="277" y="100"/>
      <point x="232" y="55"/>
      <point x="232" y="0" type="curve" smooth="yes"/>
      <point x="232" y="-55"/>
      <point x="277" y="-100"/>
      <point x="332" y="-100" type="curve" smooth="yes"/>
      <point x="387" y="-100"/>
      <point x="432" y="-55"/>
      <point x="432" y="0" type="curve" smooth="yes"/>
      <point x="432" y="55"/>
      <point x="387" y="100"/>
      <point x="332" y="100" type="curve" smooth="yes"/>
    </contour>
    <contour>
      <point x="751" y="100"/>
      <point x="706" y="55"/>
      <point x="706" y="0" type="curve" smooth="yes"/>
      <point x="706" y="-55"/>
      <point x="751" y="-100"/>
      <point x="806" y="-100" type="curve" smooth="yes"/>
      <point x="861" y="-100"/>
      <point x="907" y="-55"/>
      <point x="907" y="0" type="curve" smooth="yes"/>
      <point x="907" y="55"/>
      <point x="861" y="100"/>
      <point x="806" y="100" type="curve" smooth="yes"/>
    </contour>
    <contour>
      <point x="516" y="-98"/>
      <point x="471" y="-143"/>
      <point x="471" y="-198" type="curve" smooth="yes"/>
      <point x="471" y="-253"/>
      <point x="516" y="-298"/>
      <point x="571" y="-298" type="curve" smooth="yes"/>
      <point x="626" y="-298"/>
      <point x="670" y="-253"/>
      <point x="670" y="-198" type="curve" smooth="yes"/>
      <point x="670" y="-143"/>
      <point x="626" y="-98"/>
      <point x="571" y="-98" type="curve" smooth="yes"/>
    </contour>
  </outline>
</glyph>
<glyph name="dYaheavy" format="1">
  <advance width="1307"/>
  <unicode hex="097A"/>
  <outline>
    <contour>
      <point x="1307" y="1330" type="line"/>
      <point x="-36" y="1330" type="line"/>
      <point x="-53" y="1307" type="line"/>
      <point x="0" y="1137" type="line"/>
      <point x="358" y="1137" type="line"/>
      <point x="372" y="1101"/>
      <point x="382" y="1058"/>
      <point x="382" y="1013" type="curve" smooth="yes"/>
      <point x="382" y="894"/>
      <point x="314" y="816"/>
      <point x="99" y="754" type="curve"/>
      <point x="87" y="728" type="line"/>
      <point x="259" y="350"/>
      <point x="512" y="201"/>
      <point x="731" y="201" type="curve" smooth="yes"/>
      <point x="789" y="201"/>
      <point x="826" y="209"/>
      <point x="881" y="229" type="curve"/>
      <point x="881" y="-21" type="line"/>
      <point x="1098" y="-57" type="line"/>
      <point x="1120" y="-39" type="line"/>
      <point x="1120" y="1137" type="line"/>
      <point x="1343" y="1137" type="line"/>
      <point x="1360" y="1160" type="line"/>
    </contour>
    <contour>
      <point x="881" y="757" type="line"/>
      <point x="605" y="1137" type="line"/>
      <point x="881" y="1137" type="line"/>
    </contour>
    <contour>
      <point x="506" y="421"/>
      <point x="412" y="469"/>
      <point x="347" y="568" type="curve"/>
      <point x="514" y="629"/>
      <point x="602" y="726"/>
      <point x="602" y="858" type="curve" smooth="yes"/>
      <point x="602" y="873"/>
      <point x="601" y="889"/>
      <point x="599" y="905" type="curve"/>
      <point x="847" y="563" type="line"/>
      <point x="797" y="474"/>
      <point x="696" y="421"/>
      <point x="599" y="421" type="curve" smooth="yes"/>
    </contour>
  </outline>
</glyph>
<glyph name="dJja" format="1">
  <advance width="1481"/>
  <unicode hex="097C"/>
  <outline>
    <contour>
      <point x="1481" y="1330" type="line"/>
      <point x="-36" y="1330" type="line"/>
      <point x="-53" y="1307" type="line"/>
      <point x="0" y="1137" type="line"/>
      <point x="1054" y="1137" type="line"/>
      <point x="1054" y="923" type="line"/>
      <point x="458" y="923" type="line"/>
      <point x="441" y="900" type="line"/>
      <point x="494" y="730" type="line"/>
      <point x="622" y="730"/>
      <point x="688" y="649"/>
      <point x="688" y="556" type="curve" smooth="yes"/>
      <point x="688" y="455"/>
      <point x="611" y="399"/>
      <point x="523" y="399" type="curve" smooth="yes"/>
      <point x="374" y="399"/>
      <point x="267" y="557"/>
      <point x="211" y="943" type="curve"/>
      <point x="122" y="935"/>
      <point x="90" y="899"/>
      <point x="90" y="811" type="curve" smooth="yes"/>
      <point x="90" y="635"/>
      <point x="244" y="149"/>
      <point x="596" y="149" type="curve" smooth="yes"/>
      <point x="767" y="149"/>
      <point x="902" y="263"/>
      <point x="902" y="443" type="curve" smooth="yes"/>
      <point x="902" y="542"/>
      <point x="861" y="638"/>
      <point x="781" y="730" type="curve"/>
      <point x="1054" y="730" type="line"/>
      <point x="1054" y="60" type="line"/>
      <point x="122" y="60" type="line"/>
      <point x="105" y="37" type="line"/>
      <point x="148" y="-93" type="line"/>
      <point x="1294" y="-93" type="line"/>
      <point x="1294" y="1137" type="line"/>
      <point x="1517" y="1137" type="line"/>
      <point x="1534" y="1160" type="line"/>
    </contour>
  </outline>
</glyph>
<glyph name="dDdda" format="1">
  <advance width="1112"/>
  <unicode hex="097E"/>
  <outline>
    <contour>
      <point x="1112" y="1330" type="line"/>
      <point x="-36" y="1330" type="line"/>
      <point x="-53" y="1307" type="line"/>
      <point x="0" y="1137" type="line"/>
      <point x="708" y="1137" type="line"/>
      <point x="708" y="1046" type="line" smooth="yes"/>
      <point x="708" y="1033"/>
      <point x="701" y="1026"/>
      <point x="688" y="1026" type="curve" smooth="yes"/>
      <point x="357" y="1026" type="line" smooth="yes"/>
      <point x="218" y="1026"/>
      <point x="154" y="968"/>
      <point x="154" y="879" type="curve" smooth="yes"/>
      <point x="154" y="714"/>
      <point x="376" y="482"/>
      <point x="580" y="482" type="curve" smooth="yes"/>
      <point x="635" y="482"/>
      <point x="739" y="499"/>
      <point x="773" y="499" type="curve" smooth="yes"/>
      <point x="822" y="499"/>
      <point x="836" y="465"/>
      <point x="836" y="430" type="curve" smooth="yes"/>
      <point x="836" y="338"/>
      <point x="742" y="270"/>
      <point x="615" y="270" type="curve" smooth="yes"/>
      <point x="444" y="270"/>
      <point x="268" y="393"/>
      <point x="143" y="636" type="curve"/>
      <point x="99" y="619"/>
      <point x="67" y="589"/>
      <point x="71" y="535" type="curve" smooth="yes"/>
      <point x="81" y="398"/>
      <point x="324" y="39"/>
      <point x="694" y="39" type="curve" smooth="yes"/>
      <point x="886" y="39"/>
      <point x="1020" y="136"/>
      <point x="1020" y="319" type="curve" smooth="yes"/>
      <point x="1020" y="517"/>
      <point x="863" y="716"/>
      <point x="691" y="716" type="curve" smooth="yes"/>
      <point x="647" y="716"/>
      <point x="529" y="703"/>
      <point x="478" y="703" type="curve" smooth="yes"/>
      <point x="402" y="703"/>
      <point x="376" y="731"/>
      <point x="376" y="768" type="curve" smooth="yes"/>
      <point x="376" y="826"/>
      <point x="440" y="855"/>
      <point x="519" y="855" type="curve" smooth="yes"/>
      <point x="922" y="855" type="line"/>
      <point x="942" y="875" type="line"/>
      <point x="942" y="1137" type="line"/>
      <point x="1148" y="1137" type="line"/>
      <point x="1165" y="1160" type="line"/>
    </contour>
    <contour>
      <point x="1038" y="-40" type="line"/>
      <point x="122" y="-40" type="line"/>
      <point x="105" y="-63" type="line"/>
      <point x="148" y="-193" type="line"/>
      <point x="1064" y="-193" type="line"/>
      <point x="1081" y="-170" type="line"/>
    </contour>
  </outline>
</glyph>
<glyph name="dBba" format="1">
  <advance width="1230"/>
  <unicode hex="097F"/>
  <outline>
    <contour>
      <point x="1230" y="1330" type="line"/>
      <point x="-36" y="1330" type="line"/>
      <point x="-53" y="1307" type="line"/>
      <point x="0" y="1137" type="line"/>
      <point x="813" y="1137" type="line"/>
      <point x="813" y="869" type="line"/>
      <point x="707" y="960"/>
      <point x="589" y="997"/>
      <point x="475" y="997" type="curve" smooth="yes"/>
      <point x="254" y="997"/>
      <point x="89" y="859"/>
      <point x="89" y="658" type="curve" smooth="yes"/>
      <point x="89" y="403"/>
      <point x="355" y="179"/>
      <point x="606" y="179" type="curve" smooth="yes"/>
      <point x="666" y="179"/>
      <point x="738" y="192"/>
      <point x="813" y="224" type="curve"/>
      <point x="813" y="60" type="line"/>
      <point x="113" y="60" type="line"/>
      <point x="96" y="37" type="line"/>
      <point x="139" y="-93" type="line"/>
      <point x="1043" y="-93" type="line"/>
      <point x="1043" y="1137" type="line"/>
      <point x="1266" y="1137" type="line"/>
      <point x="1283" y="1160" type="line"/>
    </contour>
    <contour>
      <point x="813" y="608" type="line" smooth="yes"/>
      <point x="813" y="555"/>
      <point x="790" y="505"/>
      <point x="754" y="466" type="curve"/>
      <point x="497" y="773" type="line"/>
      <point x="523" y="780"/>
      <point x="551" y="783"/>
      <point x="580" y="783" type="curve" smooth="yes"/>
      <point x="720" y="783"/>
      <point x="813" y="705"/>
      <point x="813" y="632" type="curve" smooth="yes"/>
    </contour>
    <contour>
      <point x="394" y="368"/>
      <point x="308" y="452"/>
      <point x="308" y="561" type="curve" smooth="yes"/>
      <point x="308" y="612"/>
      <point x="327" y="658"/>
      <point x="360" y="694" type="curve"/>
      <point x="624" y="384" type="line"/>
      <point x="593" y="374"/>
      <point x="560" y="368"/>
      <point x="526" y="368" type="curve" smooth="yes"/>
    </contour>
  </outline>
</glyph>
<glyph name="zerowidthnonjoiner" format="1">
  <advance width="0"/>
  <unicode hex="200C"/>
  <outline>
    <contour>
      <point x="0" y="2056" type="line"/>
      <point x="127" y="2056" type="line"/>
      <point x="127" y="-492" type="line"/>
      <point x="0" y="-492" type="line"/>
    </contour>
  </outline>
</glyph>
<glyph name="emdash" format="1">
  <advance width="2048"/>
  <unicode hex="2014"/>
  <outline>
    <contour>
      <point x="2058" y="623" type="line"/>
      <point x="2058" y="477" type="line"/>
      <point x="-10" y="477" type="line"/>
      <point x="-10" y="623" type="line"/>
    </contour>
  </outline>
</glyph>
<glyph name="quotedblleft" format="1">
  <advance width="1001"/>
  <unicode hex="201C"/>
  <outline>
    <contour>
      <point x="115" y="1148"/>
      <point x="141" y="1231"/>
      <point x="199" y="1300" type="curve" smooth="yes"/>
      <point x="257" y="1369"/>
      <point x="348" y="1426"/>
      <point x="481" y="1462" type="curve"/>
      <point x="481" y="1356" type="line"/>
      <point x="421" y="1335"/>
      <point x="377" y="1314"/>
      <point x="347" y="1290" type="curve" smooth="yes"/>
      <point x="317" y="1265"/>
      <point x="301" y="1236"/>
      <point x="301" y="1196" type="curve" smooth="yes"/>
      <point x="301" y="1169"/>
      <point x="317" y="1156"/>
      <point x="340" y="1141" type="curve" smooth="yes"/>
      <point x="351" y="1134"/>
      <point x="363" y="1126"/>
      <point x="376" y="1119" type="curve"/>
      <point x="401" y="1103"/>
      <point x="425" y="1081"/>
      <point x="440" y="1045" type="curve" smooth="yes"/>
      <point x="447" y="1027"/>
      <point x="451" y="1004"/>
      <point x="451" y="977" type="curve" smooth="yes"/>
      <point x="451" y="885"/>
      <point x="387" y="836"/>
      <point x="303" y="836" type="curve" smooth="yes"/>
      <point x="187" y="836"/>
      <point x="115" y="921"/>
      <point x="115" y="1061" type="curve" smooth="yes"/>
    </contour>
    <contour>
      <point x="543" y="1148"/>
      <point x="569" y="1231"/>
      <point x="627" y="1300" type="curve" smooth="yes"/>
      <point x="685" y="1369"/>
      <point x="776" y="1426"/>
      <point x="909" y="1462" type="curve"/>
      <point x="909" y="1356" type="line"/>
      <point x="850" y="1335"/>
      <point x="805" y="1314"/>
      <point x="775" y="1290" type="curve" smooth="yes"/>
      <point x="745" y="1265"/>
      <point x="729" y="1236"/>
      <point x="729" y="1196" type="curve" smooth="yes"/>
      <point x="729" y="1169"/>
      <point x="745" y="1156"/>
      <point x="768" y="1141" type="curve" smooth="yes"/>
      <point x="779" y="1134"/>
      <point x="791" y="1126"/>
      <point x="804" y="1119" type="curve"/>
      <point x="829" y="1103"/>
      <point x="853" y="1081"/>
      <point x="868" y="1045" type="curve" smooth="yes"/>
      <point x="875" y="1027"/>
      <point x="879" y="1004"/>
      <point x="879" y="977" type="curve" smooth="yes"/>
      <point x="879" y="885"/>
      <point x="815" y="836"/>
      <point x="731" y="836" type="curve" smooth="yes"/>
      <point x="615" y="836"/>
      <point x="543" y="921"/>
      <point x="543" y="1061" type="curve" smooth="yes"/>
    </contour>
  </outline>
</glyph>
<glyph name="dottedcircle" format="1">
  <advance width="1803"/>
  <unicode hex="25CC"/>
  <outline>
    <contour>
      <point x="848" y="1361"/>
      <point x="807" y="1321"/>
      <point x="807" y="1268" type="curve" smooth="yes"/>
      <point x="807" y="1219"/>
      <point x="848" y="1177"/>
      <point x="900" y="1177" type="curve" smooth="yes"/>
      <point x="953" y="1177"/>
      <point x="994" y="1219"/>
      <point x="994" y="1268" type="curve" smooth="yes"/>
      <point x="994" y="1321"/>
      <point x="953" y="1361"/>
      <point x="900" y="1361" type="curve" smooth="yes"/>
    </contour>
    <contour>
      <point x="545" y="1282"/>
      <point x="504" y="1240"/>
      <point x="504" y="1188" type="curve" smooth="yes"/>
      <point x="504" y="1136"/>
      <point x="545" y="1094"/>
      <point x="597" y="1094" type="curve" smooth="yes"/>
      <point x="651" y="1094"/>
      <point x="691" y="1135"/>
      <point x="691" y="1188" type="curve" smooth="yes"/>
      <point x="691" y="1240"/>
      <point x="651" y="1282"/>
      <point x="597" y="1282" type="curve" smooth="yes"/>
    </contour>
    <contour>
      <point x="1152" y="1282"/>
      <point x="1111" y="1240"/>
      <point x="1111" y="1188" type="curve" smooth="yes"/>
      <point x="1111" y="1134"/>
      <point x="1150" y="1094"/>
      <point x="1205" y="1094" type="curve" smooth="yes"/>
      <point x="1257" y="1094"/>
      <point x="1298" y="1135"/>
      <point x="1298" y="1188" type="curve" smooth="yes"/>
      <point x="1298" y="1240"/>
      <point x="1257" y="1282"/>
      <point x="1205" y="1282" type="curve" smooth="yes"/>
    </contour>
    <contour>
      <point x="323" y="1059"/>
      <point x="282" y="1018"/>
      <point x="282" y="966" type="curve" smooth="yes"/>
      <point x="282" y="911"/>
      <point x="321" y="872"/>
      <point x="375" y="872" type="curve" smooth="yes"/>
      <point x="428" y="872"/>
      <point x="469" y="913"/>
      <point x="469" y="966" type="curve" smooth="yes"/>
      <point x="469" y="1018"/>
      <point x="428" y="1059"/>
      <point x="375" y="1059" type="curve" smooth="yes"/>
    </contour>
    <contour>
      <point x="1376" y="1059"/>
      <point x="1335" y="1018"/>
      <point x="1335" y="966" type="curve" smooth="yes"/>
      <point x="1335" y="913"/>
      <point x="1376" y="872"/>
      <point x="1428" y="872" type="curve" smooth="yes"/>
      <point x="1482" y="872"/>
      <point x="1522" y="913"/>
      <point x="1522" y="966" type="curve" smooth="yes"/>
      <point x="1522" y="1018"/>
      <point x="1482" y="1059"/>
      <point x="1428" y="1059" type="curve" smooth="yes"/>
    </contour>
    <contour>
      <point x="241" y="755"/>
      <point x="200" y="714"/>
      <point x="200" y="661" type="curve" smooth="yes"/>
      <point x="200" y="607"/>
      <point x="240" y="568"/>
      <point x="294" y="568" type="curve" smooth="yes"/>
      <point x="346" y="568"/>
      <point x="388" y="609"/>
      <point x="388" y="661" type="curve" smooth="yes"/>
      <point x="388" y="714"/>
      <point x="346" y="755"/>
      <point x="294" y="755" type="curve" smooth="yes"/>
    </contour>
    <contour>
      <point x="1456" y="755"/>
      <point x="1415" y="714"/>
      <point x="1415" y="661" type="curve" smooth="yes"/>
      <point x="1415" y="607"/>
      <point x="1455" y="568"/>
      <point x="1509" y="568" type="curve" smooth="yes"/>
      <point x="1561" y="568"/>
      <point x="1603" y="609"/>
      <point x="1603" y="661" type="curve" smooth="yes"/>
      <point x="1603" y="714"/>
      <point x="1561" y="755"/>
      <point x="1509" y="755" type="curve" smooth="yes"/>
    </contour>
    <contour>
      <point x="323" y="451"/>
      <point x="282" y="409"/>
      <point x="282" y="357" type="curve" smooth="yes"/>
      <point x="282" y="303"/>
      <point x="321" y="263"/>
      <point x="375" y="263" type="curve" smooth="yes"/>
      <point x="428" y="263"/>
      <point x="469" y="304"/>
      <point x="469" y="357" type="curve" smooth="yes"/>
      <point x="469" y="409"/>
      <point x="428" y="451"/>
      <point x="375" y="451" type="curve" smooth="yes"/>
    </contour>
    <contour>
      <point x="1376" y="451"/>
      <point x="1335" y="409"/>
      <point x="1335" y="357" type="curve" smooth="yes"/>
      <point x="1335" y="305"/>
      <point x="1376" y="263"/>
      <point x="1428" y="263" type="curve" smooth="yes"/>
      <point x="1482" y="263"/>
      <point x="1522" y="304"/>
      <point x="1522" y="357" type="curve" smooth="yes"/>
      <point x="1522" y="409"/>
      <point x="1482" y="451"/>
      <point x="1428" y="451" type="curve" smooth="yes"/>
    </contour>
    <contour>
      <point x="545" y="230"/>
      <point x="504" y="189"/>
      <point x="504" y="136" type="curve" smooth="yes"/>
      <point x="504" y="86"/>
      <point x="547" y="41"/>
      <point x="597" y="41" type="curve" smooth="yes"/>
      <point x="651" y="41"/>
      <point x="691" y="84"/>
      <point x="691" y="136" type="curve" smooth="yes"/>
      <point x="691" y="189"/>
      <point x="651" y="230"/>
      <point x="597" y="230" type="curve" smooth="yes"/>
    </contour>
    <contour>
      <point x="1152" y="230"/>
      <point x="1111" y="189"/>
      <point x="1111" y="136" type="curve" smooth="yes"/>
      <point x="1111" y="84"/>
      <point x="1152" y="41"/>
      <point x="1205" y="41" type="curve" smooth="yes"/>
      <point x="1257" y="41"/>
      <point x="1298" y="84"/>
      <point x="1298" y="136" type="curve" smooth="yes"/>
      <point x="1298" y="189"/>
      <point x="1257" y="230"/>
      <point x="1205" y="230" type="curve" smooth="yes"/>
    </contour>
    <contour>
      <point x="848" y="146"/>
      <point x="807" y="106"/>
      <point x="807" y="52" type="curve" smooth="yes"/>
      <point x="807" y="0"/>
      <point x="848" y="-41"/>
      <point x="900" y="-41" type="curve" smooth="yes"/>
      <point x="953" y="-41"/>
      <point x="994" y="0"/>
      <point x="994" y="52" type="curve" smooth="yes"/>
      <point x="994" y="106"/>
      <point x="953" y="146"/>
      <point x="900" y="146" type="curve" smooth="yes"/>
    </contour>
  </outline>
</glyph>
<glyph name="dOnecombiningdigit" format="1">
  <advance width="0"/>
  <unicode hex="A8E1"/>
  <outline>
    <contour>
      <point x="-287" y="1554"/>
      <point x="-331" y="1582"/>
      <point x="-363" y="1603" type="curve"/>
      <point x="-240" y="1710"/>
      <point x="-189" y="1772"/>
      <point x="-189" y="1845" type="curve" smooth="yes"/>
      <point x="-189" y="1944"/>
      <point x="-286" y="2046"/>
      <point x="-398" y="2046" type="curve" smooth="yes"/>
      <point x="-468" y="2046"/>
      <point x="-532" y="1993"/>
      <point x="-532" y="1917" type="curve" smooth="yes"/>
      <point x="-532" y="1847"/>
      <point x="-478" y="1791"/>
      <point x="-409" y="1749" type="curve"/>
      <point x="-445" y="1713"/>
      <point x="-494" y="1669"/>
      <point x="-544" y="1627" type="curve"/>
      <point x="-442" y="1552"/>
      <point x="-334" y="1497"/>
      <point x="-334" y="1474" type="curve" smooth="yes"/>
      <point x="-334" y="1448"/>
      <point x="-358" y="1434"/>
      <point x="-391" y="1419" type="curve"/>
      <point x="-365" y="1373"/>
      <point x="-320" y="1346"/>
      <point x="-282" y="1346" type="curve" smooth="yes"/>
      <point x="-231" y="1346"/>
      <point x="-198" y="1389"/>
      <point x="-198" y="1432" type="curve" smooth="yes"/>
      <point x="-198" y="1477"/>
      <point x="-216" y="1502"/>
      <point x="-273" y="1543" type="curve"/>
    </contour>
    <contour>
      <point x="-384" y="1908"/>
      <point x="-366" y="1933"/>
      <point x="-347" y="1933" type="curve" smooth="yes"/>
      <point x="-331" y="1933"/>
      <point x="-316" y="1923"/>
      <point x="-316" y="1894" type="curve" smooth="yes"/>
      <point x="-316" y="1869"/>
      <point x="-329" y="1843"/>
      <point x="-355" y="1814" type="curve"/>
      <point x="-376" y="1831"/>
      <point x="-384" y="1851"/>
      <point x="-384" y="1874" type="curve" smooth="yes"/>
    </contour>
  </outline>
</glyph>
<glyph name="dTwocombiningdigit" format="1">
  <advance width="0"/>
  <unicode hex="A8E2"/>
  <outline>
    <contour>
      <point x="-211" y="1512"/>
      <point x="-237" y="1501"/>
      <point x="-255" y="1501" type="curve" smooth="yes"/>
      <point x="-284" y="1501"/>
      <point x="-309" y="1516"/>
      <point x="-341" y="1578" type="curve"/>
      <point x="-191" y="1624"/>
      <point x="-124" y="1723"/>
      <point x="-124" y="1817" type="curve" smooth="yes"/>
      <point x="-124" y="1936"/>
      <point x="-228" y="2046"/>
      <point x="-364" y="2046" type="curve" smooth="yes"/>
      <point x="-472" y="2046"/>
      <point x="-549" y="1976"/>
      <point x="-549" y="1911" type="curve" smooth="yes"/>
      <point x="-549" y="1856"/>
      <point x="-489" y="1813"/>
      <point x="-407" y="1821" type="curve"/>
      <point x="-411" y="1882"/>
      <point x="-371" y="1934"/>
      <point x="-318" y="1934" type="curve" smooth="yes"/>
      <point x="-284" y="1934"/>
      <point x="-262" y="1916"/>
      <point x="-262" y="1867" type="curve" smooth="yes"/>
      <point x="-262" y="1811"/>
      <point x="-298" y="1751"/>
      <point x="-381" y="1710" type="curve"/>
      <point x="-405" y="1733"/>
      <point x="-439" y="1748"/>
      <point x="-472" y="1748" type="curve" smooth="yes"/>
      <point x="-522" y="1748"/>
      <point x="-557" y="1714"/>
      <point x="-557" y="1673" type="curve" smooth="yes"/>
      <point x="-557" y="1624"/>
      <point x="-508" y="1555"/>
      <point x="-417" y="1558" type="curve"/>
      <point x="-350" y="1402"/>
      <point x="-280" y="1372"/>
      <point x="-220" y="1372" type="curve" smooth="yes"/>
      <point x="-161" y="1372"/>
      <point x="-128" y="1408"/>
      <point x="-128" y="1442" type="curve" smooth="yes"/>
      <point x="-128" y="1471"/>
      <point x="-149" y="1505"/>
      <point x="-192" y="1534" type="curve"/>
    </contour>
  </outline>
</glyph>
